<svg width="40" height="40" viewBox="0 0 40 40" fill="none" xmlns="http://www.w3.org/2000/svg">
<path d="M14 8.0625C14 7.51549 14.2568 6.99089 14.7139 6.60409C15.171 6.2173 15.791 6 16.4375 6H24.5625C25.209 6 25.829 6.2173 26.2861 6.60409C26.7432 6.99089 27 7.51549 27 8.0625V9.4375C27 9.98451 26.7432 10.5091 26.2861 10.8959C25.829 11.2827 25.209 11.5 24.5625 11.5H16.4375C15.791 11.5 15.171 11.2827 14.7139 10.8959C14.2568 10.5091 14 9.98451 14 9.4375V8.0625Z" fill="#F67676"/>
<path fill-rule="evenodd" clip-rule="evenodd" d="M12.25 8C10.363 8.10523 9.172 8.40588 8.3185 9.26274C7 10.5841 7 12.7097 7 16.9609V25.9805C7 30.2332 7 32.3588 8.3185 33.6801C9.6355 35 11.758 35 16 35H25C29.242 35 31.3645 35 32.6815 33.6801C34 32.3573 34 30.2332 34 25.9805V16.9609C34 12.7097 34 10.5841 32.6815 9.26274C31.828 8.40588 30.637 8.10523 28.75 8V8.69601C28.75 9.89207 28.2759 11.0392 27.432 11.8849C26.5881 12.7306 25.4435 13.2058 24.25 13.2058H16.75C15.5565 13.2058 14.4119 12.7306 13.568 11.8849C12.7241 11.0392 12.25 9.89207 12.25 8.69601V8ZM11.875 17.7156C11.875 17.4165 11.9935 17.1298 12.2045 16.9183C12.4155 16.7069 12.7016 16.5881 13 16.5881H28C28.2984 16.5881 28.5845 16.7069 28.7955 16.9183C29.0065 17.1298 29.125 17.4165 29.125 17.7156C29.125 18.0146 29.0065 18.3013 28.7955 18.5128C28.5845 18.7242 28.2984 18.843 28 18.843H13C12.7016 18.843 12.4155 18.7242 12.2045 18.5128C11.9935 18.3013 11.875 18.0146 11.875 17.7156ZM13.375 22.9769C13.375 22.6779 13.4935 22.3912 13.7045 22.1797C13.9155 21.9683 14.2016 21.8495 14.5 21.8495H26.5C26.7984 21.8495 27.0845 21.9683 27.2955 22.1797C27.5065 22.3912 27.625 22.6779 27.625 22.9769C27.625 23.276 27.5065 23.5627 27.2955 23.7742C27.0845 23.9856 26.7984 24.1044 26.5 24.1044H14.5C14.2016 24.1044 13.9155 23.9856 13.7045 23.7742C13.4935 23.5627 13.375 23.276 13.375 22.9769ZM14.875 28.2383C14.875 27.9393 14.9935 27.6526 15.2045 27.4411C15.4155 27.2297 15.7016 27.1109 16 27.1109H25C25.2984 27.1109 25.5845 27.2297 25.7955 27.4411C26.0065 27.6526 26.125 27.9393 26.125 28.2383C26.125 28.5374 26.0065 28.8241 25.7955 29.0356C25.5845 29.247 25.2984 29.3658 25 29.3658H16C15.7016 29.3658 15.4155 29.247 15.2045 29.0356C14.9935 28.8241 14.875 28.5374 14.875 28.2383Z" fill="#F67676"/>
</svg>
