<svg width="24" height="24" viewBox="0 0 24 24" fill="none" xmlns="http://www.w3.org/2000/svg">
<g id="board">
<g id="Group">
<path id="Vector" d="M15.4 5.60156C17.14 5.61116 18.0824 5.68876 18.6968 6.30316C19.4 7.00636 19.4 8.13756 19.4 10.4V15.2C19.4 17.4632 19.4 18.5944 18.6968 19.2976C17.9944 20 16.8624 20 14.6 20H9.8C7.5376 20 6.4056 20 5.7032 19.2976C5 18.5936 5 17.4632 5 15.2V10.4C5 8.13756 5 7.00636 5.7032 6.30316C6.3176 5.68876 7.26 5.61116 9 5.60156" stroke="#F67676" stroke-width="1.5"/>
<path id="Vector_2" d="M8.99922 13.6H15.3992M8.19922 10.8H16.1992M9.79922 16.4H14.5992" stroke="#F67676" stroke-width="1.5" stroke-linecap="round"/>
<path id="Vector_3" d="M9 5.2C9 4.88174 9.12643 4.57652 9.35147 4.35147C9.57652 4.12643 9.88174 4 10.2 4H14.2C14.5183 4 14.8235 4.12643 15.0485 4.35147C15.2736 4.57652 15.4 4.88174 15.4 5.2V6C15.4 6.31826 15.2736 6.62348 15.0485 6.84853C14.8235 7.07357 14.5183 7.2 14.2 7.2H10.2C9.88174 7.2 9.57652 7.07357 9.35147 6.84853C9.12643 6.62348 9 6.31826 9 6V5.2Z" stroke="#F67676" stroke-width="1.5"/>
</g>
</g>
</svg>
