<svg width="24" height="24" viewBox="0 0 24 24" fill="none" xmlns="http://www.w3.org/2000/svg">
<g id="calendar">
<path id="Vector" d="M16 5.77778V4M8 5.77778V4M4.22222 8.44444H19.7778M4 10.2613C4 8.38133 4 7.44089 4.38756 6.72267C4.738 6.08205 5.28177 5.56845 5.94133 5.25511C6.70222 4.88889 7.69778 4.88889 9.68889 4.88889H14.3111C16.3022 4.88889 17.2978 4.88889 18.0587 5.25511C18.728 5.57689 19.2711 6.09067 19.6124 6.72178C20 7.44178 20 8.38222 20 10.2622V14.6284C20 16.5084 20 17.4489 19.6124 18.1671C19.262 18.8077 18.7182 19.3213 18.0587 19.6347C17.2978 20 16.3022 20 14.3111 20H9.68889C7.69778 20 6.70222 20 5.94133 19.6338C5.28191 19.3207 4.73814 18.8074 4.38756 18.1671C4 17.4471 4 16.5067 4 14.6267V10.2613Z" stroke="#F67676" stroke-width="1.2" stroke-linecap="round" stroke-linejoin="round"/>
</g>
</svg>
