<svg width="20" height="20" viewBox="0 0 20 20" fill="none" xmlns="http://www.w3.org/2000/svg">
<g id="&#236;&#185;&#180;&#235;&#169;&#148;&#235;&#157;&#188;">
<path id="Vector" d="M10 7.23529C11.5789 7.23529 12.8421 8.52941 12.8421 10.1471C12.8421 11.7647 11.5789 13.0588 10 13.0588C8.42105 13.0588 7.15789 11.7647 7.15789 10.1471C7.15789 8.52941 8.42105 7.23529 10 7.23529ZM10 7.88235C9.41373 7.88235 8.85148 8.12096 8.43692 8.54567C8.02237 8.97039 7.78947 9.54642 7.78947 10.1471C7.78947 10.7477 8.02237 11.3237 8.43692 11.7484C8.85148 12.1732 9.41373 12.4118 10 12.4118C10.5863 12.4118 11.1485 12.1732 11.5631 11.7484C11.9776 11.3237 12.2105 10.7477 12.2105 10.1471C12.2105 9.54642 11.9776 8.97039 11.5631 8.54567C11.1485 8.12096 10.5863 7.88235 10 7.88235ZM5.89474 5.29412H7.15789L8.42105 4H11.5789L12.8421 5.29412H14.1053C14.6078 5.29412 15.0897 5.49863 15.445 5.86268C15.8004 6.22672 16 6.72046 16 7.23529V13.0588C16 13.5737 15.8004 14.0674 15.445 14.4314C15.0897 14.7955 14.6078 15 14.1053 15H5.89474C5.39222 15 4.91029 14.7955 4.55496 14.4314C4.19962 14.0674 4 13.5737 4 13.0588V7.23529C4 6.72046 4.19962 6.22672 4.55496 5.86268C4.91029 5.49863 5.39222 5.29412 5.89474 5.29412ZM8.68 4.64706L7.41684 5.94118H5.89474C5.55973 5.94118 5.23844 6.07752 5.00155 6.32021C4.76466 6.56291 4.63158 6.89207 4.63158 7.23529V13.0588C4.63158 13.402 4.76466 13.7312 5.00155 13.9739C5.23844 14.2166 5.55973 14.3529 5.89474 14.3529H14.1053C14.4403 14.3529 14.7616 14.2166 14.9985 13.9739C15.2353 13.7312 15.3684 13.402 15.3684 13.0588V7.23529C15.3684 6.89207 15.2353 6.56291 14.9985 6.32021C14.7616 6.07752 14.4403 5.94118 14.1053 5.94118H12.5832L11.32 4.64706H8.68Z" fill="#919191"/>
</g>
</svg>
