<svg width="20" height="20" viewBox="0 0 20 20" fill="none" xmlns="http://www.w3.org/2000/svg">
<rect width="20" height="20" fill="#F5F5F5"/>
<g id="Home_01" clip-path="url(#clip0_1077_5286)">
<rect width="1440" height="1726" transform="translate(-159 -1670)" fill="white"/>
<g id="Frame 1321318210">
<rect width="1440" height="75" transform="translate(-159 -19)" fill="#F8F8F8"/>
<g id="Group 427321612">
<g id="Group 427321609">
<g id="Group 427321608">
<g id="logo">
<g id="Group">
<path id="Vector" d="M7.10275 12.5964C6.21516 12.313 5.80966 11.099 6.19755 9.88451C6.58502 8.67007 7.61883 7.91519 8.50642 8.19863C9.28506 8.44725 9.69261 9.41225 9.51894 10.4653C10.1636 8.16709 9.45586 5.9176 7.77243 5.22703C5.90755 4.46191 3.55198 5.89917 2.5108 8.43701C1.46961 10.9748 2.13766 13.6519 4.00213 14.4171C5.7556 15.1363 7.94241 13.9088 9.06306 11.6503C8.56868 12.4109 7.79168 12.8168 7.10275 12.5968V12.5964Z" fill="black"/>
<path id="Vector_2" d="M5.05801 14.6424C4.68896 14.6424 4.33057 14.574 3.99388 14.436C2.12163 13.668 1.44744 10.9733 2.49149 8.42927C2.99652 7.19804 3.82431 6.1847 4.82167 5.57605C5.82108 4.96616 6.87169 4.8355 7.77975 5.20823C8.59403 5.54246 9.21866 6.26293 9.53773 7.23736C9.85312 8.19949 9.85312 9.34799 9.53814 10.4715C9.53527 10.4822 9.52462 10.4883 9.51397 10.4858C9.50332 10.4834 9.49636 10.4731 9.49841 10.4625C9.67289 9.40247 9.25306 8.45876 8.49982 8.21833C8.07671 8.08317 7.60691 8.18229 7.17601 8.49686C6.74348 8.81265 6.4027 9.30785 6.21634 9.89111C6.03038 10.4744 6.02096 11.0752 6.19094 11.5835C6.35969 12.0894 6.68573 12.4425 7.10843 12.5772C7.76583 12.7869 8.54405 12.4101 9.0454 11.6393C9.05113 11.6302 9.06342 11.6274 9.07284 11.6327C9.08226 11.638 9.08595 11.6499 9.08103 11.6597C8.53463 12.7607 7.7175 13.652 6.77953 14.1689C6.20814 14.4839 5.62079 14.6432 5.05801 14.6432V14.6424ZM6.71276 5.04071C6.10165 5.04071 5.46268 5.23281 4.84297 5.61045C3.85298 6.2146 3.03134 7.22097 2.52959 8.44402C1.49454 10.9671 2.15849 13.6377 4.00986 14.3975C4.84829 14.7415 5.82476 14.6469 6.75987 14.1316C7.61878 13.6581 8.37612 12.868 8.91433 11.8891C8.40643 12.5191 7.70234 12.8086 7.09614 12.6153C6.66034 12.4765 6.32529 12.114 6.15203 11.5954C5.97959 11.0793 5.9886 10.469 6.17742 9.87759C6.36625 9.28614 6.71235 8.78357 7.15185 8.46286C7.59339 8.14051 8.07671 8.03934 8.51211 8.1786C9.21292 8.40224 9.63357 9.21528 9.57295 10.1705C9.8097 9.14852 9.78471 8.12167 9.49882 7.24923C9.18343 6.28669 8.56699 5.57482 7.76419 5.2455C7.43037 5.10829 7.07648 5.04071 6.71276 5.04071Z" fill="black"/>
</g>
<g id="Group_2">
<path id="Vector_3" d="M15.3313 12.5964C14.4438 12.313 14.0383 11.099 14.4261 9.88451C14.814 8.67007 15.8474 7.91519 16.735 8.19863C17.5137 8.44725 17.9212 9.41225 17.7475 10.4653C18.3922 8.16709 17.6845 5.9176 16.001 5.22703C14.1362 4.46191 11.7806 5.89917 10.7394 8.43701C9.69821 10.9748 10.3659 13.6519 12.2307 14.4171C13.9842 15.1363 16.171 13.9088 17.2917 11.6503C16.7973 12.4109 16.0203 12.8168 15.3313 12.5968V12.5964Z" fill="black"/>
<path id="Vector_4" d="M13.2886 14.6424C12.9196 14.6424 12.5612 14.574 12.2245 14.436C10.3522 13.668 9.67804 10.9733 10.7217 8.42927C11.2267 7.19804 12.0545 6.1847 13.0519 5.57605C14.0513 4.96616 15.1019 4.8355 16.0099 5.20823C16.8242 5.54246 17.4488 6.26293 17.7679 7.23736C18.0833 8.19949 18.0837 9.34799 17.7683 10.4715C17.7655 10.4817 17.7548 10.4883 17.7442 10.4858C17.7335 10.4834 17.7265 10.4731 17.7286 10.4625C17.9031 9.40247 17.4832 8.45876 16.73 8.21874C15.8547 7.9394 14.8303 8.68977 14.4469 9.89152C14.0636 11.0933 14.4637 12.2983 15.339 12.5776C15.996 12.7873 16.7747 12.4105 17.276 11.6397C17.2817 11.6307 17.294 11.6278 17.3034 11.6331C17.3129 11.6384 17.3165 11.6503 17.3116 11.6601C16.7652 12.7611 15.9481 13.6524 15.0101 14.1693C14.4387 14.4843 13.8514 14.6436 13.2886 14.6436V14.6424ZM14.943 5.04071C14.3318 5.04071 13.6929 5.23281 13.0732 5.61045C12.0832 6.2146 11.2615 7.22097 10.7598 8.44402C9.72473 10.9671 10.3887 13.6377 12.24 14.3975C13.0785 14.7415 14.055 14.6469 14.9901 14.1316C15.849 13.6581 16.6067 12.868 17.1445 11.8891C16.6366 12.5191 15.9325 12.8086 15.3263 12.6153C14.4293 12.329 14.0173 11.101 14.4076 9.878C14.798 8.65496 15.8453 7.89271 16.7423 8.1786C17.4431 8.40224 17.8638 9.21528 17.8031 10.17C18.0399 9.14811 18.0149 8.12126 17.729 7.24882C17.4136 6.28628 16.7972 5.57441 15.9944 5.24509C15.6601 5.10788 15.3067 5.0403 14.943 5.0403V5.04071Z" fill="black"/>
</g>
</g>
</g>
</g>
</g>
</g>
</g>
<defs>
<clipPath id="clip0_1077_5286">
<rect width="1440" height="1726" fill="white" transform="translate(-159 -1670)"/>
</clipPath>
</defs>
</svg>
