<svg width="24" height="24" viewBox="0 0 24 24" fill="none" xmlns="http://www.w3.org/2000/svg">
<path d="M4.21984 4.21984C4.49445 3.94524 4.92917 3.92778 5.22375 4.16809L5.28039 4.21984L12.0363 10.9747L18.2911 4.60363L18.3448 4.55187C18.6288 4.31919 19.058 4.35375 19.3361 4.64172C19.6139 4.92969 19.6429 5.36962 19.4142 5.6593L19.3654 5.71594L13.13 12.0685L19.882 18.8204L19.9327 18.878C20.173 19.1726 20.1565 19.6074 19.882 19.882C19.6074 20.1565 19.1726 20.173 18.878 19.9327L18.8204 19.882L12.0792 13.1398L5.50012 19.8448L5.44445 19.8946C5.16054 20.1271 4.73123 20.0937 4.45324 19.8058C4.17555 19.5178 4.14736 19.0768 4.37609 18.7872L4.42492 18.7306L10.9855 12.046L4.21984 5.28039L4.16809 5.22375C3.92778 4.92917 3.94524 4.49445 4.21984 4.21984Z" fill="#696969"/>
</svg>
