<svg width="100%" height="100%" viewBox="0 0 18 18" fill="none" xmlns="http://www.w3.org/2000/svg">
<path d="M10.939 3.17072L1.75276 12.3557C1.47963 12.6288 1.3019 12.9827 1.246 13.3648L0.75 16.75L4.13589 16.254C4.51812 16.1978 4.87202 16.0198 5.14492 15.7463L14.3294 6.56128M10.939 3.17072L12.9383 1.17046C13.0716 1.03716 13.2298 0.93142 13.4039 0.859276C13.578 0.787132 13.7647 0.75 13.9532 0.75C14.1416 0.75 14.3283 0.787132 14.5024 0.859276C14.6766 0.93142 14.8348 1.03716 14.968 1.17046L16.3296 2.53207C16.4629 2.66534 16.5686 2.82357 16.6407 2.99771C16.7129 3.17185 16.75 3.3585 16.75 3.547C16.75 3.73549 16.7129 3.92214 16.6407 4.09628C16.5686 4.27043 16.4629 4.42865 16.3296 4.56192L14.3294 6.56128M10.939 3.17072L14.3294 6.56128" stroke="black" stroke-width="1.5" stroke-linecap="round" stroke-linejoin="round"/>
</svg>
