<svg width="24" height="24" viewBox="0 0 24 24" fill="none" xmlns="http://www.w3.org/2000/svg">
<path d="M4 12C4 8.2288 4 6.3432 5.1712 5.1712C6.344 4 8.2288 4 12 4C15.7712 4 17.6568 4 18.828 5.1712C20 6.344 20 8.2288 20 12C20 15.7712 20 17.6568 18.828 18.828C17.6576 20 15.7712 20 12 20C8.2288 20 6.3432 20 5.1712 18.828C4 17.6576 4 15.7712 4 12Z" stroke="white" stroke-width="1.5"/>
<path d="M15.2016 10.4002C16.0852 10.4002 16.8016 9.68385 16.8016 8.8002C16.8016 7.91654 16.0852 7.2002 15.2016 7.2002C14.3179 7.2002 13.6016 7.91654 13.6016 8.8002C13.6016 9.68385 14.3179 10.4002 15.2016 10.4002Z" stroke="white" stroke-width="1.5"/>
<path d="M4 12.3999L5.4016 11.1735C5.75291 10.8664 6.2078 10.7042 6.67418 10.7198C7.14056 10.7354 7.58359 10.9276 7.9136 11.2575L11.3456 14.6895C11.6119 14.9558 11.9636 15.1196 12.3388 15.1521C12.714 15.1846 13.0887 15.0836 13.3968 14.8671L13.636 14.6991C14.0805 14.3869 14.6177 14.2348 15.1599 14.2675C15.702 14.3002 16.2171 14.5158 16.6208 14.8791L19.2 17.1999" stroke="white" stroke-width="1.5" stroke-linecap="round"/>
</svg>
