<svg width="25" height="24" viewBox="0 0 25 24" fill="none" xmlns="http://www.w3.org/2000/svg">
<g id="information">
<path id="Vector" d="M11.6 9.3H13.4V7.5H11.6M12.5 19.2C8.531 19.2 5.3 15.969 5.3 12C5.3 8.031 8.531 4.8 12.5 4.8C16.469 4.8 19.7 8.031 19.7 12C19.7 15.969 16.469 19.2 12.5 19.2ZM12.5 3C11.3181 3 10.1478 3.23279 9.05585 3.68508C7.96392 4.13738 6.97177 4.80031 6.13604 5.63604C4.44821 7.32387 3.5 9.61305 3.5 12C3.5 14.3869 4.44821 16.6761 6.13604 18.364C6.97177 19.1997 7.96392 19.8626 9.05585 20.3149C10.1478 20.7672 11.3181 21 12.5 21C14.8869 21 17.1761 20.0518 18.864 18.364C20.5518 16.6761 21.5 14.3869 21.5 12C21.5 10.8181 21.2672 9.64778 20.8149 8.55585C20.3626 7.46392 19.6997 6.47177 18.864 5.63604C18.0282 4.80031 17.0361 4.13738 15.9442 3.68508C14.8522 3.23279 13.6819 3 12.5 3ZM11.6 16.5H13.4V11.1H11.6V16.5Z" fill="#F67676"/>
</g>
</svg>
