<svg width="16" height="16" viewBox="0 0 16 16" fill="none" xmlns="http://www.w3.org/2000/svg">
<path d="M7.99932 5.86932C6.81995 5.86932 5.86913 6.82932 5.86913 7.99961C5.86913 9.1699 6.82909 10.1299 7.99932 10.1299C9.16956 10.1299 10.1295 9.1699 10.1295 7.99961C10.1295 6.82932 9.16956 5.86932 7.99932 5.86932ZM14.399 7.99961C14.399 7.11275 14.399 6.24418 14.3533 5.35732C14.3076 4.33332 14.0699 3.41904 13.3202 2.67847C12.5705 1.92875 11.6654 1.69104 10.6415 1.64532C9.75467 1.59961 8.88614 1.59961 7.99932 1.59961C7.11251 1.59961 6.24397 1.59961 5.35716 1.64532C4.3332 1.69104 3.41896 1.92875 2.67842 2.67847C1.92874 3.42818 1.69103 4.33332 1.64532 5.35732C1.59961 6.24418 1.59961 7.11275 1.59961 7.99961C1.59961 8.88647 1.59961 9.75504 1.64532 10.6419C1.69103 11.6659 1.92874 12.5802 2.67842 13.3208C3.4281 14.0705 4.3332 14.3082 5.35716 14.3539C6.24397 14.3996 7.11251 14.3996 7.99932 14.3996C8.88614 14.3996 9.75467 14.3996 10.6415 14.3539C11.6654 14.3082 12.5797 14.0705 13.3202 13.3208C14.0699 12.571 14.3076 11.6659 14.3533 10.6419C14.4082 9.76418 14.399 8.88647 14.399 7.99961ZM7.99932 11.2819C6.17998 11.2819 4.71718 9.81904 4.71718 7.99961C4.71718 6.18018 6.17998 4.71732 7.99932 4.71732C9.81867 4.71732 11.2815 6.18018 11.2815 7.99961C11.2815 9.81904 9.81867 11.2819 7.99932 11.2819ZM11.4186 5.34818C10.998 5.34818 10.6506 5.0099 10.6506 4.58018C10.6506 4.15047 10.9889 3.81218 11.4186 3.81218C11.8483 3.81218 12.1866 4.15047 12.1866 4.58018C12.1889 4.68033 12.1706 4.77988 12.1329 4.87267C12.0951 4.96547 12.0387 5.04951 11.9671 5.11961C11.8971 5.19117 11.813 5.24758 11.7202 5.28532C11.6274 5.32307 11.5279 5.34135 11.4277 5.33904L11.4186 5.34818Z" fill="black"/>
</svg>
