<svg width="14" height="19" viewBox="0 0 14 19" fill="none" xmlns="http://www.w3.org/2000/svg">
<path d="M7 9.075C6.43168 9.075 5.88663 8.85112 5.48477 8.4526C5.08291 8.05409 4.85714 7.51359 4.85714 6.95C4.85714 6.38642 5.08291 5.84591 5.48477 5.4474C5.88663 5.04888 6.43168 4.825 7 4.825C7.56832 4.825 8.11337 5.04888 8.51523 5.4474C8.91709 5.84591 9.14286 6.38642 9.14286 6.95C9.14286 7.22906 9.08743 7.50539 8.97974 7.7632C8.87205 8.02102 8.71421 8.25528 8.51523 8.4526C8.31625 8.64993 8.08002 8.80645 7.82004 8.91324C7.56005 9.02004 7.2814 9.075 7 9.075ZM7 1C5.4087 1 3.88258 1.62687 2.75736 2.74271C1.63214 3.85856 1 5.37196 1 6.95C1 11.4125 7 18 7 18C7 18 13 11.4125 13 6.95C13 5.37196 12.3679 3.85856 11.2426 2.74271C10.1174 1.62687 8.5913 1 7 1Z" stroke="#F67676" stroke-width="1.5" stroke-linejoin="round"/>
</svg>
