<svg width="148" height="148" viewBox="0 0 148 148" fill="none" xmlns="http://www.w3.org/2000/svg">
<path d="M52.5533 93.2109C45.9851 91.1134 42.9845 82.1295 45.8548 73.1427C48.7221 64.1558 56.3723 58.5697 62.9405 60.6671C68.7024 62.5069 71.7183 69.6479 70.4331 77.4406C75.2039 60.4337 69.9663 43.7875 57.509 38.6773C43.7089 33.0154 26.2776 43.6511 18.5729 62.4311C10.8681 81.2112 15.8116 101.022 29.6087 106.684C42.5844 112.006 58.7668 102.922 67.0596 86.2093C63.4012 91.8378 57.6514 94.8415 52.5533 93.2139V93.2109Z" fill="white"/>
<path d="M37.4261 108.354C34.6952 108.354 32.0431 107.848 29.5516 106.826C15.697 101.143 10.7079 81.2021 18.4339 62.3766C22.1711 53.2655 28.2968 45.7668 35.6772 41.2627C43.0729 36.7496 50.8473 35.7827 57.5671 38.5409C63.5927 41.0142 68.2149 46.3457 70.5761 53.5564C72.9099 60.6762 72.9099 69.1751 70.5791 77.4891C70.5579 77.5679 70.4791 77.6134 70.4003 77.5952C70.3215 77.577 70.2699 77.5013 70.2851 77.4225C71.5763 69.5783 68.4695 62.5949 62.8955 60.8157C59.7645 59.8154 56.288 60.5489 53.0994 62.8767C49.8986 65.2136 47.3769 68.8781 45.9978 73.1942C44.6217 77.5104 44.552 81.9568 45.8098 85.7183C47.0586 89.4616 49.4713 92.0743 52.5993 93.0715C57.464 94.6233 63.2229 91.8348 66.9328 86.1305C66.9752 86.0638 67.0662 86.0426 67.1359 86.082C67.2056 86.1214 67.2329 86.2093 67.1965 86.282C63.1532 94.4293 57.1063 101.025 50.1654 104.85C45.9371 107.181 41.5907 108.36 37.4261 108.36V108.354ZM49.6713 37.3012C45.1491 37.3012 40.4207 38.7228 35.8349 41.5173C28.509 45.9881 22.4288 53.4352 18.7158 62.4857C11.0565 81.1566 15.9697 100.919 29.6698 106.541C35.8743 109.087 43.1001 108.387 50.0199 104.574C56.3759 101.07 61.9802 95.2235 65.9629 87.9794C62.2045 92.6411 56.9942 94.784 52.5083 93.3533C49.2834 92.3258 46.804 89.6434 45.5219 85.8062C44.2459 81.9871 44.3125 77.471 45.7098 73.0942C47.1071 68.7174 49.6683 64.9984 52.9205 62.6252C56.188 60.2398 59.7645 59.4911 62.9865 60.5217C68.1725 62.1766 71.2853 68.1931 70.8367 75.2614C72.5886 67.699 72.4038 60.1003 70.2881 53.6443C67.9543 46.5215 63.3926 41.2536 57.4519 38.8167C54.9816 37.8013 52.3628 37.3012 49.6713 37.3012Z" fill="white"/>
<path d="M113.452 93.2109C106.884 91.1134 103.884 82.1295 106.754 73.1427C109.624 64.1558 117.271 58.5697 123.84 60.6671C129.601 62.5069 132.617 69.6479 131.332 77.4406C136.103 60.4337 130.865 43.7875 118.408 38.6773C104.608 33.0154 87.1767 43.6511 79.4719 62.4311C71.7672 81.2112 76.7077 101.022 90.5078 106.684C103.483 112.006 119.666 102.922 127.959 86.2093C124.3 91.8378 118.55 94.8415 113.452 93.2139V93.2109Z" fill="white"/>
<path d="M98.3333 108.354C95.6024 108.354 92.9503 107.848 90.4588 106.826C76.6042 101.143 71.6151 81.2021 79.3381 62.3766C83.0753 53.2655 89.2009 45.7668 96.5814 41.2627C103.977 36.7496 111.752 35.7827 118.471 38.5409C124.497 41.0142 129.119 46.3457 131.48 53.5564C133.814 60.6762 133.817 69.1751 131.483 77.4891C131.462 77.5649 131.383 77.6134 131.304 77.5952C131.226 77.577 131.174 77.5013 131.189 77.4225C132.48 69.5783 129.374 62.5948 123.8 60.8187C117.322 58.7516 109.742 64.3043 106.905 73.1973C104.068 82.0902 107.029 91.0074 113.506 93.0745C118.368 94.6264 124.13 91.8378 127.84 86.1335C127.882 86.0668 127.973 86.0456 128.043 86.085C128.113 86.1244 128.14 86.2123 128.104 86.2851C124.06 94.4324 118.014 101.028 111.073 104.853C106.844 107.184 102.498 108.363 98.3333 108.363V108.354ZM110.575 37.3012C106.053 37.3012 101.325 38.7228 96.739 41.5173C89.4131 45.9881 83.333 53.4352 79.62 62.4857C71.9607 81.1566 76.8739 100.919 90.574 106.541C96.7784 109.087 104.004 108.387 110.924 104.574C117.28 101.07 122.887 95.2235 126.867 87.9794C123.109 92.6411 117.898 94.784 113.413 93.3533C106.775 91.2347 103.725 82.1478 106.614 73.0972C109.503 64.0467 117.253 58.406 123.891 60.5217C129.077 62.1766 132.189 68.1931 131.741 75.2583C133.493 67.696 133.308 60.0973 131.192 53.6413C128.858 46.5185 124.297 41.2506 118.356 38.8137C115.883 37.7983 113.267 37.2982 110.575 37.2982V37.3012Z" fill="white"/>
</svg>
