<svg width="25" height="24" viewBox="0 0 25 24" fill="none" xmlns="http://www.w3.org/2000/svg">
<g id="lineicons:camera-movie-1">
<path id="Vector" d="M15.74 7.82517C16.1919 7.11027 16.3338 6.2498 16.1343 5.43305C15.9349 4.61629 15.4105 3.91016 14.6765 3.46998C13.9425 3.02981 13.0591 2.89166 12.2205 3.08591C11.3819 3.28017 10.6569 3.79093 10.205 4.50582C9.71277 4.12656 9.10215 3.9227 8.47455 3.9281C7.84695 3.9335 7.24013 4.14784 6.75485 4.53551C6.26958 4.92319 5.93506 5.46087 5.80684 6.05928C5.67863 6.65769 5.76443 7.28081 6.05 7.82517H5.249C4.65244 7.82542 4.0804 8.05643 3.65866 8.46738C3.23692 8.87833 3 9.43559 3 10.0166V17.8085C3 18.3897 3.23705 18.9472 3.65901 19.3581C4.08097 19.7691 4.65326 20 5.25 20H16.75C17.3467 20 17.919 19.7691 18.341 19.3581C18.7629 18.9472 19 18.3897 19 17.8085V17.4891L21.066 18.8039C21.2546 18.924 21.4729 18.9922 21.698 19.0013C21.9231 19.0105 22.1465 18.9602 22.3447 18.8558C22.5428 18.7514 22.7083 18.5968 22.8237 18.4084C22.939 18.2199 23 18.0046 23 17.7852V10.04C23 9.8206 22.939 9.60527 22.8237 9.41681C22.7083 9.22835 22.5428 9.07375 22.3447 8.96937C22.1465 8.86499 21.9231 8.8147 21.698 8.82383C21.4729 8.83296 21.2546 8.90116 21.066 9.02122L19 10.3361V10.0166C19 9.43542 18.7629 8.87801 18.341 8.46703C17.919 8.05605 17.3467 7.82517 16.75 7.82517H15.74ZM11.25 6.12069C11.25 5.66863 11.4344 5.23509 11.7626 4.91544C12.0908 4.59579 12.5359 4.41621 13 4.41621C13.4641 4.41621 13.9092 4.59579 14.2374 4.91544C14.5656 5.23509 14.75 5.66863 14.75 6.12069C14.75 6.57275 14.5656 7.00629 14.2374 7.32594C13.9092 7.64559 13.4641 7.82517 13 7.82517C12.5359 7.82517 12.0908 7.64559 11.7626 7.32594C11.4344 7.00629 11.25 6.57275 11.25 6.12069ZM19 12.0815L21.5 10.489V17.3342L19 15.7437V12.0815ZM9.75 6.60768C9.75 6.93058 9.6183 7.24025 9.38388 7.46857C9.14946 7.6969 8.83152 7.82517 8.5 7.82517C8.16848 7.82517 7.85054 7.6969 7.61612 7.46857C7.3817 7.24025 7.25 6.93058 7.25 6.60768C7.25 6.28479 7.3817 5.97511 7.61612 5.74679C7.85054 5.51847 8.16848 5.3902 8.5 5.3902C8.83152 5.3902 9.14946 5.51847 9.38388 5.74679C9.6183 5.97511 9.75 6.28479 9.75 6.60768ZM5.25 9.28615H16.75C16.9489 9.28615 17.1397 9.36311 17.2803 9.5001C17.421 9.6371 17.5 9.8229 17.5 10.0166V17.8085C17.5 18.0023 17.421 18.1881 17.2803 18.3251C17.1397 18.4621 16.9489 18.539 16.75 18.539H5.25C5.05109 18.539 4.86032 18.4621 4.71967 18.3251C4.57902 18.1881 4.5 18.0023 4.5 17.8085V10.0166C4.5 9.8229 4.57902 9.6371 4.71967 9.5001C4.86032 9.36311 5.05109 9.28615 5.25 9.28615Z" fill="#F67676"/>
</g>
</svg>
