<svg width="40" height="40" viewBox="0 0 40 40" fill="none" xmlns="http://www.w3.org/2000/svg">
<path fill-rule="evenodd" clip-rule="evenodd" d="M26.4 12.4451C26.4006 13.597 26.0945 14.728 25.5136 15.7204C26.6503 15.8924 27.6879 16.4695 28.4378 17.3467C29.1878 18.2239 29.6001 19.343 29.6 20.5004V20.8387L32.3408 19.1374C32.7043 18.9118 33.121 18.788 33.5479 18.7787C33.9748 18.7693 34.3965 18.8749 34.7694 19.0843C35.1422 19.2938 35.4529 19.5997 35.6692 19.9704C35.8855 20.3411 35.9997 20.7632 36 21.1932V29.4708C36 29.9009 35.886 30.3232 35.6698 30.6941C35.4536 31.0651 35.143 31.3712 34.7701 31.5808C34.3971 31.7905 33.9754 31.8962 33.5483 31.8869C33.1213 31.8777 32.7044 31.7538 32.3408 31.5282L29.6 29.8285V30.1668C29.6 31.4486 29.0943 32.678 28.1941 33.5844C27.2939 34.4908 26.073 35 24.8 35H8.8C7.52696 35 6.30606 34.4908 5.40589 33.5844C4.50571 32.678 4 31.4486 4 30.1668V20.5004C3.99987 19.6377 4.22904 18.7908 4.66373 18.0474C5.09842 17.304 5.72278 16.6913 6.472 16.273C5.76136 15.1466 5.47045 13.803 5.651 12.4811C5.83154 11.1591 6.47185 9.94444 7.45805 9.05307C8.44426 8.16171 9.71245 7.6514 11.0371 7.61288C12.3618 7.57436 13.6572 8.01013 14.6928 8.84271C15.459 7.69802 16.5699 6.8313 17.8621 6.37018C19.1543 5.90906 20.5593 5.87792 21.8704 6.28134C23.1815 6.68476 24.3292 7.50142 25.1447 8.61105C25.9601 9.72069 26.4002 11.0647 26.4 12.4451ZM20 9.22292C19.1513 9.22292 18.3374 9.5624 17.7373 10.1667C17.1371 10.7709 16.8 11.5905 16.8 12.4451C16.8 13.2996 17.1371 14.1192 17.7373 14.7234C18.3374 15.3277 19.1513 15.6672 20 15.6672C20.8487 15.6672 21.6626 15.3277 22.2627 14.7234C22.8629 14.1192 23.2 13.2996 23.2 12.4451C23.2 11.5905 22.8629 10.7709 22.2627 10.1667C21.6626 9.5624 20.8487 9.22292 20 9.22292ZM11.2 15.6672C11.8365 15.6672 12.447 15.4126 12.8971 14.9594C13.3471 14.5062 13.6 13.8915 13.6 13.2506C13.6 12.6097 13.3471 11.995 12.8971 11.5418C12.447 11.0886 11.8365 10.834 11.2 10.834C10.5635 10.834 9.95303 11.0886 9.50294 11.5418C9.05286 11.995 8.8 12.6097 8.8 13.2506C8.8 13.8915 9.05286 14.5062 9.50294 14.9594C9.95303 15.4126 10.5635 15.6672 11.2 15.6672Z" fill="#F67676"/>
</svg>
