<svg width="211" height="212" viewBox="0 0 211 212" fill="none" xmlns="http://www.w3.org/2000/svg">
<ellipse cx="39.3581" cy="53.0265" rx="39.3581" ry="53.0265" transform="matrix(0.930316 0.366759 -0.366756 0.930317 38.8945 0)" fill="#F67676"/>
<ellipse cx="39.3581" cy="53.0265" rx="39.3581" ry="53.0265" transform="matrix(0.930316 0.366759 -0.366756 0.930317 126.77 0)" fill="#F67676"/>
<ellipse cx="17.9803" cy="24.3118" rx="17.9803" ry="24.3118" transform="matrix(0.962933 0.269742 -0.26974 0.962933 65.5234 42.8818)" fill="white"/>
<ellipse cx="17.9803" cy="24.3118" rx="17.9803" ry="24.3118" transform="matrix(0.962933 0.269742 -0.26974 0.962933 154.461 42.8818)" fill="white"/>
<path d="M47.8561 171.768V174.616H53.8721V176.488H39.7921V174.616H45.8081V171.768H45.5841C42.9121 171.768 41.1521 169.896 41.1521 167.512C41.1521 165.144 42.9121 163.272 45.5841 163.272H48.0961C50.7521 163.272 52.5281 165.144 52.5281 167.512C52.5281 169.896 50.7521 171.768 48.0961 171.768H47.8561ZM43.2001 167.528C43.2001 168.984 44.2721 169.944 45.9521 169.944H47.7121C49.3921 169.944 50.4801 168.968 50.4801 167.528C50.4801 166.088 49.3921 165.128 47.7121 165.128H45.9521C44.2721 165.128 43.2001 166.088 43.2001 167.528ZM56.132 166.136H64.884V164.92H56.052V163.208H66.932V167.784H58.164V169.016H67.252V170.696H56.132V166.136ZM54.484 172.056H68.564V173.832H65.204V177.704H63.156V173.832H59.908V177.704H57.86V173.832H54.484V172.056ZM81.3039 167.992H83.4639V169.848H81.3039V177.528H79.2559V162.584H81.3039V167.992ZM74.8559 165.56H69.7039V163.688H76.9199V165.16C76.9199 169.416 74.6319 173.064 70.5359 175.832L69.2719 174.232C73.1119 171.72 74.8559 168.392 74.8559 165.56ZM99.4845 162.584V165.192H101.645V167.048H99.4845V169.944H97.4365V162.584H99.4845ZM93.1005 163.064H95.0525V169.544H87.5485V163.064H89.5165V164.648H93.1005V163.064ZM89.5165 166.376V167.816H93.1005V166.376H89.5165ZM99.4845 174.936H91.6925V175.912H99.9325V177.608H89.6445V173.304H97.4365V172.408H89.5645V170.76H99.4845V174.936ZM113.344 167.32H111.872V170.568H110V162.744H111.872V165.528H113.344V162.6H115.28V170.728H113.344V167.32ZM109.584 169L108.4 170.456L105.68 168.12C105.072 169.096 104.224 169.976 103.104 170.776L101.92 169.272C104.032 167.704 104.816 165.864 104.816 164.008V163.032H106.784V164.008C106.784 164.84 106.688 165.608 106.48 166.328L109.584 169ZM108.32 171.384H111.808C113.984 171.384 115.456 172.648 115.456 174.536C115.456 176.44 113.984 177.688 111.808 177.688H108.32C106.144 177.688 104.672 176.44 104.672 174.536C104.672 172.648 106.144 171.384 108.32 171.384ZM108.608 175.864H111.52C112.784 175.864 113.408 175.32 113.408 174.52C113.408 173.736 112.784 173.192 111.52 173.192H108.608C107.344 173.192 106.72 173.736 106.72 174.52C106.72 175.32 107.344 175.864 108.608 175.864ZM121.364 163.72H123.908V165.368H116.74V163.72H119.3V162.424H121.364V163.72ZM128.052 167.784H126.596V171.24H124.708V162.744H126.596V165.992H128.052V162.584H129.988V171.24H128.052V167.784ZM123.412 168.456V168.632C123.412 170.328 122.116 171.144 120.356 171.144C118.564 171.144 117.252 170.328 117.252 168.632V168.456C117.252 166.776 118.564 165.944 120.356 165.944C122.116 165.944 123.412 166.776 123.412 168.456ZM119.06 168.504V168.584C119.06 169.16 119.572 169.512 120.356 169.512C121.108 169.512 121.604 169.16 121.604 168.584V168.504C121.604 167.944 121.108 167.576 120.356 167.576C119.572 167.576 119.06 167.944 119.06 168.504ZM128.052 174.024L131.172 176.12L130.116 177.688L127.188 175.624C126.564 176.408 125.668 177.128 124.484 177.688L121.668 175.592C120.996 176.392 120.052 177.112 118.868 177.688L117.908 176.072C119.924 175.016 120.852 173.848 120.852 172.6V171.976H122.836V172.6C122.836 173.08 122.74 173.56 122.58 174.024L124.564 175.432C125.812 174.552 126.292 173.608 126.292 172.6V171.976H128.276V172.6C128.276 173.08 128.196 173.56 128.052 174.024ZM142.344 168.136V162.584H144.392V177.528H142.344V170.008H140.072V170.568C140.072 174.216 138.232 175.624 136.008 175.624C133.768 175.624 131.928 174.216 131.928 170.568V168.28C131.928 164.632 133.768 163.224 136.008 163.224C138.2 163.224 140.024 164.6 140.072 168.136H142.344ZM138.024 170.568V168.28C138.024 165.88 137.112 165.08 136.008 165.08C134.904 165.08 133.976 165.88 133.976 168.28V170.568C133.976 172.968 134.904 173.768 136.008 173.768C137.112 173.768 138.024 172.968 138.024 170.568ZM154.444 171.448H151.9C149.244 171.448 147.5 169.688 147.5 167.352C147.5 165.048 149.244 163.272 151.9 163.272H154.444C157.084 163.272 158.86 165.048 158.86 167.352C158.86 169.688 157.084 171.448 154.444 171.448ZM154.06 165.112H152.284C150.588 165.112 149.532 166.008 149.532 167.368C149.532 168.744 150.588 169.656 152.284 169.656H154.06C155.74 169.656 156.812 168.744 156.812 167.368C156.812 166.008 155.74 165.112 154.06 165.112ZM156.812 172.28V174.616H160.204V176.488H146.124V174.616H149.532V172.28H151.516V174.616H154.828V172.28H156.812Z" fill="#F67676"/>
<path d="M39.9375 196.912V209.162H38.6934V202.887H37.1211V208.533H35.9043V197.158H37.1211V201.82H38.6934V196.912H39.9375ZM31.3242 198.361V204.896C32.459 204.89 33.6963 204.801 35.084 204.527L35.2207 205.662C33.5391 205.963 32.1309 206.045 30.8184 206.045H30.0254V198.361H31.3242ZM52.3007 202.887V203.939H41.1308V202.887H43.8105V201.232C42.8671 200.85 42.3339 200.234 42.3339 199.428C42.3339 197.979 44.0155 197.131 46.7089 197.131C49.3886 197.131 51.0839 197.979 51.0839 199.428C51.0839 200.234 50.5439 200.856 49.5937 201.232V202.887H52.3007ZM46.7089 204.773C49.3476 204.773 50.9335 205.553 50.9335 206.947C50.9335 208.369 49.3476 209.135 46.7089 209.135C44.0429 209.135 42.457 208.369 42.457 206.947C42.457 205.553 44.0429 204.773 46.7089 204.773ZM46.7089 205.771C44.8359 205.771 43.7695 206.195 43.7695 206.947C43.7695 207.713 44.8359 208.15 46.7089 208.137C48.5546 208.15 49.6347 207.713 49.6347 206.947C49.6347 206.195 48.5546 205.771 46.7089 205.771ZM46.7089 198.129C44.8085 198.129 43.6601 198.607 43.6737 199.428C43.6601 200.248 44.8085 200.713 46.7089 200.713C48.6093 200.713 49.7441 200.248 49.7441 199.428C49.7441 198.607 48.6093 198.129 46.7089 198.129ZM45.123 202.887H48.3085V201.574C47.83 201.656 47.29 201.697 46.7089 201.697C46.1347 201.697 45.6015 201.656 45.123 201.588V202.887ZM58.3885 197.117C61.1502 197.117 62.7635 197.855 62.7635 199.223C62.7635 200.59 61.1502 201.342 58.3885 201.342C55.6268 201.342 54.0135 200.59 54.0135 199.223C54.0135 197.855 55.6268 197.117 58.3885 197.117ZM58.3885 198.074C56.4334 198.074 55.3534 198.498 55.367 199.223C55.3534 199.975 56.4334 200.371 58.3885 200.371C60.3436 200.371 61.4237 199.975 61.4237 199.223C61.4237 198.498 60.3436 198.074 58.3885 198.074ZM63.9803 202.094V203.133H52.8104V202.094H63.9803ZM62.5721 204.076V206.947H55.4354V208.041H62.9139V209.039H54.1639V206.004H61.287V205.047H54.1502V204.076H62.5721ZM70.236 197.104V198.17H75.9098V197.104H77.2087V201.164H68.9509V197.104H70.236ZM70.236 200.18H75.9098V199.127H70.236V200.18ZM78.6579 202.053V203.105H73.7087V204.158H77.2497V207.016H70.113V208.041H77.5915V209.039H68.8415V206.086H75.9645V205.129H68.8278V204.158H72.4098V203.105H67.488V202.053H78.6579ZM89.3668 196.912V209.189H88.0816V202.6H85.8395V201.52H88.0816V196.912H89.3668ZM85.1148 198.02V202.395H80.9176V205.184C82.8727 205.177 84.3766 205.108 86.0855 204.801L86.1949 205.867C84.3629 206.195 82.7496 206.264 80.5895 206.277H79.6188V201.342H83.857V199.072H79.5914V198.02H85.1148ZM96.4253 197.049C99.187 197.049 100.8 197.801 100.8 199.154C100.8 200.419 99.4263 201.157 97.0405 201.26V202.121H102.017V203.16H90.8472V202.121H95.7691V201.26C93.4107 201.144 92.0503 200.412 92.0503 199.154C92.0503 197.801 93.6636 197.049 96.4253 197.049ZM96.4253 198.02C94.4702 198.033 93.3902 198.43 93.4038 199.154C93.3902 199.92 94.4702 200.303 96.4253 200.303C98.3804 200.303 99.4605 199.92 99.4605 199.154C99.4605 198.43 98.3804 198.033 96.4253 198.02ZM100.609 204.076V206.947H93.4722V208.041H100.951V209.039H92.2007V206.018H99.3237V205.061H92.187V204.076H100.609ZM111.8 197.992C111.786 199.619 113.783 201.15 116.189 201.465L115.683 202.531C113.68 202.21 111.916 201.171 111.13 199.729C110.324 201.178 108.567 202.21 106.577 202.531L106.058 201.465C108.464 201.15 110.433 199.633 110.447 197.992V197.322H111.8V197.992ZM116.695 203.734V204.801H111.718V209.162H110.447V204.801H105.525V203.734H116.695ZM122.814 204.09V205.512H124.728V204.09H125.931V209.012H121.597V204.09H122.814ZM122.814 208H124.728V206.496H122.814V208ZM129.486 205.006C129.486 206.291 130.196 207.59 131.714 208.123L131.044 209.107C129.937 208.684 129.219 207.884 128.843 206.906C128.433 207.863 127.708 208.67 126.655 209.107L125.999 208.123C127.476 207.521 128.2 206.223 128.2 205.006V204.008H129.486V205.006ZM123.593 197.432C125.206 197.432 126.45 198.348 126.724 199.715H129.116V196.912H130.415V203.406H129.116V200.781H126.738C126.471 202.189 125.22 203.105 123.593 203.105C121.72 203.105 120.38 201.957 120.38 200.262C120.38 198.594 121.72 197.432 123.593 197.432ZM123.593 198.512C122.431 198.512 121.624 199.223 121.624 200.262C121.624 201.314 122.431 202.039 123.593 202.053C124.728 202.039 125.534 201.314 125.534 200.262C125.534 199.223 124.728 198.512 123.593 198.512ZM134.548 204.254V205.553H140.304V204.254H141.603V209.012H133.263V204.254H134.548ZM134.548 207.973H140.304V206.564H134.548V207.973ZM143.052 202.408V203.488H131.882V202.408H143.052ZM138.13 197.568C138.13 198.977 140.085 200.344 142.437 200.631L141.972 201.656C139.983 201.376 138.253 200.439 137.474 199.141C136.674 200.446 134.938 201.376 132.976 201.656L132.484 200.631C134.862 200.33 136.804 199.018 136.804 197.568V197.049H138.13V197.568ZM153.733 196.912V209.162H152.435V196.912H153.733ZM145.599 198.102V204.924C147.383 204.91 149.263 204.767 151.231 204.363L151.409 205.457C149.235 205.895 147.267 206.045 145.339 206.045H144.314V198.102H145.599ZM164.784 196.912V201.656H166.753V202.723H164.784V209.189H163.485V196.912H164.784ZM161.489 198.088V199.141H157.06V205.061C159.117 205.054 160.662 204.965 162.405 204.65L162.569 205.744C160.655 206.086 159.028 206.154 156.745 206.141H155.761V198.088H161.489ZM168.315 208.096C167.782 208.096 167.331 207.658 167.345 207.125C167.331 206.592 167.782 206.154 168.315 206.154C168.835 206.154 169.286 206.592 169.286 207.125C169.286 207.658 168.835 208.096 168.315 208.096Z" fill="#929292"/>
<path d="M208.415 41.3H202.515L201.865 12.1H209.065L208.415 41.3ZM205.465 54.9C203.215 54.9 201.415 53.1 201.415 50.85C201.415 48.6 203.215 46.75 205.465 46.75C207.715 46.75 209.515 48.6 209.515 50.85C209.515 53.1 207.715 54.9 205.465 54.9Z" fill="#F67676"/>
</svg>
