<svg width="40" height="40" viewBox="0 0 40 40" fill="none" xmlns="http://www.w3.org/2000/svg">
<path d="M19.106 29.702H29.8192C30.2364 29.7261 30.6526 29.6397 31.0282 29.4509C31.4037 29.2622 31.7261 28.9775 31.9646 28.6239C32.2031 28.2703 32.3498 27.8596 32.3906 27.431C32.4314 27.0025 32.365 26.5703 32.1978 26.1756C31.6314 24.4116 29.374 22.2958 29.374 20.214C29.374 15.5933 29.374 14.3773 27.1668 11.6599C26.4516 10.7851 25.5649 10.0762 24.5648 9.57979L23.3331 8.96369C23.1264 8.83512 22.9481 8.66339 22.8096 8.45956C22.6712 8.25572 22.5756 8.02429 22.5292 7.78013C22.4061 6.95716 21.9838 6.21326 21.3481 5.69931C20.7124 5.18535 19.9109 4.93983 19.106 5.01253C18.3157 4.96399 17.5363 5.2206 16.9197 5.73229C16.303 6.24399 15.8935 6.97407 15.7709 7.78013C15.7156 8.03256 15.6072 8.26941 15.4534 8.47392C15.2995 8.67844 15.1039 8.84563 14.8805 8.96369L13.6471 9.57979C12.6483 10.0766 11.7626 10.7855 11.0483 11.6599C8.84116 14.3773 8.84116 15.5933 8.84116 20.214C8.84116 22.2958 6.68594 24.1992 6.11961 26.0686C5.77823 27.1987 5.58945 29.702 8.44787 29.702H19.106Z" stroke="#F67676" stroke-width="2.5" stroke-linecap="round" stroke-linejoin="round"/>
<path d="M25.3419 29.7058C25.3591 30.4051 25.2112 31.1001 24.9069 31.7491C24.6025 32.3981 24.1481 32.9876 23.571 33.4821C22.9939 33.9766 22.3061 34.3659 21.5488 34.6265C20.7916 34.8872 19.9807 35.0138 19.1648 34.9987C18.3493 35.0136 17.5386 34.8868 16.7817 34.626C16.0248 34.3652 15.3373 33.9759 14.7605 33.4814C14.1838 32.9869 13.7298 32.3975 13.4258 31.7486C13.1218 31.0997 12.9741 30.4049 12.9916 29.7058" stroke="#F67676" stroke-width="2.5" stroke-linecap="round" stroke-linejoin="round"/>
</svg>
