<svg width="40" height="40" viewBox="0 0 40 40" fill="none" xmlns="http://www.w3.org/2000/svg">
<path d="M18.9401 28.9962H29.4628C29.8726 29.0196 30.2814 28.9356 30.6503 28.7523C31.0192 28.5689 31.3359 28.2923 31.5701 27.9488C31.8044 27.6054 31.9484 27.2064 31.9885 26.7901C32.0286 26.3738 31.9634 25.9539 31.7991 25.5706C31.2428 23.857 29.0255 21.8016 29.0255 19.7793C29.0255 15.2906 29.0255 14.1093 26.8576 11.4696C26.1551 10.6198 25.2841 9.93115 24.3019 9.44893L23.092 8.85043C22.889 8.72553 22.7139 8.55871 22.5779 8.3607C22.4419 8.16269 22.3481 7.93787 22.3024 7.70069C22.1815 6.90123 21.7668 6.17859 21.1424 5.67932C20.518 5.18006 19.7307 4.94155 18.9401 5.01217C18.1639 4.96502 17.3983 5.21429 16.7926 5.71137C16.187 6.20844 15.7847 6.91766 15.6643 7.70069C15.61 7.94591 15.5035 8.17599 15.3524 8.37466C15.2013 8.57333 15.0092 8.73575 14.7897 8.85043L13.5783 9.44893C12.5972 9.93153 11.7273 10.6202 11.0257 11.4696C8.85779 14.1093 8.85779 15.2906 8.85779 19.7793C8.85779 21.8016 6.74089 23.6506 6.18462 25.4666C5.84932 26.5644 5.6639 28.9962 8.47149 28.9962H18.9401Z" fill="#F67676" stroke="#F67676" stroke-width="2.5" stroke-linecap="round" stroke-linejoin="round"/>
<path d="M24.9987 32C25.0155 32.5283 24.8717 33.0535 24.5761 33.5438C24.2805 34.0342 23.8391 34.4795 23.2785 34.8532C22.7179 35.2268 22.0497 35.5209 21.3141 35.7179C20.5785 35.9148 19.7907 36.0105 18.9982 35.9991C18.2059 36.0103 17.4184 35.9145 16.6831 35.7175C15.9479 35.5205 15.28 35.2263 14.7197 34.8527C14.1595 34.479 13.7184 34.0337 13.4231 33.5434C13.1278 33.0532 12.9843 32.5282 13.0014 32" fill="#F67676"/>
</svg>
