<svg width="40" height="40" viewBox="0 0 40 40" fill="none" xmlns="http://www.w3.org/2000/svg">
<rect x="7.9873" y="8" width="24.6944" height="25" rx="3" fill="#F67676"/>
<path d="M7 27.5L12.1311 21.2665C13.3182 19.8243 15.5204 19.806 16.7314 21.2281L26.7556 33" stroke="white" stroke-width="3" stroke-linecap="round"/>
<path d="M22.8047 26.5862L24.4964 24.267C25.6826 22.6406 28.1024 22.621 29.3149 24.2279L33.6702 30" stroke="white" stroke-width="3" stroke-linecap="round"/>
<path d="M33.3407 27.3922C33.3407 28.0227 33.2478 28.6329 33.0773 29.2071C32.7015 30.4672 31.9437 31.5741 30.9112 32.3742C29.8787 33.1742 28.6239 33.6253 27.3242 33.6635L27.1429 33.6667H13.1978C11.5727 33.6669 10.0125 33.0209 8.85321 31.8679C7.69396 30.7148 7.02844 29.147 7 27.502V13.2745C7 11.6104 7.65298 10.0145 8.8153 8.83776C9.97762 7.66106 11.5541 7 13.1978 7H27.1429C28.7867 7 30.3631 7.66106 31.5254 8.83776C32.6878 10.0145 33.3407 11.6104 33.3407 13.2745V27.3922Z" stroke="#F67676" stroke-width="2.5" stroke-linecap="round" stroke-linejoin="round"/>
<path d="M24.958 17.8377C26.2416 17.8377 27.2822 16.7843 27.2822 15.4848C27.2822 14.1853 26.2416 13.1318 24.958 13.1318C23.6744 13.1318 22.6338 14.1853 22.6338 15.4848C22.6338 16.7843 23.6744 17.8377 24.958 17.8377Z" fill="white"/>
</svg>
