<svg width="24" height="24" viewBox="0 0 24 24" fill="none" xmlns="http://www.w3.org/2000/svg">
<g id="Photo">
<g id="Group">
<path id="Vector" d="M19.84 16.8242C19.9435 16.4798 20 16.1136 20 15.7353V7.26471C20 6.26624 19.6034 5.30868 18.8973 4.60266C18.1913 3.89664 17.2338 3.5 16.2353 3.5H7.76471C6.76624 3.5 5.80868 3.89664 5.10266 4.60266C4.39664 5.30868 4 6.26624 4 7.26471V15.8012C4.01728 16.7882 4.42153 17.7289 5.12568 18.4207C5.82984 19.1126 6.77755 19.5002 7.76471 19.5H16.2353L16.3454 19.4981M19.84 16.8242L19.7572 16.7264L17.4362 13.9254C17.2601 13.7129 17.0395 13.5418 16.7899 13.4241C16.5403 13.3064 16.2678 13.245 15.9919 13.2443C15.7159 13.2436 15.4432 13.3035 15.193 13.4199C14.9428 13.5363 14.7212 13.7063 14.544 13.9179L13.3092 15.3918L13.1078 15.6374M19.84 16.8242C19.6117 17.5803 19.1514 18.2445 18.5242 18.7245C17.8971 19.2045 17.1349 19.4752 16.3454 19.4981M13.1078 15.6374L16.2579 19.3984L16.3454 19.4981M13.1078 15.6374L10.0706 12.0111C9.89391 11.8002 9.67316 11.6306 9.42389 11.5143C9.17461 11.3979 8.90286 11.3376 8.62776 11.3376C8.35267 11.3376 8.08092 11.3979 7.83164 11.5143C7.58237 11.6306 7.36162 11.8002 7.18494 12.0111L4.16753 15.6129L4.00094 15.8021" stroke="#F67676" stroke-width="1.5" stroke-linecap="round" stroke-linejoin="round"/>
<path id="Vector_2" d="M14.9079 10.0025C15.6876 10.0025 16.3196 9.37042 16.3196 8.59072C16.3196 7.81102 15.6876 7.17896 14.9079 7.17896C14.1282 7.17896 13.4961 7.81102 13.4961 8.59072C13.4961 9.37042 14.1282 10.0025 14.9079 10.0025Z" fill="#F67676"/>
</g>
</g>
</svg>
