<svg width="24" height="24" viewBox="0 0 24 24" fill="none" xmlns="http://www.w3.org/2000/svg">
<g id="plus">
<path id="Union" d="M3.6723 12.124C3.6723 11.8824 3.84357 11.6804 4.07142 11.6337L4.17224 11.6241L11.735 11.6241L11.6666 4.21948L11.6763 4.12142C11.7224 3.90192 11.9287 3.74004 12.1776 3.74439C12.4267 3.74879 12.6365 3.91862 12.6865 4.14007L12.6983 4.23743L12.7666 11.6241L20.078 11.6241L20.1788 11.6337C20.4067 11.6803 20.5779 11.8824 20.5779 12.124C20.5779 12.3657 20.4067 12.5677 20.1788 12.6143L20.078 12.624L12.7763 12.624L12.8405 19.4996L12.8315 19.597C12.7854 19.8163 12.579 19.9782 12.3302 19.974C12.081 19.9696 11.8712 19.7999 11.8213 19.5783L11.8102 19.4817L11.7446 12.624L4.17224 12.624L4.07142 12.6143C3.84356 12.5677 3.6723 12.3657 3.6723 12.124Z" fill="#929292"/>
</g>
</svg>
