<svg width="24" height="24" viewBox="0 0 24 24" fill="none" xmlns="http://www.w3.org/2000/svg">
<path d="M12 20C14.1217 20 16.1566 19.1571 17.6569 17.6569C19.1571 16.1566 20 14.1217 20 12C20 9.87827 19.1571 7.84344 17.6569 6.34315C16.1566 4.84285 14.1217 4 12 4C9.87827 4 7.84344 4.84285 6.34315 6.34315C4.84285 7.84344 4 9.87827 4 12C4 14.1217 4.84285 16.1566 6.34315 17.6569C7.84344 19.1571 9.87827 20 12 20Z" stroke="#F67676" stroke-width="1.5" stroke-linecap="round" stroke-linejoin="round"/>
<path d="M13.9156 9.7775C13.8126 9.452 13.6212 9.17016 13.3677 8.97104C13.1142 8.77193 12.8113 8.66541 12.5009 8.66625H11.3404C11.01 8.66565 10.691 8.80095 10.445 9.04611C10.1989 9.29126 10.0432 9.62894 10.0077 9.9941C9.97227 10.3593 10.0596 10.7261 10.2529 11.024C10.4462 11.3219 10.7318 11.5297 11.0548 11.6075L12.8214 12.0375C13.1826 12.1256 13.5018 12.3589 13.7177 12.6925C13.9336 13.0262 14.031 13.4368 13.9913 13.8454C13.9516 14.2541 13.7775 14.632 13.5024 14.9067C13.2273 15.1814 12.8707 15.3335 12.5009 15.3337H11.5023C11.1918 15.3345 10.8888 15.2278 10.6353 15.0284C10.3818 14.8291 10.1904 14.547 10.0877 14.2213M12.0016 8.66625V7M12.0016 17V15.3325" stroke="#F67676" stroke-width="1.5" stroke-linecap="round" stroke-linejoin="round"/>
</svg>
