<svg width="36" height="36" viewBox="0 0 36 36" fill="none" xmlns="http://www.w3.org/2000/svg">
<path d="M32.0003 33.0003L25.4858 26.4858M25.4858 26.4858C26.6001 25.3715 27.4841 24.0486 28.0871 22.5926C28.6902 21.1367 29.0006 19.5762 29.0006 18.0003C29.0006 16.4244 28.6902 14.8639 28.0872 13.408C27.4841 11.952 26.6001 10.6291 25.4858 9.51481C24.3715 8.40048 23.0486 7.51654 21.5926 6.91347C20.1367 6.3104 18.5762 6 17.0003 6C15.4244 6 13.8639 6.3104 12.408 6.91347C10.952 7.51654 9.62914 8.40048 8.51481 9.51481C6.26431 11.7653 5 14.8176 5 18.0003C5 21.183 6.26431 24.2353 8.51481 26.4858C10.7653 28.7363 13.8176 30.0006 17.0003 30.0006C20.183 30.0006 23.2353 28.7363 25.4858 26.4858Z" stroke="black" stroke-width="2" stroke-linecap="round" stroke-linejoin="round"/>
</svg>
