<svg width="24" height="25" viewBox="0 0 24 25" fill="none" xmlns="http://www.w3.org/2000/svg">
<rect y="0.5" width="24" height="24" fill="black"/>
<path d="M18 18.5L15.1047 15.6047M15.1047 15.6047C15.6 15.1094 15.9928 14.5215 16.2608 13.8744C16.5289 13.2273 16.6668 12.5338 16.6668 11.8334C16.6668 11.133 16.5289 10.4395 16.2608 9.7924C15.9928 9.14532 15.6 8.55737 15.1047 8.06212C14.6094 7.56687 14.0215 7.17401 13.3744 6.90598C12.7273 6.63795 12.0338 6.5 11.3334 6.5C10.633 6.5 9.93948 6.63795 9.2924 6.90598C8.64532 7.17401 8.05737 7.56687 7.56212 8.06212C6.56191 9.06233 6 10.4189 6 11.8334C6 13.2479 6.56191 14.6045 7.56212 15.6047C8.56233 16.6049 9.9189 17.1668 11.3334 17.1668C12.7479 17.1668 14.1045 16.6049 15.1047 15.6047Z" stroke="white" stroke-width="2" stroke-linecap="round" stroke-linejoin="round"/>
</svg>
