<svg xmlns="http://www.w3.org/2000/svg" width="173" height="173" viewBox="0 0 173 173" fill="none">
  <path d="M61.4366 108.957C53.759 106.505 50.2514 96.0037 53.6066 85.4988C56.9583 74.9938 65.9008 68.4641 73.5784 70.9159C80.3136 73.0665 83.8389 81.4137 82.3367 90.5227C87.9133 70.6431 81.791 51.185 67.2294 45.2115C51.0982 38.5932 30.7225 51.0256 21.7162 72.9779C12.71 94.9302 18.4886 118.087 34.6162 124.705C49.7837 130.927 68.6997 120.309 78.3933 100.773C74.1169 107.352 67.3959 110.863 61.4366 108.96V108.957Z" fill="#F67676"/>
  <path d="M43.7516 126.657C40.5593 126.657 37.4592 126.065 34.5469 124.871C18.3519 118.228 12.5202 94.9187 21.5512 72.9132C25.9197 62.263 33.0801 53.4977 41.7073 48.2328C50.3521 42.9573 59.4399 41.8271 67.2947 45.0512C74.3381 47.9423 79.7412 54.1744 82.5012 62.6031C85.2293 70.9256 85.2293 80.8601 82.5047 90.5785C82.4799 90.6706 82.3878 90.7238 82.2957 90.7025C82.2036 90.6813 82.1433 90.5927 82.161 90.5006C83.6703 81.3313 80.0388 73.1683 73.5233 71.0886C69.8633 69.9194 65.7995 70.7768 62.0723 73.4978C58.3309 76.2294 55.3832 80.5129 53.7711 85.5581C52.1626 90.6033 52.0811 95.8009 53.5514 100.198C55.0112 104.573 57.8314 107.627 61.4877 108.793C67.1742 110.607 73.9059 107.347 78.2425 100.68C78.2921 100.602 78.3984 100.577 78.4799 100.623C78.5614 100.669 78.5933 100.772 78.5507 100.857C73.8244 110.38 66.7562 118.09 58.6427 122.561C53.7003 125.286 48.6196 126.664 43.7516 126.664V126.657ZM58.0652 43.6021C52.7791 43.6021 47.252 45.2638 41.8915 48.5304C33.3281 53.7563 26.2209 62.4614 21.8807 73.0408C12.9276 94.8655 18.6708 117.966 34.6851 124.538C41.9375 127.514 50.384 126.696 58.4727 122.239C65.9023 118.143 72.4533 111.309 77.1087 102.841C72.7155 108.29 66.6251 110.795 61.3814 109.122C57.6117 107.921 54.7136 104.786 53.2149 100.3C51.7233 95.8363 51.8012 90.5573 53.4345 85.4412C55.0678 80.3251 58.0617 75.9779 61.8633 73.2037C65.6826 70.4154 69.8633 69.5403 73.6295 70.7449C79.6916 72.6794 83.3302 79.7122 82.8059 87.9744C84.8537 79.1347 84.6376 70.2524 82.1646 62.7059C79.4365 54.3799 74.1043 48.2222 67.16 45.3736C64.2725 44.1867 61.2114 43.6021 58.0652 43.6021Z" fill="#F67676"/>
  <path d="M132.621 108.957C124.943 106.505 121.436 96.0037 124.791 85.4988C128.146 74.9938 137.085 68.4641 144.763 70.9159C151.498 73.0665 155.023 81.4137 153.521 90.5227C159.098 70.6431 152.975 51.185 138.414 45.2115C122.283 38.5932 101.907 51.0256 92.9006 72.9779C83.8943 94.9302 89.6694 118.087 105.801 124.705C120.968 130.927 139.884 120.309 149.578 100.773C145.301 107.352 138.58 110.863 132.621 108.96V108.957Z" fill="#F67676"/>
  <path d="M114.953 126.657C111.761 126.657 108.661 126.065 105.748 124.871C89.5532 118.228 83.7215 94.9187 92.749 72.9132C97.1175 62.263 104.278 53.4977 112.905 48.2328C121.55 42.9573 130.638 41.8271 138.492 45.0512C145.536 47.9423 150.939 54.1744 153.699 62.6031C156.427 70.9256 156.431 80.8601 153.702 90.5785C153.678 90.6671 153.586 90.7238 153.493 90.7025C153.401 90.6813 153.341 90.5927 153.359 90.5006C154.868 81.3313 151.237 73.1683 144.721 71.0921C137.15 68.6758 128.289 75.1665 124.972 85.5616C121.656 95.9568 125.118 106.38 132.689 108.797C138.372 110.611 145.107 107.351 149.444 100.683C149.493 100.605 149.6 100.58 149.681 100.626C149.763 100.672 149.795 100.775 149.752 100.86C145.026 110.384 137.957 118.093 129.844 122.565C124.902 125.289 119.821 126.667 114.953 126.667V126.657ZM129.263 43.6021C123.977 43.6021 118.45 45.2638 113.089 48.5304C104.526 53.7563 97.4187 62.4614 93.0785 73.0408C84.1254 94.8655 89.8685 117.966 105.883 124.538C113.135 127.514 121.582 126.696 129.67 122.239C137.1 118.143 143.655 111.309 148.307 102.841C143.913 108.29 137.823 110.795 132.579 109.122C124.82 106.646 121.256 96.0241 124.632 85.4447C128.009 74.8654 137.068 68.2719 144.827 70.7449C150.889 72.6794 154.528 79.7122 154.004 87.9709C156.051 79.1311 155.835 70.2489 153.362 62.7023C150.634 54.3763 145.302 48.2186 138.358 45.3701C135.467 44.1832 132.409 43.5986 129.263 43.5986V43.6021Z" fill="#F67676"/>
</svg>