<svg width="120" height="120" viewBox="0 0 120 120" fill="none" xmlns="http://www.w3.org/2000/svg">
<rect width="120" height="120" fill="white"/>
<path d="M40.8734 59.8056C34.9369 57.9098 32.2248 49.7899 34.8191 41.6673C37.4106 33.5446 44.3251 28.4957 50.2617 30.3915C55.4695 32.0543 58.1953 38.5086 57.0337 45.5519C61.3457 30.1805 56.6118 15.1352 45.3525 10.5163C32.8795 5.39895 17.1246 15.0119 10.1608 31.9859C3.19694 48.9598 7.66507 66.8652 20.1353 71.9826C31.8631 76.7932 46.4894 68.5829 53.9846 53.4773C50.6781 58.5645 45.4812 61.2794 40.8734 59.8083V59.8056Z" fill="#F67676"/>
<path d="M27.203 73.4918C24.7347 73.4918 22.3377 73.0343 20.0858 72.1111C7.56352 66.9745 3.05429 48.9513 10.0373 31.9362C13.4151 23.7013 18.9516 16.9237 25.6223 12.8528C32.3067 8.77368 39.3336 7.89977 45.4071 10.3927C50.8532 12.6282 55.031 17.447 57.165 23.9642C59.2745 30.3993 59.2744 38.0809 57.1678 45.5954C57.1486 45.6666 57.0774 45.7077 57.0061 45.6913C56.9349 45.6748 56.8883 45.6063 56.902 45.5351C58.0691 38.4453 55.2611 32.1335 50.2231 30.5254C47.3932 29.6213 44.251 30.2843 41.369 32.3882C38.4761 34.5004 36.1968 37.8125 34.9504 41.7135C33.7066 45.6146 33.6436 49.6334 34.7805 53.0331C35.9092 56.4164 38.0898 58.7779 40.917 59.6792C45.3139 61.0818 50.519 58.5615 53.8721 53.4057C53.9105 53.3454 53.9927 53.3263 54.0557 53.3619C54.1187 53.3975 54.1433 53.4769 54.1105 53.5427C50.456 60.9065 44.9907 66.8677 38.7172 70.3249C34.8956 72.4316 30.9671 73.4973 27.203 73.4973V73.4918ZM38.2707 9.27226C34.1833 9.27226 29.9097 10.5571 25.7648 13.0829C19.1434 17.1237 13.648 23.8547 10.2921 32.0348C3.36933 48.9102 7.81007 66.7718 20.1926 71.8536C25.8004 74.1547 32.3314 73.5219 38.5857 70.0756C44.3304 66.9088 49.3958 61.6242 52.9955 55.0768C49.5985 59.2902 44.8893 61.227 40.8348 59.934C37.92 59.0053 35.6791 56.5808 34.5203 53.1126C33.3669 49.6608 33.4272 45.5789 34.6901 41.6231C35.953 37.6673 38.2679 34.3059 41.2074 32.1608C44.1606 30.0048 47.3932 29.3282 50.3053 30.2596C54.9926 31.7554 57.8061 37.1933 57.4006 43.5818C58.9841 36.7468 58.817 29.8788 56.9048 24.0437C54.7954 17.6058 50.6724 12.8446 45.303 10.642C43.0703 9.72428 40.7033 9.27226 38.2707 9.27226Z" fill="#F67676"/>
<path d="M95.9208 59.8056C89.9843 57.9098 87.2722 49.7899 89.8665 41.6673C92.4608 33.5446 99.3726 28.4957 105.309 30.3915C110.517 32.0543 113.243 38.5086 112.081 45.5519C116.393 30.1805 111.659 15.1352 100.4 10.5163C87.9269 5.39895 72.172 15.0119 65.2082 31.9859C58.2444 48.9598 62.7098 66.8652 75.1828 71.9826C86.9106 76.7932 101.537 68.5829 109.032 53.4773C105.726 58.5645 100.529 61.2794 95.9208 59.8083V59.8056Z" fill="#F67676"/>
<path d="M82.2547 73.4918C79.7864 73.4918 77.3893 73.0343 75.1374 72.1111C62.6152 66.9745 58.1059 48.9513 65.0862 31.9362C68.464 23.7012 74.0005 16.9237 80.6712 12.8528C87.3556 8.77368 94.3825 7.89977 100.456 10.3927C105.902 12.6282 110.08 17.447 112.214 23.9642C114.323 30.3993 114.326 38.0809 112.217 45.5954C112.197 45.6639 112.126 45.7077 112.055 45.6913C111.984 45.6748 111.937 45.6063 111.951 45.5351C113.118 38.4453 110.31 32.1334 105.272 30.5281C99.4177 28.6598 92.5662 33.6785 90.002 41.7162C87.4378 49.754 90.1143 57.8136 95.9687 59.6819C100.363 61.0846 105.571 58.5642 108.924 53.4085C108.962 53.3482 109.044 53.329 109.107 53.3646C109.17 53.4002 109.195 53.4797 109.162 53.5454C105.508 60.9092 100.042 66.8704 93.7688 70.3276C89.9472 72.4343 86.0188 73.5 82.2547 73.5V73.4918ZM93.3196 9.27226C89.2322 9.27226 84.9586 10.5571 80.8137 13.0829C74.1923 17.1237 68.6969 23.8547 65.341 32.0348C58.4182 48.9102 62.859 66.7718 75.2415 71.8536C80.8493 74.1547 87.3803 73.5219 93.6346 70.0756C99.3793 66.9087 104.447 61.6242 108.044 55.0768C104.647 59.2902 99.9382 61.227 95.8837 59.934C89.8842 58.019 87.1283 49.806 89.739 41.6258C92.3498 33.4457 99.3547 28.3475 105.354 30.2596C110.042 31.7554 112.855 37.1933 112.45 43.5791C114.033 36.744 113.866 29.8761 111.954 24.0409C109.844 17.6031 105.721 12.8418 100.352 10.6393C98.1164 9.72154 95.7522 9.26952 93.3196 9.26952V9.27226Z" fill="#F67676"/>
<path d="M20.0048 95.0391C18.9324 96.2534 17.006 96.9274 13.4965 96.9274C10.4787 96.9274 8.77057 96.2873 7.82538 95.3188C6.95224 94.4478 6.86112 93.545 6.78906 93.119L11.3158 93.0216C11.3518 93.2187 11.443 93.5302 11.8965 93.8269C12.3331 94.1215 12.9688 94.3355 14.1683 94.3355C14.6409 94.3355 15.2216 94.2868 15.6582 94.0897C16.0396 93.9095 16.3851 93.581 16.3851 93.1699C16.3851 92.9071 16.2579 92.5617 15.6582 92.3328C15.3488 92.2184 14.5858 92.087 13.6957 91.9386C12.6954 91.7585 11.6782 91.6101 10.6779 91.3643C9.58649 91.0846 8.58832 90.7412 7.93346 89.8363C7.46087 89.1793 7.42484 88.5224 7.42484 88.2278C7.42484 87.6047 7.62405 87.0283 7.98857 86.5197C8.82568 85.3053 10.6059 84.5 13.8971 84.5C15.0245 84.5 16.8238 84.6314 17.8961 84.9599C18.3496 85.0913 18.7693 85.2884 19.1507 85.5512C20.3693 86.3565 20.5494 87.3737 20.6406 87.8823L16.1498 88.1112C16.0947 87.9798 16.0587 87.8484 15.9867 87.734C15.6963 87.2911 15.0415 87.0283 13.878 87.0283C13.8059 87.0283 12.6954 87.0113 12.1508 87.4225C11.8965 87.6026 11.8605 87.8654 11.8605 87.9798C11.8605 88.1112 11.8965 88.3253 12.1508 88.5054C12.7866 88.9653 15.0584 89.245 17.3494 89.7197C18.8222 90.0313 19.5131 90.3767 20.0027 90.8535C20.329 91.1481 20.8567 91.7564 20.8567 92.8414C20.8567 93.6298 20.5473 94.4351 20.0027 95.0412L20.0048 95.0391Z" fill="#F67676"/>
<path d="M22.457 96.5819V84.9895H35.9991V87.5835H27.0558V89.4887H35.3273V92.0996H27.0558V93.9561H36.1623V96.584H22.457V96.5819Z" fill="#F67676"/>
<path d="M37.6016 96.5819V84.9895H51.1437V87.5835H42.2004V89.4887H50.4718V92.0996H42.2004V93.9561H51.3068V96.584H37.6016V96.5819Z" fill="#F67676"/>
<path d="M69.7876 96.5819L69.0967 94.6936H64.1885L63.4976 96.5819H58.4453L63.9893 84.9895H69.2239L74.787 96.5819H69.7876ZM66.6257 88.2087L65.1528 92.1335H68.1346L66.6257 88.2087Z" fill="#F67676"/>
<path d="M15.9307 104.749V113.748H11.3128V104.749H6.75V102.156H20.4744V104.749H15.9307Z" fill="#F67676"/>
<path d="M31.9292 113.748V109.297H26.3132V113.748H21.6953V102.156H26.3301V106.375H31.9292V102.156H36.5831V113.748H31.9292Z" fill="#F67676"/>
<path d="M38.7617 113.748V102.156H52.3038V104.749H43.3605V106.655H51.632V109.266H43.3605V111.122H52.467V113.75H38.7617V113.748Z" fill="#F67676"/>
<path d="M64.1392 113.748L63.4483 111.86H58.5401L57.8492 113.748H52.7969L58.3409 102.156H63.5754L69.1385 113.748H64.1392ZM60.9772 105.375L59.5043 109.3H62.4861L60.9772 105.375Z" fill="#F67676"/>
<path d="M76.8213 104.749V113.748H72.2034V104.749H67.6406V102.156H81.365V104.749H76.8213Z" fill="#F67676"/>
<path d="M82.6055 113.748V102.156H96.1476V104.749H87.2043V106.655H95.4736V109.266H87.2043V111.122H96.3108V113.75H82.6055V113.748Z" fill="#F67676"/>
<path d="M107.433 113.748L104.779 109.528H102.344V113.748H97.7266V102.156H107.178C108.906 102.156 110.559 102.27 111.595 103.749C111.83 104.095 112.25 104.783 112.25 105.835C112.25 106.377 112.123 107.92 110.506 108.725C110.196 108.888 109.961 108.971 109.306 109.119L112.506 113.75H107.435L107.433 113.748ZM107.469 105.258C107.159 104.847 106.651 104.781 106.159 104.781H102.342V106.915H105.797C106.67 106.915 107.123 106.818 107.414 106.504C107.651 106.241 107.668 105.979 107.668 105.847C107.668 105.75 107.649 105.485 107.469 105.256V105.258Z" fill="#F67676"/>
</svg>
