<svg width="282" height="282" viewBox="0 0 282 282" fill="none" xmlns="http://www.w3.org/2000/svg">
<path d="M27.3506 253.84C24.3746 253.84 21.8946 251.808 21.8946 248.288V245.952C21.8946 242.432 24.3586 240.4 27.3506 240.4C29.9906 240.4 31.8466 241.952 32.4706 244.48L30.9506 244.912C30.4386 242.944 29.2706 241.888 27.3506 241.888C25.2226 241.888 23.4946 243.312 23.4946 246.064V248.176C23.4946 250.944 25.2226 252.352 27.3506 252.352C29.2706 252.352 30.4386 251.296 30.9506 249.328L32.4706 249.76C31.8466 252.304 29.9906 253.84 27.3506 253.84ZM39.0581 253.84C36.0821 253.84 33.6021 251.808 33.6021 248.288V245.952C33.6021 242.432 36.0661 240.4 39.0581 240.4C41.6981 240.4 43.5541 241.952 44.1781 244.48L42.6581 244.912C42.1461 242.944 40.9781 241.888 39.0581 241.888C36.9301 241.888 35.2021 243.312 35.2021 246.064V248.176C35.2021 250.944 36.9301 252.352 39.0581 252.352C40.9781 252.352 42.1461 251.296 42.6581 249.328L44.1781 249.76C43.5541 252.304 41.6981 253.84 39.0581 253.84ZM57.7896 254.464H56.1896V239.616H57.7896V254.464ZM49.9336 248.496C47.7256 248.496 45.9336 247.232 45.9336 244.56V244.272C45.9336 241.584 47.7256 240.32 49.9336 240.32C52.1416 240.32 53.9176 241.584 53.9176 244.272V244.56C53.9176 247.232 52.1416 248.496 49.9336 248.496ZM49.9336 247.04C51.2776 247.04 52.3336 246.224 52.3336 244.544V244.272C52.3336 242.592 51.2776 241.776 49.9336 241.776C48.5736 241.776 47.5336 242.592 47.5336 244.272V244.544C47.5336 246.224 48.5736 247.04 49.9336 247.04ZM47.7576 252.16H45.2936L45.2136 250.704H47.9016C49.7256 250.704 52.6216 250.512 54.9416 250.24L55.1176 251.648C52.8456 251.984 49.9336 252.16 47.7576 252.16ZM75.0913 245.2H77.3953V246.656H75.0913V254.464H73.4913V239.616H75.0913V245.2ZM65.1713 250.592H66.4033C68.0353 250.592 70.1153 250.416 71.9713 250.128L72.1633 251.552C70.3873 251.84 68.1953 252.048 66.1153 252.048H63.5553V240.704H70.7713V242.176H65.1713V250.592ZM92.0872 241.216V242.592H89.7832V244.24H92.0872V245.616H89.7832V247.712H88.1832V239.616H89.7832V241.216H92.0872ZM85.7992 243.456V243.712C85.7992 246.064 84.0872 247.216 81.9272 247.216C79.7352 247.216 78.0072 246.064 78.0072 243.712V243.456C78.0072 241.088 79.7352 239.936 81.9272 239.936C84.0872 239.936 85.7992 241.088 85.7992 243.456ZM79.6072 243.472V243.68C79.6072 245.104 80.5992 245.824 81.9272 245.824C83.2232 245.824 84.2152 245.104 84.2152 243.68V243.472C84.2152 242.048 83.2232 241.344 81.9272 241.344C80.5992 241.344 79.6072 242.048 79.6072 243.472ZM83.4792 248.496H86.6152C88.7592 248.496 90.1192 249.776 90.1192 251.552C90.1192 253.344 88.7592 254.624 86.6152 254.624H83.4792C81.3352 254.624 79.9592 253.344 79.9592 251.552C79.9592 249.776 81.3352 248.496 83.4792 248.496ZM83.7352 253.184H86.3592C87.7992 253.184 88.5352 252.496 88.5352 251.552C88.5352 250.608 87.7992 249.92 86.3592 249.92H83.7352C82.2792 249.92 81.5592 250.608 81.5592 251.552C81.5592 252.496 82.2792 253.184 83.7352 253.184ZM97.7711 241.088H101.307V242.432H92.6191V241.088H96.1551V239.44H97.7711V241.088ZM104.475 239.616V243.952H106.779V245.408H104.475V250.88H102.875V239.616H104.475ZM100.651 246.096V246.336C100.651 248.144 99.0351 249.136 96.9871 249.136C94.9231 249.136 93.3071 248.144 93.3071 246.336V246.096C93.3071 244.272 94.9231 243.312 96.9871 243.312C99.0351 243.312 100.651 244.272 100.651 246.096ZM94.8751 246.128V246.304C94.8751 247.232 95.7871 247.792 96.9871 247.792C98.1711 247.792 99.0991 247.232 99.0991 246.304V246.128C99.0991 245.216 98.1711 244.656 96.9871 244.656C95.7871 244.656 94.8751 245.216 94.8751 246.128ZM94.9551 250.352H96.5551V253.008H105.243V254.464H94.9551V250.352ZM121.841 244.736V239.616H123.441V254.464H121.841V246.192H118.321V244.736H121.841ZM116.193 240.48V242.416C116.193 243.68 116.049 244.864 115.745 246L120.145 251.264L118.945 252.288L115.153 247.712C114.433 249.376 113.345 250.928 111.825 252.448L110.705 251.376C113.377 248.688 114.641 245.968 114.641 242.416V240.48H116.193ZM136.549 254.464V239.616H138.133V254.464H136.549ZM127.717 244.72H131.925V240.56H133.493V252.064H126.133V240.56H127.717V244.72ZM127.717 246.16V250.608H131.925V246.16H127.717ZM152.473 248.88L146.793 245.04C145.785 246.416 144.089 247.712 141.561 248.88L140.825 247.504C144.745 245.632 146.361 243.712 146.361 241.52V240.384H147.961V241.52C147.961 242.256 147.833 242.976 147.545 243.68L153.337 247.552L152.473 248.88ZM140.105 253.344V251.888H154.057V253.344H140.105ZM167.196 245.552H156.652V242.128H165.292V241.072H156.588V239.856H166.892V243.312H158.252V244.352H167.196V245.552ZM168.748 247.728H154.796V246.512H168.748V247.728ZM167.436 254.544H156.508V250.992H165.452V249.936H156.428V248.72H167.052V252.208H158.108V253.296H167.436V254.544ZM184.066 243.168H180.706C179.858 245.312 177.554 246.8 174.242 247.84L173.634 246.416C177.17 245.344 179.266 243.648 179.442 241.856H173.97V240.4H181.058V241.232C181.058 241.456 181.042 241.664 181.026 241.872H184.066V239.616H185.65V247.712H184.066V246.032H180.69V244.736H184.066V243.168ZM179.058 248.496H182.306C184.466 248.496 185.858 249.776 185.858 251.552C185.858 253.344 184.466 254.624 182.306 254.624H179.058C176.914 254.624 175.522 253.344 175.522 251.552C175.522 249.776 176.914 248.496 179.058 248.496ZM179.33 253.184H182.05C183.538 253.184 184.258 252.496 184.258 251.552C184.258 250.608 183.538 249.92 182.05 249.92H179.33C177.842 249.92 177.122 250.608 177.122 251.552C177.122 252.496 177.842 253.184 179.33 253.184ZM193.174 240.928H196.71V242.224H188.038V240.928H191.558V239.44H193.174V240.928ZM198.742 243.68V239.616H200.342V248.144H198.742V245.056H196.614V243.68H198.742ZM196.054 245.408V245.616C196.054 247.232 194.438 248.064 192.39 248.064C190.326 248.064 188.71 247.232 188.71 245.616V245.408C188.71 243.792 190.326 242.96 192.39 242.96C194.438 242.96 196.054 243.792 196.054 245.408ZM190.262 245.456V245.584C190.262 246.32 191.19 246.768 192.39 246.768C193.574 246.768 194.502 246.32 194.502 245.584V245.456C194.502 244.72 193.574 244.256 192.39 244.256C191.19 244.256 190.262 244.72 190.262 245.456ZM200.342 254.464H190.518V249.072H200.342V254.464ZM198.742 250.432H192.102V253.072H198.742V250.432ZM213.706 245.2V239.616H215.258V254.464H213.706V246.656H211.818V254.16H210.298V239.84H211.818V245.2H213.706ZM205.018 239.632H206.634V241.792H209.306V243.232H202.33V241.792H205.018V239.632ZM205.85 244.56C207.546 244.56 208.714 245.92 208.714 248.064V248.928C208.714 251.072 207.546 252.448 205.85 252.448C204.122 252.448 202.938 251.072 202.938 248.928V248.064C202.938 245.92 204.122 244.56 205.85 244.56ZM207.242 248.832V248.176C207.242 246.816 206.666 246 205.834 246C205.002 246 204.41 246.816 204.41 248.176V248.832C204.41 250.192 205.002 251.024 205.834 251.024C206.666 251.024 207.242 250.192 207.242 248.832ZM224.782 248.72V251.888H230.958V253.36H217.006V251.888H223.198V248.72H218.718V240.528H220.318V243.248H227.662V240.528H229.262V248.72H224.782ZM227.662 244.688H220.318V247.28H227.662V244.688ZM243.09 254.464V239.616H244.642V254.464H243.09ZM237.506 244.736H239.874V239.84H241.394V254.16H239.874V246.192H237.506V244.736ZM236.002 240.48V242.448C236.002 243.696 235.89 244.88 235.65 246.016L238.962 251.376L237.682 252.288L235.09 248.064C234.546 249.6 233.762 251.056 232.706 252.448L231.49 251.488C233.506 248.8 234.482 245.936 234.482 242.448V240.48H236.002ZM254.534 248.336H252.214C249.542 248.336 247.83 246.624 247.83 244.336C247.83 242.096 249.542 240.384 252.214 240.384H254.534C257.206 240.384 258.918 242.096 258.918 244.336C258.918 246.624 257.206 248.336 254.534 248.336ZM254.246 241.808H252.486C250.566 241.808 249.43 242.864 249.43 244.352C249.43 245.856 250.566 246.912 252.486 246.912H254.246C256.182 246.912 257.334 245.856 257.334 244.352C257.334 242.864 256.182 241.808 254.246 241.808ZM256.79 249.184V251.888H260.342V253.344H246.39V251.888H249.958V249.184H251.526V251.888H255.238V249.184H256.79Z" fill="#F67676"/>
<path d="M100.145 177.606C87.63 173.609 81.9125 156.491 87.3817 139.368C92.8451 122.244 107.422 111.6 119.937 115.597C130.916 119.102 136.662 132.709 134.213 147.557C143.304 115.152 133.324 83.4341 109.588 73.697C83.2928 62.9088 50.0793 83.1742 35.3985 118.958C20.7178 154.741 30.1373 192.488 56.4263 203.277C81.1502 213.418 111.984 196.109 127.785 164.265C120.815 174.989 109.859 180.713 100.145 177.611V177.606Z" fill="#F67676"/>
<path d="M71.3181 206.458C66.1146 206.458 61.0612 205.493 56.3139 203.547C29.9152 192.718 20.4091 154.723 35.1303 118.853C42.2512 101.492 53.923 87.2043 67.9858 78.6222C82.0774 70.0229 96.891 68.1806 109.695 73.4361C121.176 78.1487 129.983 88.3074 134.482 102.047C138.929 115.613 138.929 131.807 134.488 147.648C134.448 147.798 134.297 147.885 134.147 147.85C133.997 147.816 133.899 147.671 133.928 147.521C136.388 132.575 130.468 119.269 119.848 115.878C113.882 113.973 107.258 115.37 101.182 119.806C95.0833 124.258 90.2783 131.241 87.6505 139.465C85.0286 147.689 84.8957 156.161 87.2925 163.328C89.6719 170.461 94.269 175.439 100.229 177.339C109.498 180.296 120.471 174.983 127.54 164.113C127.621 163.986 127.794 163.946 127.927 164.021C128.06 164.096 128.112 164.264 128.043 164.402C120.339 179.926 108.817 192.493 95.5915 199.782C87.535 204.223 79.2533 206.469 71.3181 206.469V206.458ZM94.6502 71.074C86.0335 71.074 77.0241 73.7826 68.2861 79.1074C54.3273 87.6259 42.7421 101.816 35.6674 119.061C21.0733 154.636 30.435 192.291 56.5392 203.004C68.3611 207.855 82.1294 206.521 95.3143 199.256C107.425 192.58 118.104 181.439 125.692 167.636C118.531 176.519 108.603 180.602 100.056 177.876C93.9109 175.918 89.1868 170.807 86.7438 163.496C84.3124 156.219 84.4395 147.614 87.1019 139.274C89.7643 130.935 94.6444 123.848 100.841 119.326C107.067 114.781 113.882 113.355 120.021 115.318C129.902 118.472 135.834 129.935 134.979 143.403C138.317 128.994 137.965 114.516 133.934 102.214C129.487 88.6423 120.795 78.6049 109.475 73.9616C104.768 72.0269 99.7786 71.074 94.6502 71.074Z" fill="#F67676"/>
<path d="M216.179 177.606C203.664 173.609 197.947 156.491 203.416 139.368C208.885 122.244 223.456 111.6 235.971 115.597C246.95 119.102 252.696 132.709 250.248 147.557C259.338 115.152 249.358 83.4341 225.622 73.697C199.327 62.9088 166.114 83.1742 151.433 118.958C136.752 154.741 146.166 192.488 172.461 203.277C197.185 213.418 228.019 196.109 243.82 164.265C236.849 174.989 225.893 180.713 216.179 177.611V177.606Z" fill="#F67676"/>
<path d="M187.379 206.458C182.176 206.458 177.123 205.493 172.375 203.547C145.977 192.718 136.471 154.723 151.186 118.853C158.307 101.492 169.979 87.2043 184.041 78.6222C198.133 70.0229 212.947 68.1806 225.75 73.4361C237.232 78.1487 246.039 88.3074 250.538 102.047C254.985 115.613 254.991 131.807 250.544 147.648C250.503 147.793 250.353 147.885 250.203 147.85C250.053 147.816 249.954 147.671 249.983 147.521C252.444 132.575 246.524 119.269 235.903 115.884C223.562 111.946 209.118 122.526 203.712 139.47C198.306 156.415 203.949 173.406 216.29 177.345C225.554 180.302 236.533 174.988 243.602 164.119C243.683 163.992 243.856 163.952 243.989 164.027C244.121 164.102 244.173 164.269 244.104 164.408C236.4 179.932 224.878 192.499 211.653 199.787C203.596 204.228 195.315 206.475 187.379 206.475V206.458ZM210.706 71.074C202.089 71.074 193.08 73.7826 184.342 79.1074C170.383 87.6259 158.798 101.816 151.723 119.061C137.129 154.636 146.491 192.291 172.595 203.004C184.417 207.855 198.185 206.521 211.37 199.256C223.481 192.58 234.165 181.439 241.748 167.636C234.587 176.519 224.659 180.602 216.111 177.876C203.464 173.839 197.654 156.525 203.158 139.28C208.661 122.035 223.429 111.287 236.077 115.318C245.958 118.472 251.889 129.935 251.034 143.398C254.373 128.988 254.02 114.51 249.989 102.208C245.542 88.6366 236.85 78.5991 225.531 73.9558C220.818 72.0211 215.834 71.0682 210.706 71.0682V71.074Z" fill="#F67676"/>
</svg>
