<svg width="40" height="40" viewBox="0 0 40 40" fill="none" xmlns="http://www.w3.org/2000/svg">
<path d="M13.2466 26.2306C11.1164 25.5504 10.1432 22.6367 11.0741 19.722C12.0041 16.8074 14.4852 14.9957 16.6154 15.6759C18.4841 16.2726 19.4623 18.5886 19.0455 21.116C20.5927 15.6002 18.8941 10.2015 14.8538 8.54408C10.3781 6.7078 4.72476 10.1572 2.22591 16.248C-0.272933 22.3389 1.33038 28.7639 5.8051 30.6002C10.0134 32.3264 15.2618 29.3803 17.9513 23.9599C16.7648 25.7853 14.9 26.7595 13.2466 26.2316V26.2306Z" fill="#F67676"/>
<path d="M8.33922 31.1417C7.45351 31.1417 6.59336 30.9776 5.78532 30.6463C1.29192 28.8031 -0.326141 22.3358 2.17959 16.2303C3.39166 13.2753 5.37835 10.8433 7.77201 9.38251C10.1706 7.91879 12.692 7.6052 14.8714 8.49975C16.8257 9.3019 18.3248 11.031 19.0905 13.3697C19.8475 15.6788 19.8475 18.4352 19.0915 21.1316C19.0847 21.1572 19.0591 21.1719 19.0335 21.166C19.008 21.1601 18.9913 21.1355 18.9962 21.11C19.4149 18.5659 18.4073 16.301 16.5996 15.724C15.5841 15.3996 14.4566 15.6375 13.4224 16.3925C12.3844 17.1504 11.5665 18.3388 11.1192 19.7387C10.6729 21.1385 10.6503 22.5806 11.0583 23.8005C11.4633 25.0146 12.2458 25.8619 13.2602 26.1853C14.838 26.6886 16.7057 25.7843 17.909 23.9342C17.9227 23.9126 17.9522 23.9057 17.9748 23.9185C17.9974 23.9313 18.0063 23.9598 17.9945 23.9834C16.6831 26.6257 14.722 28.7648 12.4709 30.0054C11.0995 30.7613 9.68989 31.1437 8.33922 31.1437V31.1417ZM12.3106 8.0977C10.844 8.0977 9.31044 8.55874 7.82313 9.46508C5.44716 10.915 3.47521 13.3303 2.27101 16.2656C-0.213094 22.3211 1.38039 28.7304 5.82366 30.5539C7.83591 31.3796 10.1794 31.1526 12.4237 29.9159C14.4851 28.7795 16.3027 26.8833 17.5944 24.5339C16.3754 26.0458 14.6856 26.7407 13.2307 26.2768C12.1848 25.9435 11.3807 25.0735 10.9649 23.829C10.551 22.5904 10.5726 21.1257 11.0258 19.7062C11.479 18.2867 12.3097 17.0806 13.3644 16.3109C14.4241 15.5372 15.5841 15.2944 16.6291 15.6286C18.311 16.1654 19.3206 18.1167 19.1751 20.4091C19.7433 17.9564 19.6833 15.492 18.9972 13.3982C18.2402 11.0881 16.7608 9.37956 14.8341 8.58921C14.0329 8.2599 13.1836 8.0977 12.3106 8.0977Z" fill="#F67676"/>
<path d="M32.9968 26.2306C30.8666 25.5504 29.8934 22.6367 30.8243 19.722C31.7552 16.8074 34.2354 14.9957 36.3656 15.6759C38.2343 16.2726 39.2125 18.5886 38.7957 21.116C40.3429 15.6002 38.6443 10.2015 34.604 8.54408C30.1283 6.7078 24.475 10.1572 21.9761 16.248C19.4773 22.3389 21.0796 28.7639 25.5553 30.6002C29.7636 32.3264 35.012 29.3803 37.7016 23.9599C36.515 25.7853 34.6502 26.7595 32.9968 26.2316V26.2306Z" fill="#F67676"/>
<path d="M28.0934 31.1417C27.2077 31.1417 26.3476 30.9776 25.5395 30.6463C21.0461 28.8031 19.4281 22.3358 21.9328 16.2303C23.1449 13.2753 25.1316 10.8433 27.5252 9.38251C29.9238 7.91879 32.4453 7.6052 34.6246 8.49975C36.5789 9.3019 38.078 11.031 38.8438 13.3697C39.6007 15.6788 39.6017 18.4352 38.8448 21.1316C38.8379 21.1562 38.8123 21.1719 38.7868 21.166C38.7612 21.1601 38.7445 21.1355 38.7494 21.11C39.1682 18.5659 38.1606 16.301 36.3528 15.725C34.2521 15.0546 31.7935 16.8555 30.8734 19.7396C29.9533 22.6238 30.9137 25.5159 33.0144 26.1863C34.5912 26.6896 36.4599 25.7852 37.6632 23.9352C37.6769 23.9136 37.7064 23.9067 37.729 23.9195C37.7516 23.9322 37.7605 23.9608 37.7487 23.9843C36.4373 26.6267 34.4762 28.7658 32.2251 30.0063C30.8538 30.7623 29.4441 31.1447 28.0934 31.1447V31.1417ZM32.0639 8.0977C30.5972 8.0977 29.0637 8.55874 27.5764 9.46508C25.2004 10.915 23.2284 13.3303 22.0242 16.2656C19.5401 22.3211 21.1336 28.7304 25.5769 30.5539C27.5891 31.3796 29.9327 31.1526 32.1769 29.9159C34.2383 28.7795 36.0569 26.8833 37.3476 24.5339C36.1287 26.0457 34.4388 26.7407 32.984 26.2768C30.8312 25.5896 29.8422 22.6425 30.7791 19.7072C31.7159 16.7719 34.2295 14.9425 36.3823 15.6286C38.0642 16.1654 39.0738 18.1167 38.9283 20.4081C39.4965 17.9555 39.4365 15.491 38.7504 13.3972C37.9935 11.0871 36.514 9.37858 34.5873 8.58823C33.7851 8.25891 32.9368 8.09671 32.0639 8.09671V8.0977Z" fill="#F67676"/>
</svg>
