
<svg width="20" height="20" viewBox="0 0 20 20" fill="none" xmlns="http://www.w3.org/2000/svg">
<path d="M12.7588 15.6681H4.40512C4.29768 15.6681 4.19463 15.6254 4.11866 15.5494C4.04268 15.4735 4 15.3704 4 15.263V8.64594C4 8.53849 4.04268 8.43545 4.11866 8.35947C4.19463 8.2835 4.29768 8.24082 4.40512 8.24082H6.2741C6.50729 8.24082 6.73652 8.18043 6.93945 8.06554C7.14238 7.95064 7.31209 7.78516 7.43207 7.58519L9.26188 4.53528C9.39989 4.30494 9.6173 4.13295 9.87322 4.05167C10.1291 3.97038 10.4059 3.98541 10.6516 4.09391C10.8972 4.20241 11.0947 4.39692 11.207 4.64084C11.3192 4.88477 11.3385 5.16131 11.2612 5.41845L10.5711 7.71956C10.553 7.77999 10.5493 7.84382 10.5602 7.90595C10.5712 7.96808 10.5965 8.02679 10.6341 8.07742C10.6718 8.12804 10.7207 8.16918 10.7771 8.19754C10.8334 8.22591 10.8956 8.24073 10.9587 8.24082H14.0484C14.256 8.24088 14.4608 8.2888 14.6469 8.38086C14.8329 8.47292 14.9953 8.60664 15.1213 8.77163C15.2473 8.93662 15.3335 9.12844 15.3734 9.33218C15.4132 9.53592 15.4055 9.7461 15.3509 9.94639L14.0613 14.6728C13.9834 14.9585 13.8138 15.2106 13.5786 15.3905C13.3433 15.5703 13.0549 15.6679 12.7588 15.6681Z" stroke="#FF8585" stroke-width="0.9" stroke-linecap="round"/>
<path d="M6.35938 15.6695V8.24219" stroke="#FF8585" stroke-width="0.9" stroke-linecap="round" stroke-linejoin="round"/>
</svg>
