
<svg width="24" height="24" viewBox="0 0 24 24" fill="none" xmlns="http://www.w3.org/2000/svg">
<path d="M14.4 6.40036L17.6001 9.60043M19.3393 7.84999C19.7623 7.42712 19.9999 6.85354 20 6.25544C20.0001 5.65733 19.7626 5.0837 19.3397 4.66072C18.9168 4.23774 18.3433 4.00008 17.7452 4C17.1471 3.99992 16.5734 4.23745 16.1505 4.66032L5.47356 15.3398C5.28781 15.525 5.15045 15.753 5.07356 16.0038L4.01675 19.4855C3.99607 19.5546 3.99451 19.6281 4.01223 19.6981C4.02995 19.7681 4.06628 19.832 4.11739 19.8831C4.16849 19.9341 4.23245 19.9703 4.30248 19.9879C4.37251 20.0055 4.446 20.0039 4.51515 19.9831L7.99758 18.927C8.24812 18.8508 8.47613 18.7143 8.66159 18.5294L19.3393 7.84999Z" stroke="#FFFEFD" stroke-width="1.5" stroke-linecap="round" stroke-linejoin="round"/>
</svg>
