
<svg width="24" height="24" viewBox="0 0 24 24" fill="none" xmlns="http://www.w3.org/2000/svg">
<path d="M11.4654 17.9978H17.5362C17.7726 18.0114 18.0085 17.9624 18.2213 17.8555C18.4341 17.7485 18.6168 17.5872 18.752 17.3868C18.8871 17.1865 18.9702 16.9537 18.9934 16.7109C19.0165 16.468 18.9789 16.2231 18.8841 15.9995C18.5632 14.9999 17.2839 13.8009 17.2839 12.6213C17.2839 10.0028 17.2839 9.31378 16.0332 7.77396C15.628 7.27822 15.1255 6.8765 14.5588 6.59521L13.8608 6.24609C13.7437 6.17323 13.6426 6.07592 13.5642 5.96041C13.4857 5.8449 13.4316 5.71376 13.4052 5.5754C13.3355 5.10905 13.0962 4.68751 12.736 4.39627C12.3758 4.10503 11.9215 3.9659 11.4654 4.0071C11.0176 3.9796 10.5759 4.12501 10.2265 4.41496C9.87711 4.70492 9.64503 5.11864 9.57557 5.5754C9.54424 5.71845 9.48282 5.85266 9.39563 5.96855C9.30844 6.08444 9.19763 6.17919 9.07101 6.24609L8.37211 6.59521C7.80607 6.87672 7.3042 7.27843 6.89943 7.77396C5.64872 9.31378 5.64872 10.0028 5.64872 12.6213C5.64872 13.8009 4.42744 14.8795 4.10651 15.9389C3.91307 16.5792 3.80609 17.9978 5.42586 17.9978H11.4654Z" stroke="#F67676" stroke-width="1.5" stroke-linecap="round" stroke-linejoin="round"/>
<path d="M14.9992 18C15.009 18.3963 14.9252 18.7901 14.7527 19.1579C14.5803 19.5256 14.3228 19.8597 13.9958 20.1399C13.6688 20.4201 13.279 20.6407 12.8499 20.7884C12.4208 20.9361 11.9612 21.0078 11.4989 20.9993C11.0368 21.0077 10.5774 20.9359 10.1485 20.7881C9.71958 20.6403 9.32999 20.4197 9.00317 20.1395C8.67635 19.8593 8.41906 19.5253 8.2468 19.1576C8.07453 18.7899 7.99085 18.3961 8.00079 18" stroke="#F67676" stroke-width="1.5" stroke-linecap="round" stroke-linejoin="round"/>
</svg>
