
<svg width="24" height="24" viewBox="0 0 24 24" fill="none" xmlns="http://www.w3.org/2000/svg">
<path d="M12 8.41176C14.1053 8.41176 15.7895 10.1765 15.7895 12.3824C15.7895 14.5882 14.1053 16.3529 12 16.3529C9.89474 16.3529 8.21053 14.5882 8.21053 12.3824C8.21053 10.1765 9.89474 8.41176 12 8.41176ZM12 9.29412C11.2183 9.29412 10.4686 9.61948 9.9159 10.1986C9.36316 10.7778 9.05263 11.5633 9.05263 12.3824C9.05263 13.2014 9.36316 13.9869 9.9159 14.5661C10.4686 15.1452 11.2183 15.4706 12 15.4706C12.7817 15.4706 13.5314 15.1452 14.0841 14.5661C14.6368 13.9869 14.9474 13.2014 14.9474 12.3824C14.9474 11.5633 14.6368 10.7778 14.0841 10.1986C13.5314 9.61948 12.7817 9.29412 12 9.29412ZM6.52632 5.76471H8.21053L9.89474 4H14.1053L15.7895 5.76471H17.4737C18.1437 5.76471 18.7863 6.04359 19.2601 6.54001C19.7338 7.03643 20 7.70972 20 8.41176V16.3529C20 17.055 19.7338 17.7283 19.2601 18.2247C18.7863 18.7211 18.1437 19 17.4737 19H6.52632C5.8563 19 5.21372 18.7211 4.73994 18.2247C4.26616 17.7283 4 17.055 4 16.3529V8.41176C4 7.70972 4.26616 7.03643 4.73994 6.54001C5.21372 6.04359 5.8563 5.76471 6.52632 5.76471ZM10.24 4.88235L8.55579 6.64706H6.52632C6.07964 6.64706 5.65125 6.83298 5.3354 7.16393C5.01955 7.49488 4.84211 7.94374 4.84211 8.41176V16.3529C4.84211 16.821 5.01955 17.2698 5.3354 17.6008C5.65125 17.9317 6.07964 18.1176 6.52632 18.1176H17.4737C17.9204 18.1176 18.3488 17.9317 18.6646 17.6008C18.9805 17.2698 19.1579 16.821 19.1579 16.3529V8.41176C19.1579 7.94374 18.9805 7.49488 18.6646 7.16393C18.3488 6.83298 17.9204 6.64706 17.4737 6.64706H15.4442L13.76 4.88235H10.24Z" fill="#919191"/>
</svg>
