
<svg width="20" height="20" viewBox="0 0 20 20" fill="none" xmlns="http://www.w3.org/2000/svg">
<path d="M4.74995 8.97473C4.74995 8.33877 4.74995 7.88355 4.77995 7.52733C4.80844 7.1756 4.86244 6.95287 4.95393 6.77363L4.28648 6.43315C4.13199 6.73538 4.0645 7.06836 4.0315 7.46658C4 7.8603 4 8.35152 4 8.97473H4.74995ZM4.74995 9.87467V8.97473H4V9.87467H4.74995ZM4 9.87467V13.6244H4.74995V9.87467H4ZM4 13.6244V15.0598H4.74995V13.6244H4ZM4 15.0598C4 15.6943 4.7672 16.0122 5.21642 15.563L4.6862 15.0328C4.69266 15.0285 4.69974 15.0252 4.7072 15.0231L4.7267 15.0246C4.73293 15.0281 4.73821 15.0331 4.74213 15.0391C4.74604 15.0451 4.74847 15.0519 4.7492 15.0591L4 15.0598ZM5.21642 15.563L6.67057 14.1089L6.14035 13.5787L4.68545 15.0336L5.21642 15.563ZM12.0245 13.2494H6.9353V13.9994H12.0245V13.2494ZM14.2255 13.0454C14.0463 13.1369 13.8236 13.1909 13.4719 13.2202C13.1149 13.2494 12.6604 13.2494 12.0245 13.2494V13.9994C12.6484 13.9994 13.1389 13.9994 13.5326 13.9671C13.9308 13.9349 14.2638 13.8674 14.566 13.7137L14.2255 13.0454ZM15.0445 12.2258C14.8648 12.5783 14.5781 12.8657 14.2255 13.0454L14.566 13.7137C15.0601 13.462 15.4618 13.0603 15.7134 12.5662L15.0445 12.2258ZM15.2492 10.0247C15.2492 10.6606 15.2492 11.1158 15.2192 11.4721C15.1907 11.8238 15.1367 12.0465 15.0445 12.2258L15.7134 12.5662C15.8672 12.264 15.9347 11.931 15.9669 11.5328C15.9992 11.1391 15.9992 10.6479 15.9992 10.0247H15.2492ZM15.2492 8.97473V10.0247H15.9992V8.97473H15.2492ZM15.0445 6.77363C15.136 6.95287 15.1907 7.1756 15.22 7.52733C15.2492 7.88355 15.2492 8.33877 15.2492 8.97473H15.9992C15.9992 8.35077 15.9992 7.8603 15.9669 7.46658C15.9347 7.06836 15.8672 6.73538 15.7134 6.43315L15.0445 6.77363ZM14.2255 5.95393C14.5782 6.13384 14.8649 6.42078 15.0445 6.77363L15.7134 6.43315C15.4618 5.93909 15.0601 5.53741 14.566 5.28573L14.2255 5.95393ZM12.0245 5.74995C12.6604 5.74995 13.1149 5.74995 13.4719 5.77995C13.8236 5.80844 14.0463 5.86244 14.2255 5.95393L14.566 5.28573C14.2638 5.13124 13.9308 5.0645 13.5326 5.0315C13.1389 5 12.6477 5 12.0245 5V5.74995ZM7.97473 5.74995H12.0245V5H7.97473V5.74995ZM5.77363 5.95393C5.95287 5.86319 6.1756 5.80844 6.52733 5.7792C6.88355 5.74995 7.33877 5.74995 7.97473 5.74995V5C7.35077 5 6.8603 5 6.46658 5.03225C6.06836 5.0645 5.73538 5.13199 5.43315 5.28573L5.77363 5.95393ZM4.95393 6.77363C5.13372 6.42067 5.42067 6.13372 5.77363 5.95393L5.43315 5.28573C4.9392 5.53722 4.53829 5.93936 4.28648 6.43315L4.95393 6.77363ZM6.67057 14.1089C6.74084 14.0388 6.83604 13.9994 6.9353 13.9994V13.2494C6.63705 13.2497 6.35111 13.3684 6.14035 13.5794L6.67057 14.1089Z" fill="#929292"/>
<path d="M7.375 8.375H12.6246M7.375 10.6248H11.1247" stroke="#929292" stroke-linecap="round" stroke-linejoin="round"/>
</svg>
