
<svg width="24" height="24" viewBox="0 0 24 24" fill="none" xmlns="http://www.w3.org/2000/svg">
<path d="M16.9999 8C17.7956 8 18.5586 8.31607 19.1212 8.87868C19.6839 9.44129 19.9999 10.2044 19.9999 11V19C19.9999 19.7956 19.6839 20.5587 19.1212 21.1213C18.5586 21.6839 17.7956 22 16.9999 22H7C6.20435 22 5.44129 21.6839 4.87868 21.1213C4.31607 20.5587 4 19.7956 4 19V11C4 10.2044 4.31607 9.44129 4.87868 8.87868C5.44129 8.31607 6.20435 8 7 8V6.5C7 4 9 2 11.5 2C14 2 16.9999 4 16.9999 6.5V8ZM7 9C6.46957 9 5.96086 9.21071 5.58579 9.58579C5.21071 9.96086 5 10.4696 5 11V19C5 19.5304 5.21071 20.0391 5.58579 20.4142C5.96086 20.7893 6.46957 21 7 21H16.9999C17.5304 21 18.0391 20.7893 18.4141 20.4142C18.7892 20.0391 18.9999 19.5304 18.9999 19V11C18.9999 10.4696 18.7892 9.96086 18.4141 9.58579C18.0391 9.21071 17.5304 9 16.9999 9H7ZM15.9999 8V6.5C15.9999 5.57174 15.6312 4.6815 14.9748 4.02513C14.3184 3.36875 12.4283 3 11.5 3C10.5717 3 9.6815 3.36875 9.02513 4.02513C8.36875 4.6815 8 5.57174 8 6.5V8H15.9999Z" fill="#929292"/>
<circle cx="12" cy="15" r="1.6" stroke="#929292" stroke-width="0.8"/>
</svg>
