
<svg width="24" height="24" viewBox="0 0 24 24" fill="none" xmlns="http://www.w3.org/2000/svg">
<path d="M20 20L16.9474 16.9474M16.9474 16.9474C17.6516 16.2431 18.2103 15.407 18.5915 14.4868C18.9726 13.5666 19.1688 12.5804 19.1688 11.5844C19.1688 10.5884 18.9726 9.60215 18.5915 8.68197C18.2103 7.76179 17.6516 6.92569 16.9474 6.22142C16.2431 5.51714 15.407 4.95848 14.4868 4.57733C13.5666 4.19618 12.5804 4 11.5844 4C10.5884 4 9.60215 4.19618 8.68197 4.57733C7.76179 4.95848 6.92569 5.51714 6.22142 6.22142C4.79907 7.64377 4 9.57289 4 11.5844C4 13.5959 4.79907 15.525 6.22142 16.9474C7.64377 18.3697 9.57289 19.1688 11.5844 19.1688C13.5959 19.1688 15.525 18.3697 16.9474 16.9474Z" stroke="#F67676" stroke-width="1.5" stroke-linecap="round" stroke-linejoin="round"/>
</svg>
