
<svg width="20" height="20" viewBox="0 0 20 20" fill="none" xmlns="http://www.w3.org/2000/svg">
<g clip-path="url(#clip0_3891_6846)">
<path d="M12.91 9.08648C12.8163 8.99941 12.6896 8.95054 12.5575 8.95054C12.4254 8.95054 12.2987 8.99941 12.205 9.08648C12.1119 9.17407 12.0596 9.29255 12.0596 9.41605C12.0596 9.53954 12.1119 9.65803 12.205 9.74561L14.1 11.5173H5V3.46747C5 3.34349 4.94732 3.22459 4.85355 3.13692C4.75979 3.04925 4.63261 3 4.5 3C4.36739 3 4.24021 3.04925 4.14645 3.13692C4.05268 3.22459 4 3.34349 4 3.46747V11.5173C4 11.7653 4.10536 12.0031 4.29289 12.1784C4.48043 12.3538 4.73478 12.4523 5 12.4523H14.075L12.205 14.2053C12.1119 14.2929 12.0596 14.4114 12.0596 14.5349C12.0596 14.6584 12.1119 14.7768 12.205 14.8644C12.2981 14.9508 12.4238 14.9995 12.555 15C12.6208 15.0003 12.686 14.9886 12.747 14.9653C12.8079 14.942 12.8633 14.9078 12.91 14.8644L16 11.9848L12.91 9.08648Z" fill="#919191"/>
</g>
<defs>
<clipPath id="clip0_3891_6846">
<rect width="20" height="20" fill="white"/>
</clipPath>
</defs>
</svg>
