<svg width="67" height="60" viewBox="0 0 67 60" fill="none" xmlns="http://www.w3.org/2000/svg">
<g clip-path="url(#clip0_4399_6444)">
<path d="M63.2441 26.908L25.1562 15.7969L16.4536 45.641L54.5415 56.7521L63.2441 26.908Z" fill="#E77372"/>
<path d="M54.2311 55.6584L26.3262 47.4593L40.8372 35.4855L49.3594 33.543L53.9842 36.8304L57.3489 42.2293L56.563 49.4539L54.2311 55.6584Z" fill="url(#paint0_linear_4399_6444)"/>
<path d="M27.5341 48.1333L15.8291 44.3391L20.9021 37.1275L26.196 35.2109L28.9176 37.7707L30.2882 40.2655L29.7621 43.7349L27.5341 48.1333Z" fill="url(#paint1_linear_4399_6444)"/>
<path d="M63.2441 26.908L25.1562 15.7969L16.4536 45.641L54.5415 56.7521L63.2441 26.908Z" stroke="#FCEEEC" stroke-width="7" stroke-linecap="round" stroke-linejoin="round"/>
<path d="M25.6045 47.4974C25.6045 47.4974 44.8703 30.8978 50.5019 33.9384C55.7374 36.7645 58.2251 46.4579 58.2251 46.4579" stroke="#FCEEEC" stroke-width="5" stroke-miterlimit="10"/>
<path d="M18.5439 37.1878C18.5439 37.1878 23.0648 33.8419 25.8709 35.0438C28.677 36.2457 31.4506 42.4957 31.4506 42.4957" stroke="#FCEEEC" stroke-width="5" stroke-miterlimit="10"/>
<path d="M32.0549 30.8393C33.5042 30.8393 34.6791 29.6642 34.6791 28.2146C34.6791 26.765 33.5042 25.5898 32.0549 25.5898C30.6056 25.5898 29.4307 26.765 29.4307 28.2146C29.4307 29.6642 30.6056 30.8393 32.0549 30.8393Z" stroke="#FCEEEC" stroke-width="5" stroke-miterlimit="10"/>
<path opacity="0.4" d="M63.2441 26.908L25.1562 15.7969L16.4536 45.641L54.5415 56.7521L63.2441 26.908Z" fill="#7B182F" stroke="#7B182F" stroke-width="7" stroke-linecap="round" stroke-linejoin="round"/>
<path d="M57.6112 18.7247L17.3516 15.1309L14.5367 46.6767L54.7964 50.2706L57.6112 18.7247Z" fill="#E77372"/>
<path d="M54.2709 49.2449L24.7568 46.551L36.9066 31.7182L45.0328 28.0977L50.307 30.4672L54.7341 35.2063L55.376 42.5797L54.2709 49.2449Z" fill="url(#paint2_linear_4399_6444)"/>
<path d="M26.0999 46.9807L13.6523 45.5047L17.3052 37.2907L22.2154 34.332L25.4447 36.3508L27.3042 38.5747L27.4631 42.1489L26.0999 46.9807Z" fill="url(#paint3_linear_4399_6444)"/>
<path d="M57.6112 18.7247L17.3516 15.1309L14.5367 46.6767L54.7964 50.2706L57.6112 18.7247Z" stroke="#FCEEEC" stroke-width="7" stroke-linecap="round" stroke-linejoin="round"/>
<path d="M24.0488 46.7297C24.0488 46.7297 40.0367 26.337 46.2571 28.2631C52.0475 30.0568 56.4481 39.2504 56.4481 39.2504" stroke="#FCEEEC" stroke-width="5" stroke-miterlimit="10"/>
<path d="M14.9561 37.821C14.9561 37.821 18.8141 33.5849 21.8581 34.2336C24.9021 34.8822 28.9057 40.5811 28.9057 40.5811" stroke="#FCEEEC" stroke-width="5" stroke-miterlimit="10"/>
<path d="M26.6891 28.8578C28.1656 28.8578 29.3626 27.6606 29.3626 26.1838C29.3626 24.707 28.1656 23.5098 26.6891 23.5098C25.2126 23.5098 24.0156 24.707 24.0156 26.1838C24.0156 27.6606 25.2126 28.8578 26.6891 28.8578Z" stroke="#FCEEEC" stroke-width="5" stroke-miterlimit="10"/>
<path opacity="0.2" d="M57.6112 18.7247L17.3516 15.1309L14.5367 46.6767L54.7964 50.2706L57.6112 18.7247Z" fill="#7B182F" stroke="#7B182F" stroke-width="7" stroke-linecap="round" stroke-linejoin="round"/>
<path d="M49.4857 10.5374L7.75293 16.6641L12.5512 49.3617L54.2839 43.2351L49.4857 10.5374Z" fill="#E77372"/>
<path d="M53.5024 42.3208L22.8965 46.7488L31.625 28.7521L38.9969 23.0996L44.9261 24.2248L50.5642 27.9579L53.0061 35.2916L53.5024 42.3208Z" fill="url(#paint4_linear_4399_6444)"/>
<path d="M24.3659 46.8609L11.3691 48.3832L13.0831 39.1632L17.3514 34.9668L21.1167 36.231L23.5453 38.0379L24.571 41.632L24.3659 46.8609Z" fill="url(#paint5_linear_4399_6444)"/>
<path d="M49.4857 10.5374L7.75293 16.6641L12.5512 49.3617L54.2839 43.2351L49.4857 10.5374Z" stroke="#FCEEEC" stroke-width="7" stroke-linecap="round" stroke-linejoin="round"/>
<path d="M22.2148 47.1051C22.2148 47.1051 33.4911 22.5293 40.274 22.9727C46.5871 23.3897 53.284 31.6501 53.284 31.6501" stroke="#FCEEEC" stroke-width="5" stroke-miterlimit="10"/>
<path d="M10.833 40.2689C10.833 40.2689 13.7182 35.0334 16.9674 34.9539C20.2166 34.8811 25.6628 39.6864 25.6628 39.6864" stroke="#FCEEEC" stroke-width="5" stroke-miterlimit="10"/>
<path d="M19.9188 28.4012C21.4574 28.4012 22.7047 27.1536 22.7047 25.6147C22.7047 24.0757 21.4574 22.8281 19.9188 22.8281C18.3801 22.8281 17.1328 24.0757 17.1328 25.6147C17.1328 27.1536 18.3801 28.4012 19.9188 28.4012Z" stroke="#FCEEEC" stroke-width="2" stroke-miterlimit="10"/>
<path d="M21.7926 55.5462L19.4811 53.2342C18.9926 52.7456 18.2007 52.7456 17.7123 53.2342L15.4007 55.5462C14.9123 56.0347 14.9123 56.8268 15.4007 57.3153L17.7123 59.6274C18.2007 60.1159 18.9926 60.1159 19.4811 59.6274L21.7926 57.3153C22.2811 56.8268 22.2811 56.0347 21.7926 55.5462Z" fill="url(#paint6_linear_4399_6444)"/>
<path d="M22.8801 1.54419L20.9953 0.220729C20.43 -0.17624 19.6499 -0.0396523 19.2531 0.525806L17.9299 2.411C17.533 2.97646 17.6695 3.75666 18.2349 4.15363L20.1197 5.47709C20.685 5.87405 21.4651 5.73747 21.8619 5.17201L23.1851 3.28682C23.582 2.72136 23.4455 1.94116 22.8801 1.54419Z" fill="url(#paint7_linear_4399_6444)"/>
<path d="M59.7122 47.3966L58.0575 43.8522C57.7652 43.2262 57.0209 42.9557 56.3951 43.248L52.8514 44.9031C52.2255 45.1954 51.9551 45.9398 52.2473 46.5658L53.902 50.1102C54.1943 50.7362 54.9386 51.0067 55.5644 50.7144L59.1081 49.0594C59.734 48.7671 60.0044 48.0226 59.7122 47.3966Z" fill="url(#paint8_linear_4399_6444)"/>
<path d="M61.2636 5.92693L59.9407 4.806C59.6089 4.52482 59.1119 4.56594 58.8308 4.89785L57.7101 6.22102C57.429 6.55293 57.4701 7.04994 57.802 7.33112L59.1248 8.45205C59.4567 8.73323 59.9536 8.69211 60.2347 8.3602L61.3554 7.03704C61.6365 6.70513 61.5954 6.20812 61.2636 5.92693Z" fill="url(#paint9_linear_4399_6444)"/>
<path d="M9.82845 39.8647L9.49269 39.3567C9.22058 38.945 8.66635 38.832 8.25478 39.1041L7.74693 39.4399C7.33535 39.7121 7.22229 40.2665 7.49439 40.6781L7.83015 41.1861C8.10226 41.5977 8.65649 41.7108 9.06806 41.4387L9.57592 41.1028C9.98749 40.8307 10.1006 40.2763 9.82845 39.8647Z" fill="url(#paint10_linear_4399_6444)"/>
<path d="M55.3751 14.8136C56.4021 14.8136 57.2347 13.9808 57.2347 12.9537C57.2347 11.9265 56.4021 11.0938 55.3751 11.0938C54.3482 11.0938 53.5156 11.9265 53.5156 12.9537C53.5156 13.9808 54.3482 14.8136 55.3751 14.8136Z" fill="url(#paint11_linear_4399_6444)"/>
<path d="M1.85952 18.5323C2.8865 18.5323 3.71903 17.6996 3.71903 16.6724C3.71903 15.6452 2.8865 14.8125 1.85952 14.8125C0.832534 14.8125 0 15.6452 0 16.6724C0 17.6996 0.832534 18.5323 1.85952 18.5323Z" fill="url(#paint12_linear_4399_6444)"/>
<path d="M18.2445 10.1143C18.8109 10.1143 19.2702 9.65503 19.2702 9.08842C19.2702 8.52182 18.8109 8.0625 18.2445 8.0625C17.678 8.0625 17.2188 8.52182 17.2188 9.08842C17.2188 9.65503 17.678 10.1143 18.2445 10.1143Z" fill="url(#paint13_linear_4399_6444)"/>
<path d="M45.3493 51.574C45.9925 51.574 46.5139 51.0524 46.5139 50.4091C46.5139 49.7657 45.9925 49.2441 45.3493 49.2441C44.706 49.2441 44.1846 49.7657 44.1846 50.4091C44.1846 51.0524 44.706 51.574 45.3493 51.574Z" fill="url(#paint14_linear_4399_6444)"/>
</g>
<defs>
<linearGradient id="paint0_linear_4399_6444" x1="31.9718" y1="37.2443" x2="56.8031" y2="51" gradientUnits="userSpaceOnUse">
<stop stop-color="#FADFDD"/>
<stop offset="0.16" stop-color="#F8D6D4"/>
<stop offset="0.4" stop-color="#F5C0BE"/>
<stop offset="0.7" stop-color="#EF9C9B"/>
<stop offset="0.92" stop-color="#EA7D7C"/>
</linearGradient>
<linearGradient id="paint1_linear_4399_6444" x1="18.9739" y1="38.6405" x2="29.5372" y2="44.4922" gradientUnits="userSpaceOnUse">
<stop stop-color="#FADFDD"/>
<stop offset="0.16" stop-color="#F8D6D4"/>
<stop offset="0.4" stop-color="#F5C0BE"/>
<stop offset="0.7" stop-color="#EF9C9B"/>
<stop offset="0.92" stop-color="#EA7D7C"/>
</linearGradient>
<linearGradient id="paint2_linear_4399_6444" x1="28.3983" y1="35.2328" x2="55.9289" y2="44.086" gradientUnits="userSpaceOnUse">
<stop stop-color="#FADFDD"/>
<stop offset="0.16" stop-color="#F8D6D4"/>
<stop offset="0.4" stop-color="#F5C0BE"/>
<stop offset="0.7" stop-color="#EF9C9B"/>
<stop offset="0.92" stop-color="#EA7D7C"/>
</linearGradient>
<linearGradient id="paint3_linear_4399_6444" x1="15.6761" y1="39.1908" x2="27.3939" y2="42.959" gradientUnits="userSpaceOnUse">
<stop stop-color="#FADFDD"/>
<stop offset="0.16" stop-color="#F8D6D4"/>
<stop offset="0.4" stop-color="#F5C0BE"/>
<stop offset="0.7" stop-color="#EF9C9B"/>
<stop offset="0.92" stop-color="#EA7D7C"/>
</linearGradient>
<linearGradient id="paint4_linear_4399_6444" x1="23.8465" y1="34.3813" x2="53.9342" y2="36.6854" gradientUnits="userSpaceOnUse">
<stop stop-color="#FADFDD"/>
<stop offset="0.16" stop-color="#F8D6D4"/>
<stop offset="0.4" stop-color="#F5C0BE"/>
<stop offset="0.7" stop-color="#EF9C9B"/>
<stop offset="0.92" stop-color="#EA7D7C"/>
</linearGradient>
<linearGradient id="paint5_linear_4399_6444" x1="11.9007" y1="41.4847" x2="24.7011" y2="42.4649" gradientUnits="userSpaceOnUse">
<stop stop-color="#FADFDD"/>
<stop offset="0.16" stop-color="#F8D6D4"/>
<stop offset="0.4" stop-color="#F5C0BE"/>
<stop offset="0.7" stop-color="#EF9C9B"/>
<stop offset="0.92" stop-color="#EA7D7C"/>
</linearGradient>
<linearGradient id="paint6_linear_4399_6444" x1="22.0507" y1="53.3974" x2="14.426" y2="60.0941" gradientUnits="userSpaceOnUse">
<stop stop-color="#EE8887"/>
<stop offset="0.37" stop-color="#EE8A89"/>
<stop offset="0.59" stop-color="#EF9291"/>
<stop offset="0.77" stop-color="#F1A0A0"/>
<stop offset="0.87" stop-color="#F3ACAC"/>
</linearGradient>
<linearGradient id="paint7_linear_4399_6444" x1="19.5625" y1="0.177026" x2="21.5494" y2="5.52594" gradientUnits="userSpaceOnUse">
<stop stop-color="#F8D2D1"/>
<stop offset="0.3" stop-color="#F7CFCE"/>
<stop offset="0.48" stop-color="#F6C7C6"/>
<stop offset="0.63" stop-color="#F4B8B8"/>
<stop offset="0.76" stop-color="#F2A4A4"/>
<stop offset="0.87" stop-color="#EF8E8E"/>
</linearGradient>
<linearGradient id="paint8_linear_4399_6444" x1="56.6369" y1="43.062" x2="55.3161" y2="50.9031" gradientUnits="userSpaceOnUse">
<stop stop-color="#F8D2D1"/>
<stop offset="0.4" stop-color="#F8D4D3"/>
<stop offset="0.63" stop-color="#F9DCDB"/>
<stop offset="0.83" stop-color="#FBEBE9"/>
<stop offset="0.87" stop-color="#FCEFED"/>
</linearGradient>
<linearGradient id="paint9_linear_4399_6444" x1="59.012" y1="4.7044" x2="60.0539" y2="8.55354" gradientUnits="userSpaceOnUse">
<stop stop-color="#F8D2D1"/>
<stop offset="0.3" stop-color="#F7CFCE"/>
<stop offset="0.48" stop-color="#F6C7C6"/>
<stop offset="0.63" stop-color="#F4B8B8"/>
<stop offset="0.76" stop-color="#F2A4A4"/>
<stop offset="0.87" stop-color="#EF8E8E"/>
</linearGradient>
<linearGradient id="paint10_linear_4399_6444" x1="8.68667" y1="38.9534" x2="8.63615" y2="41.5894" gradientUnits="userSpaceOnUse">
<stop stop-color="#F8D2D1"/>
<stop offset="0.3" stop-color="#F7CFCE"/>
<stop offset="0.48" stop-color="#F6C7C6"/>
<stop offset="0.63" stop-color="#F4B8B8"/>
<stop offset="0.76" stop-color="#F2A4A4"/>
<stop offset="0.87" stop-color="#EF8E8E"/>
</linearGradient>
<linearGradient id="paint11_linear_4399_6444" x1="53.8465" y1="11.9013" x2="56.9042" y2="14.0055" gradientUnits="userSpaceOnUse">
<stop stop-color="#F5B7B0"/>
<stop offset="0.29" stop-color="#F5B9B2"/>
<stop offset="0.46" stop-color="#F6C0BA"/>
<stop offset="0.6" stop-color="#F8CDC9"/>
<stop offset="0.73" stop-color="#FAE0DD"/>
<stop offset="0.84" stop-color="#FEF8F7"/>
<stop offset="0.87" stop-color="white"/>
</linearGradient>
<linearGradient id="paint12_linear_4399_6444" x1="0.330875" y1="15.6134" x2="3.38857" y2="17.7242" gradientUnits="userSpaceOnUse">
<stop stop-color="#F5B7B0"/>
<stop offset="0.29" stop-color="#F5B9B2"/>
<stop offset="0.46" stop-color="#F6C0BA"/>
<stop offset="0.6" stop-color="#F8CDC9"/>
<stop offset="0.73" stop-color="#FAE0DD"/>
<stop offset="0.84" stop-color="#FEF8F7"/>
<stop offset="0.87" stop-color="white"/>
</linearGradient>
<linearGradient id="paint13_linear_4399_6444" x1="17.404" y1="8.50596" x2="19.0917" y2="9.67056" gradientUnits="userSpaceOnUse">
<stop stop-color="#FBE5E3"/>
<stop offset="0.7" stop-color="#FAE2E0"/>
<stop offset="0.87" stop-color="#FAE0DE"/>
</linearGradient>
<linearGradient id="paint14_linear_4399_6444" x1="44.3963" y1="49.7472" x2="46.309" y2="51.064" gradientUnits="userSpaceOnUse">
<stop stop-color="#F8D2D1"/>
<stop offset="0.3" stop-color="#F7CFCE"/>
<stop offset="0.48" stop-color="#F6C7C6"/>
<stop offset="0.63" stop-color="#F4B8B8"/>
<stop offset="0.76" stop-color="#F2A4A4"/>
<stop offset="0.87" stop-color="#EF8E8E"/>
</linearGradient>
<clipPath id="clip0_4399_6444">
<rect width="66.4463" height="60" fill="white"/>
</clipPath>
</defs>
</svg>
