<svg width="62" height="60" viewBox="0 0 62 60" fill="none" xmlns="http://www.w3.org/2000/svg">
<g clip-path="url(#clip0_4399_6502)">
<path d="M41.2278 9.73001L18.6264 3.13559C17.3013 2.74988 15.9202 3.50886 15.5345 4.83397L3.45298 46.2793C3.06726 47.6044 3.82624 48.9855 5.15135 49.3712L38.5278 59.1011C39.8529 59.4868 41.234 58.7278 41.6197 57.4027L43.3741 51.3744L47.0943 38.6148L50.46 27.0808L41.2278 9.72379V9.73001Z" fill="url(#paint0_linear_4399_6502)"/>
<path d="M50.4599 27.0875L39.6787 23.9458C38.3536 23.5601 37.5946 22.179 37.9803 20.8539L41.2215 9.73047" fill="url(#paint1_linear_4399_6502)"/>
<path d="M44.4999 29.4572L16.0381 21.1582" stroke="url(#paint2_linear_4399_6502)" stroke-width="4" stroke-miterlimit="10" stroke-linecap="round"/>
<path d="M39.6786 45.9982L11.2168 37.6992" stroke="url(#paint3_linear_4399_6502)" stroke-width="4" stroke-miterlimit="10" stroke-linecap="round"/>
<path d="M41.3456 40.2873L12.8838 31.9883" stroke="url(#paint4_linear_4399_6502)" stroke-width="4" stroke-miterlimit="10" stroke-linecap="round"/>
<path opacity="0.4" d="M35.5724 47.442C35.4854 47.5166 35.4231 47.61 35.3858 47.7157L33.5195 52.985C33.3204 53.5449 33.7994 54.0986 34.3842 53.9742L39.9584 52.985C40.089 52.9601 40.2072 52.9042 40.3067 52.8171L43.859 49.7127L47.5793 36.9531L35.5724 47.4482V47.442Z" fill="#F67676"/>
<path d="M22.9684 50.3604L8.73438 46.2109" stroke="url(#paint5_linear_4399_6502)" stroke-width="3" stroke-miterlimit="10" stroke-linecap="round"/>
<path d="M23.9143 47.1007L9.68652 42.9512" stroke="url(#paint6_linear_4399_6502)" stroke-width="3" stroke-miterlimit="10" stroke-linecap="round"/>
<path d="M42.9194 34.869L14.4639 26.5762" stroke="url(#paint7_linear_4399_6502)" stroke-width="4" stroke-miterlimit="10" stroke-linecap="round"/>
<path d="M60.7182 29.1527C62.2735 27.7903 62.4414 25.4387 61.0604 23.9518C59.7228 22.5147 57.4085 22.5334 55.8906 23.8585L54.4473 25.1152L59.1567 30.5089L60.712 29.1465L60.7182 29.1527Z" fill="#F67676"/>
<path d="M32.9162 43.9473C32.8291 44.0219 32.7669 44.1153 32.7296 44.221L30.8632 49.4903C30.6641 50.0502 31.1432 50.6039 31.728 50.4795L37.3021 49.4903C37.4328 49.4654 37.551 49.4095 37.6505 49.3224L56.0402 33.2531L51.3308 27.8594L32.9224 43.9535L32.9162 43.9473Z" fill="#F67676"/>
<path d="M54.4566 25.1289L51.332 27.8594L56.0439 33.2512L59.1684 30.5207L54.4566 25.1289Z" fill="#FFC8C6"/>
<path d="M6.35023 35.3073L4.17712 33.1341C3.71794 32.675 2.97347 32.675 2.51429 33.1341L0.341173 35.3073C-0.118004 35.7664 -0.118004 36.5109 0.341173 36.9701L2.51429 39.1432C2.97347 39.6024 3.71794 39.6024 4.17712 39.1432L6.35023 36.9701C6.80941 36.5109 6.80941 35.7664 6.35023 35.3073Z" fill="url(#paint8_linear_4399_6502)"/>
<path d="M26.3961 6.6442L25.2022 4.83824C24.844 4.29655 24.1146 4.14774 23.5729 4.50587L21.7669 5.69985C21.2252 6.05798 21.0764 6.78743 21.4346 7.32912L22.6285 9.13508C22.9867 9.67677 23.7161 9.82558 24.2578 9.46745L26.0638 8.27347C26.6055 7.91534 26.7543 7.18589 26.3961 6.6442Z" fill="url(#paint9_linear_4399_6502)"/>
<path d="M52.2076 17.4909L51.3087 16.1312C51.0832 15.7902 50.6239 15.6965 50.2828 15.922L48.9232 16.8209C48.5821 17.0464 48.4884 17.5056 48.7139 17.8467L49.6128 19.2064C49.8383 19.5474 50.2976 19.6411 50.6387 19.4156L51.9983 18.5167C52.3394 18.2912 52.4331 17.8319 52.2076 17.4909Z" fill="url(#paint10_linear_4399_6502)"/>
<path d="M9.33449 28.805L9.01884 28.3275C8.76304 27.9406 8.242 27.8343 7.85508 28.0901L7.37764 28.4058C6.99072 28.6616 6.88443 29.1826 7.14023 29.5696L7.45588 30.047C7.71169 30.4339 8.23273 30.5402 8.61965 30.2844L9.09709 29.9687C9.48401 29.7129 9.5903 29.1919 9.33449 28.805Z" fill="url(#paint11_linear_4399_6502)"/>
<path d="M42.422 57.4826C43.3874 57.4826 44.1701 56.6999 44.1701 55.7345C44.1701 54.769 43.3874 53.9863 42.422 53.9863C41.4565 53.9863 40.6738 54.769 40.6738 55.7345C40.6738 56.6999 41.4565 57.4826 42.422 57.4826Z" fill="url(#paint12_linear_4399_6502)"/>
<path d="M22.9682 1.92856C23.5007 1.92856 23.9325 1.49683 23.9325 0.964279C23.9325 0.431722 23.5007 0 22.9682 0C22.4356 0 22.0039 0.431722 22.0039 0.964279C22.0039 1.49683 22.4356 1.92856 22.9682 1.92856Z" fill="url(#paint13_linear_4399_6502)"/>
<path d="M48.674 53.8754C49.2787 53.8754 49.7689 53.3852 49.7689 52.7805C49.7689 52.1758 49.2787 51.6855 48.674 51.6855C48.0693 51.6855 47.5791 52.1758 47.5791 52.7805C47.5791 53.3852 48.0693 53.8754 48.674 53.8754Z" fill="url(#paint14_linear_4399_6502)"/>
</g>
<defs>
<linearGradient id="paint0_linear_4399_6502" x1="3.34722" y1="31.1246" x2="50.46" y2="31.1246" gradientUnits="userSpaceOnUse">
<stop stop-color="#FFFEFE"/>
<stop offset="0.37" stop-color="#FEFBFB"/>
<stop offset="0.59" stop-color="#FEF3F3"/>
<stop offset="0.77" stop-color="#FDE5E4"/>
<stop offset="0.92" stop-color="#FDD2D0"/>
<stop offset="0.94" stop-color="#FDD1CF"/>
</linearGradient>
<linearGradient id="paint1_linear_4399_6502" x1="49.3069" y1="28.0533" x2="37.1253" y2="13.095" gradientUnits="userSpaceOnUse">
<stop stop-color="#FFC8C5"/>
<stop offset="0.65" stop-color="#FFCAC7"/>
<stop offset="0.94" stop-color="#FFCFCD"/>
</linearGradient>
<linearGradient id="paint2_linear_4399_6502" x1="14.8416" y1="20.8052" x2="45.6945" y2="29.8039" gradientUnits="userSpaceOnUse">
<stop stop-color="#FF9F9E"/>
<stop offset="0.24" stop-color="#FFAEAC"/>
<stop offset="0.45" stop-color="#FFC0BD"/>
<stop offset="0.76" stop-color="#FF9B99"/>
<stop offset="0.94" stop-color="#FF8B8A"/>
</linearGradient>
<linearGradient id="paint3_linear_4399_6502" x1="41.7117" y1="46.5917" x2="40.8696" y2="46.3461" gradientUnits="userSpaceOnUse">
<stop stop-color="#FF9F9E"/>
<stop offset="0.24" stop-color="#FFAEAC"/>
<stop offset="0.45" stop-color="#FFC0BD"/>
<stop offset="0.76" stop-color="#FF9B99"/>
<stop offset="0.94" stop-color="#FF8B8A"/>
</linearGradient>
<linearGradient id="paint4_linear_4399_6502" x1="11.6816" y1="31.638" x2="43.9739" y2="41.0565" gradientUnits="userSpaceOnUse">
<stop stop-color="#FF9F9E"/>
<stop offset="0.24" stop-color="#FFAEAC"/>
<stop offset="0.45" stop-color="#FFC0BD"/>
<stop offset="0.76" stop-color="#FF9B99"/>
<stop offset="0.94" stop-color="#FF8B8A"/>
</linearGradient>
<linearGradient id="paint5_linear_4399_6502" x1="7.83283" y1="45.9463" x2="23.8565" y2="50.6198" gradientUnits="userSpaceOnUse">
<stop stop-color="#FF9F9E"/>
<stop offset="0.24" stop-color="#FFAEAC"/>
<stop offset="0.45" stop-color="#FFC0BD"/>
<stop offset="0.76" stop-color="#FF9B99"/>
<stop offset="0.94" stop-color="#FF8B8A"/>
</linearGradient>
<linearGradient id="paint6_linear_4399_6502" x1="8.78422" y1="42.6855" x2="24.8079" y2="47.3591" gradientUnits="userSpaceOnUse">
<stop stop-color="#FF9F9E"/>
<stop offset="0.24" stop-color="#FFAEAC"/>
<stop offset="0.45" stop-color="#FFC0BD"/>
<stop offset="0.76" stop-color="#FF9B99"/>
<stop offset="0.94" stop-color="#FF8B8A"/>
</linearGradient>
<linearGradient id="paint7_linear_4399_6502" x1="13.2614" y1="26.2214" x2="45.5537" y2="35.6399" gradientUnits="userSpaceOnUse">
<stop stop-color="#FF9F9E"/>
<stop offset="0.24" stop-color="#FFAEAC"/>
<stop offset="0.45" stop-color="#FFC0BD"/>
<stop offset="0.76" stop-color="#FF9B99"/>
<stop offset="0.94" stop-color="#FF8B8A"/>
</linearGradient>
<linearGradient id="paint8_linear_4399_6502" x1="6.59247" y1="33.2901" x2="-0.568077" y2="39.5797" gradientUnits="userSpaceOnUse">
<stop stop-color="#F67676"/>
<stop offset="0.32" stop-color="#F57878"/>
<stop offset="0.52" stop-color="#F58080"/>
<stop offset="0.68" stop-color="#F48F8F"/>
<stop offset="0.82" stop-color="#F3A3A3"/>
<stop offset="0.87" stop-color="#F3ACAC"/>
</linearGradient>
<linearGradient id="paint9_linear_4399_6502" x1="23.9688" y1="4.30379" x2="23.8671" y2="9.6661" gradientUnits="userSpaceOnUse">
<stop stop-color="#F8D2D1"/>
<stop offset="0.19" stop-color="#F6C9C9"/>
<stop offset="0.48" stop-color="#F4B4B3"/>
<stop offset="0.85" stop-color="#EF9090"/>
<stop offset="0.87" stop-color="#EF8E8E"/>
</linearGradient>
<linearGradient id="paint10_linear_4399_6502" x1="50.4921" y1="15.7985" x2="50.419" y2="19.5459" gradientUnits="userSpaceOnUse">
<stop stop-color="#F8D2D1"/>
<stop offset="0.3" stop-color="#F7CFCE"/>
<stop offset="0.48" stop-color="#F6C7C6"/>
<stop offset="0.63" stop-color="#F4B8B8"/>
<stop offset="0.76" stop-color="#F2A4A4"/>
<stop offset="0.87" stop-color="#EF8E8E"/>
</linearGradient>
<linearGradient id="paint11_linear_4399_6502" x1="8.2611" y1="27.9485" x2="8.2102" y2="30.4209" gradientUnits="userSpaceOnUse">
<stop stop-color="#F8D2D1"/>
<stop offset="0.3" stop-color="#F7CFCE"/>
<stop offset="0.48" stop-color="#F6C7C6"/>
<stop offset="0.63" stop-color="#F4B8B8"/>
<stop offset="0.76" stop-color="#F2A4A4"/>
<stop offset="0.87" stop-color="#EF8E8E"/>
</linearGradient>
<linearGradient id="paint12_linear_4399_6502" x1="40.9849" y1="54.7453" x2="43.8591" y2="56.7299" gradientUnits="userSpaceOnUse">
<stop stop-color="#F5B7B0"/>
<stop offset="0.35" stop-color="#F4B4AD"/>
<stop offset="0.57" stop-color="#F3ACA6"/>
<stop offset="0.74" stop-color="#F19D9B"/>
<stop offset="0.87" stop-color="#EF8E8E"/>
</linearGradient>
<linearGradient id="paint13_linear_4399_6502" x1="22.1719" y1="0.416817" x2="23.7583" y2="1.51174" gradientUnits="userSpaceOnUse">
<stop stop-color="#FBE5E3"/>
<stop offset="0.7" stop-color="#FAE2E0"/>
<stop offset="0.87" stop-color="#FAE0DE"/>
</linearGradient>
<linearGradient id="paint14_linear_4399_6502" x1="47.772" y1="52.1646" x2="49.5699" y2="53.4026" gradientUnits="userSpaceOnUse">
<stop stop-color="#F8D2D1"/>
<stop offset="0.3" stop-color="#F7CFCE"/>
<stop offset="0.48" stop-color="#F6C7C6"/>
<stop offset="0.63" stop-color="#F4B8B8"/>
<stop offset="0.76" stop-color="#F2A4A4"/>
<stop offset="0.87" stop-color="#EF8E8E"/>
</linearGradient>
<clipPath id="clip0_4399_6502">
<rect width="62" height="59.2067" fill="white"/>
</clipPath>
</defs>
</svg>
