<svg width="134" height="121" viewBox="0 0 134 121" fill="none" xmlns="http://www.w3.org/2000/svg">
<g clip-path="url(#clip0_4399_2073)">
<path d="M129.338 53.9101L51.0859 31.082L33.2061 92.3977L111.459 115.226L129.338 53.9101Z" fill="#E77372"/>
<path d="M110.816 112.978L53.4844 96.1325L83.2977 71.5321L100.807 67.541L110.309 74.2951L117.221 85.3874L115.607 100.23L110.816 112.978Z" fill="url(#paint0_linear_4399_2073)"/>
<path d="M55.9701 97.5219L31.9219 89.7267L42.3445 74.9103L53.2209 70.9727L58.8126 76.2318L61.6285 81.3574L60.5475 88.4853L55.9701 97.5219Z" fill="url(#paint1_linear_4399_2073)"/>
<path d="M129.338 53.9101L51.0859 31.082L33.2061 92.3977L111.459 115.226L129.338 53.9101Z" stroke="#FCEEEC" stroke-width="7" stroke-linecap="round" stroke-linejoin="round"/>
<path d="M52.0078 96.2134C52.0078 96.2134 91.5899 62.1091 103.16 68.356C113.917 74.1624 119.028 94.0777 119.028 94.0777" stroke="#FCEEEC" stroke-width="5" stroke-miterlimit="10"/>
<path d="M37.5 75.0301C37.5 75.0301 46.7883 68.1558 52.5535 70.6252C58.3186 73.0946 64.0171 85.9354 64.0171 85.9354" stroke="#FCEEEC" stroke-width="5" stroke-miterlimit="10"/>
<path d="M65.2587 61.9883C68.2363 61.9883 70.6502 59.574 70.6502 56.5957C70.6502 53.6175 68.2363 51.2031 65.2587 51.2031C62.281 51.2031 59.8672 53.6175 59.8672 56.5957C59.8672 59.574 62.281 61.9883 65.2587 61.9883Z" stroke="#FCEEEC" stroke-width="5" stroke-miterlimit="10"/>
<path opacity="0.4" d="M129.338 53.9101L51.0859 31.082L33.2061 92.3977L111.459 115.226L129.338 53.9101Z" fill="#7B182F" stroke="#7B182F" stroke-width="7" stroke-linecap="round" stroke-linejoin="round"/>
<path d="M116.182 37.7612L34.9922 30.5137L29.3156 94.1312L110.506 101.379L116.182 37.7612Z" fill="#E77372"/>
<path d="M109.442 99.3091L49.9219 93.8764L74.4238 63.9635L90.8118 56.6621L101.448 61.4407L110.376 70.9979L111.671 85.8676L109.442 99.3091Z" fill="url(#paint2_linear_4399_2073)"/>
<path d="M52.6337 94.7444L27.5312 91.7678L34.8978 75.2029L44.8 69.2363L51.3125 73.3075L55.0626 77.7924L55.3829 85.0004L52.6337 94.7444Z" fill="url(#paint3_linear_4399_2073)"/>
<path d="M116.182 37.7612L34.9922 30.5137L29.3156 94.1312L110.506 101.379L116.182 37.7612Z" stroke="#FCEEEC" stroke-width="7" stroke-linecap="round" stroke-linejoin="round"/>
<path d="M48.5 94.2381C48.5 94.2381 80.7422 53.1128 93.2868 56.9971C104.964 60.6144 113.839 79.1548 113.839 79.1548" stroke="#FCEEEC" stroke-width="5" stroke-miterlimit="10"/>
<path d="M30.1641 76.2713C30.1641 76.2713 37.9444 67.7285 44.0832 69.0366C50.222 70.3447 58.2959 81.8374 58.2959 81.8374" stroke="#FCEEEC" stroke-width="5" stroke-miterlimit="10"/>
<path d="M53.8212 58.1973C56.7988 58.1973 59.2127 55.783 59.2127 52.8047C59.2127 49.8265 56.7988 47.4121 53.8212 47.4121C50.8435 47.4121 48.4297 49.8265 48.4297 52.8047C48.4297 55.783 50.8435 58.1973 53.8212 58.1973Z" stroke="#FCEEEC" stroke-width="5" stroke-miterlimit="10"/>
<path opacity="0.2" d="M116.182 37.7612L34.9922 30.5137L29.3156 94.1312L110.506 101.379L116.182 37.7612Z" fill="#7B182F" stroke="#7B182F" stroke-width="7" stroke-linecap="round" stroke-linejoin="round"/>
<path d="M99.7939 21.2501L15.6328 33.6055L25.3092 99.5457L109.47 87.1904L99.7939 21.2501Z" fill="#E77372"/>
<path d="M107.894 85.3467L46.1719 94.2765L63.7743 57.9832L78.641 46.584L90.5983 48.8531L101.969 56.3814L106.893 71.1711L107.894 85.3467Z" fill="url(#paint4_linear_4399_2073)"/>
<path d="M49.132 94.504L22.9219 97.5741L26.3783 78.9802L34.986 70.5176L42.5795 73.0671L47.4772 76.7111L49.5457 83.9591L49.132 94.504Z" fill="url(#paint5_linear_4399_2073)"/>
<path d="M99.7939 21.2501L15.6328 33.6055L25.3092 99.5457L109.47 87.1904L99.7939 21.2501Z" stroke="#FCEEEC" stroke-width="7" stroke-linecap="round" stroke-linejoin="round"/>
<path d="M44.7969 94.9973C44.7969 94.9973 67.5372 45.436 81.2162 46.3303C93.9476 47.1712 107.453 63.8296 107.453 63.8296" stroke="#FCEEEC" stroke-width="5" stroke-miterlimit="10"/>
<path d="M21.8438 81.2084C21.8438 81.2084 27.6623 70.6501 34.2148 70.4899C40.7674 70.3431 51.7505 80.0338 51.7505 80.0338" stroke="#FCEEEC" stroke-width="5" stroke-miterlimit="10"/>
<path d="M40.1652 57.2762C43.2682 57.2762 45.7836 54.7602 45.7836 51.6566C45.7836 48.5531 43.2682 46.0371 40.1652 46.0371C37.0623 46.0371 34.5469 48.5531 34.5469 51.6566C34.5469 54.7602 37.0623 57.2762 40.1652 57.2762Z" stroke="#FCEEEC" stroke-width="5" stroke-miterlimit="10"/>
<path d="M43.9452 112.019L39.2835 107.356C38.2985 106.371 36.7015 106.371 35.7165 107.356L31.0548 112.019C30.0698 113.004 30.0698 114.601 31.0548 115.587L35.7165 120.249C36.7015 121.234 38.2985 121.234 39.2835 120.249L43.9452 115.587C44.9302 114.601 44.9302 113.004 43.9452 112.019Z" fill="url(#paint6_linear_4399_2073)"/>
<path d="M46.1388 3.1146L42.3378 0.445624C41.1977 -0.35493 39.6246 -0.0794771 38.8242 1.06086L36.1558 4.86267C35.3554 6.00301 35.6308 7.57641 36.7709 8.37697L40.5719 11.0459C41.712 11.8465 43.2851 11.571 44.0855 10.4307L46.7539 6.6289C47.5543 5.48856 47.2789 3.91515 46.1388 3.1146Z" fill="url(#paint7_linear_4399_2073)"/>
<path d="M120.42 95.5841L117.083 88.4362C116.493 87.1738 114.992 86.6283 113.73 87.2178L106.584 90.5554C105.322 91.1449 104.776 92.6462 105.366 93.9086L108.703 101.056C109.292 102.319 110.793 102.864 112.055 102.275L119.201 98.9373C120.464 98.3478 121.009 96.8465 120.42 95.5841Z" fill="url(#paint8_linear_4399_2073)"/>
<path d="M123.551 11.9513L120.884 9.6908C120.214 9.12375 119.212 9.20668 118.645 9.87604L116.385 12.5444C115.818 13.2138 115.901 14.2161 116.57 14.7831L119.238 17.0437C119.908 17.6107 120.91 17.5278 121.477 16.8584L123.737 14.1901C124.304 13.5207 124.221 12.5184 123.551 11.9513Z" fill="url(#paint9_linear_4399_2073)"/>
<path d="M19.8191 80.3928L19.142 79.3684C18.5933 78.5382 17.4756 78.3102 16.6456 78.859L15.6214 79.5363C14.7914 80.0851 14.5634 81.2031 15.1121 82.0333L15.7892 83.0576C16.338 83.8878 17.4557 84.1159 18.2857 83.567L19.3099 82.8898C20.1399 82.3409 20.3679 81.223 19.8191 80.3928Z" fill="url(#paint10_linear_4399_2073)"/>
<path d="M111.672 29.8727C113.743 29.8727 115.422 28.1934 115.422 26.1219C115.422 24.0504 113.743 22.3711 111.672 22.3711C109.601 22.3711 107.922 24.0504 107.922 26.1219C107.922 28.1934 109.601 29.8727 111.672 29.8727Z" fill="url(#paint11_linear_4399_2073)"/>
<path d="M3.75002 37.3746C5.82111 37.3746 7.50005 35.6954 7.50005 33.6238C7.50005 31.5523 5.82111 29.873 3.75002 29.873C1.67894 29.873 0 31.5523 0 33.6238C0 35.6954 1.67894 37.3746 3.75002 37.3746Z" fill="url(#paint12_linear_4399_2073)"/>
<path d="M36.7951 20.3957C37.9375 20.3957 38.8636 19.4694 38.8636 18.3268C38.8636 17.1841 37.9375 16.2578 36.7951 16.2578C35.6527 16.2578 34.7266 17.1841 34.7266 18.3268C34.7266 19.4694 35.6527 20.3957 36.7951 20.3957Z" fill="url(#paint13_linear_4399_2073)"/>
<path d="M91.4581 104.007C92.7553 104.007 93.8069 102.955 93.8069 101.658C93.8069 100.36 92.7553 99.3086 91.4581 99.3086C90.161 99.3086 89.1094 100.36 89.1094 101.658C89.1094 102.955 90.161 104.007 91.4581 104.007Z" fill="url(#paint14_linear_4399_2073)"/>
</g>
<defs>
<linearGradient id="paint0_linear_4399_2073" x1="65.0834" y1="75.1455" x2="116.1" y2="103.407" gradientUnits="userSpaceOnUse">
<stop stop-color="#FADFDD"/>
<stop offset="0.16" stop-color="#F8D6D4"/>
<stop offset="0.4" stop-color="#F5C0BE"/>
<stop offset="0.7" stop-color="#EF9C9B"/>
<stop offset="0.92" stop-color="#EA7D7C"/>
</linearGradient>
<linearGradient id="paint1_linear_4399_2073" x1="38.383" y1="78.0187" x2="60.0856" y2="90.0412" gradientUnits="userSpaceOnUse">
<stop stop-color="#FADFDD"/>
<stop offset="0.16" stop-color="#F8D6D4"/>
<stop offset="0.4" stop-color="#F5C0BE"/>
<stop offset="0.7" stop-color="#EF9C9B"/>
<stop offset="0.92" stop-color="#EA7D7C"/>
</linearGradient>
<linearGradient id="paint2_linear_4399_2073" x1="57.2655" y1="71.0514" x2="112.785" y2="88.9053" gradientUnits="userSpaceOnUse">
<stop stop-color="#FADFDD"/>
<stop offset="0.16" stop-color="#F8D6D4"/>
<stop offset="0.4" stop-color="#F5C0BE"/>
<stop offset="0.7" stop-color="#EF9C9B"/>
<stop offset="0.92" stop-color="#EA7D7C"/>
</linearGradient>
<linearGradient id="paint3_linear_4399_2073" x1="31.6124" y1="79.0349" x2="55.2433" y2="86.6341" gradientUnits="userSpaceOnUse">
<stop stop-color="#FADFDD"/>
<stop offset="0.16" stop-color="#F8D6D4"/>
<stop offset="0.4" stop-color="#F5C0BE"/>
<stop offset="0.7" stop-color="#EF9C9B"/>
<stop offset="0.92" stop-color="#EA7D7C"/>
</linearGradient>
<linearGradient id="paint4_linear_4399_2073" x1="48.0877" y1="69.3354" x2="108.765" y2="73.982" gradientUnits="userSpaceOnUse">
<stop stop-color="#FADFDD"/>
<stop offset="0.16" stop-color="#F8D6D4"/>
<stop offset="0.4" stop-color="#F5C0BE"/>
<stop offset="0.7" stop-color="#EF9C9B"/>
<stop offset="0.92" stop-color="#EA7D7C"/>
</linearGradient>
<linearGradient id="paint5_linear_4399_2073" x1="23.9938" y1="83.662" x2="49.8081" y2="85.6388" gradientUnits="userSpaceOnUse">
<stop stop-color="#FADFDD"/>
<stop offset="0.16" stop-color="#F8D6D4"/>
<stop offset="0.4" stop-color="#F5C0BE"/>
<stop offset="0.7" stop-color="#EF9C9B"/>
<stop offset="0.92" stop-color="#EA7D7C"/>
</linearGradient>
<linearGradient id="paint6_linear_4399_2073" x1="44.4657" y1="107.685" x2="29.0891" y2="121.19" gradientUnits="userSpaceOnUse">
<stop stop-color="#EE8887"/>
<stop offset="0.37" stop-color="#EE8A89"/>
<stop offset="0.59" stop-color="#EF9291"/>
<stop offset="0.77" stop-color="#F1A0A0"/>
<stop offset="0.87" stop-color="#F3ACAC"/>
</linearGradient>
<linearGradient id="paint7_linear_4399_2073" x1="39.4483" y1="0.35749" x2="43.4551" y2="11.1445" gradientUnits="userSpaceOnUse">
<stop stop-color="#F8D2D1"/>
<stop offset="0.3" stop-color="#F7CFCE"/>
<stop offset="0.48" stop-color="#F6C7C6"/>
<stop offset="0.63" stop-color="#F4B8B8"/>
<stop offset="0.76" stop-color="#F2A4A4"/>
<stop offset="0.87" stop-color="#EF8E8E"/>
</linearGradient>
<linearGradient id="paint8_linear_4399_2073" x1="114.218" y1="86.8427" x2="111.554" y2="102.656" gradientUnits="userSpaceOnUse">
<stop stop-color="#F8D2D1"/>
<stop offset="0.4" stop-color="#F8D4D3"/>
<stop offset="0.63" stop-color="#F9DCDB"/>
<stop offset="0.83" stop-color="#FBEBE9"/>
<stop offset="0.87" stop-color="#FCEFED"/>
</linearGradient>
<linearGradient id="paint9_linear_4399_2073" x1="119.011" y1="9.48591" x2="121.112" y2="17.2483" gradientUnits="userSpaceOnUse">
<stop stop-color="#F8D2D1"/>
<stop offset="0.3" stop-color="#F7CFCE"/>
<stop offset="0.48" stop-color="#F6C7C6"/>
<stop offset="0.63" stop-color="#F4B8B8"/>
<stop offset="0.76" stop-color="#F2A4A4"/>
<stop offset="0.87" stop-color="#EF8E8E"/>
</linearGradient>
<linearGradient id="paint10_linear_4399_2073" x1="17.5166" y1="78.5551" x2="17.4147" y2="83.8709" gradientUnits="userSpaceOnUse">
<stop stop-color="#F8D2D1"/>
<stop offset="0.3" stop-color="#F7CFCE"/>
<stop offset="0.48" stop-color="#F6C7C6"/>
<stop offset="0.63" stop-color="#F4B8B8"/>
<stop offset="0.76" stop-color="#F2A4A4"/>
<stop offset="0.87" stop-color="#EF8E8E"/>
</linearGradient>
<linearGradient id="paint11_linear_4399_2073" x1="108.589" y1="23.9996" x2="114.755" y2="28.243" gradientUnits="userSpaceOnUse">
<stop stop-color="#F5B7B0"/>
<stop offset="0.29" stop-color="#F5B9B2"/>
<stop offset="0.46" stop-color="#F6C0BA"/>
<stop offset="0.6" stop-color="#F8CDC9"/>
<stop offset="0.73" stop-color="#FAE0DD"/>
<stop offset="0.84" stop-color="#FEF8F7"/>
<stop offset="0.87" stop-color="white"/>
</linearGradient>
<linearGradient id="paint12_linear_4399_2073" x1="0.667264" y1="31.4882" x2="6.83361" y2="35.745" gradientUnits="userSpaceOnUse">
<stop stop-color="#F5B7B0"/>
<stop offset="0.29" stop-color="#F5B9B2"/>
<stop offset="0.46" stop-color="#F6C0BA"/>
<stop offset="0.6" stop-color="#F8CDC9"/>
<stop offset="0.73" stop-color="#FAE0DD"/>
<stop offset="0.84" stop-color="#FEF8F7"/>
<stop offset="0.87" stop-color="white"/>
</linearGradient>
<linearGradient id="paint13_linear_4399_2073" x1="35.1002" y1="17.1521" x2="38.5037" y2="19.5007" gradientUnits="userSpaceOnUse">
<stop stop-color="#FBE5E3"/>
<stop offset="0.7" stop-color="#FAE2E0"/>
<stop offset="0.87" stop-color="#FAE0DE"/>
</linearGradient>
<linearGradient id="paint14_linear_4399_2073" x1="89.5364" y1="100.323" x2="93.3937" y2="102.979" gradientUnits="userSpaceOnUse">
<stop stop-color="#F8D2D1"/>
<stop offset="0.3" stop-color="#F7CFCE"/>
<stop offset="0.48" stop-color="#F6C7C6"/>
<stop offset="0.63" stop-color="#F4B8B8"/>
<stop offset="0.76" stop-color="#F2A4A4"/>
<stop offset="0.87" stop-color="#EF8E8E"/>
</linearGradient>
<clipPath id="clip0_4399_2073">
<rect width="134" height="121" fill="white"/>
</clipPath>
</defs>
</svg>
