<svg width="119" height="134" viewBox="0 0 119 134" fill="none" xmlns="http://www.w3.org/2000/svg">
<g clip-path="url(#clip0_4399_2047)">
<path d="M76.7375 100.171L78.2275 99.2597L50.8516 72.5703C55.1086 81.9872 62.8858 91.9246 76.7539 100.187L76.7375 100.171Z" fill="url(#paint0_linear_4399_2047)"/>
<path d="M0.489605 126.633C-1.55704 131.041 3.09293 135.578 7.49731 133.464L14.636 130.032C10.3462 124.974 7.48094 120.062 5.67989 115.443L0.489605 126.633Z" fill="url(#paint1_linear_4399_2047)"/>
<path d="M18.6505 94.7871C18.1429 93.2908 17.7172 91.7945 17.357 90.3145L10.3984 105.31C11.3645 112.58 15.0812 119.818 21.3684 126.795L37.1358 119.216C28.1306 112.564 21.9415 104.383 18.6505 94.7871Z" fill="url(#paint2_linear_4399_2047)"/>
<path d="M35.1649 57.282L33.4621 55.623L26.6836 70.2119C25.6685 76.62 25.5866 84.1828 28.1572 91.6643C31.2681 100.691 37.7846 108.237 47.5594 114.206L64.6529 105.993C43.3024 90.8674 36.7204 71.6107 35.1485 57.2982L35.1649 57.282Z" fill="url(#paint3_linear_4399_2047)"/>
<path d="M64.6692 105.977L76.7362 100.17C62.8682 91.9244 55.0909 81.9871 50.8339 72.5539L35.1484 57.2656C36.7203 71.5943 43.3023 90.851 64.6528 105.96L64.6692 105.977Z" fill="url(#paint4_linear_4399_2047)"/>
<path d="M64.6692 105.977L76.7362 100.17C62.8682 91.9244 55.0909 81.9871 50.8339 72.5539L35.1484 57.2656C36.7203 71.5943 43.3023 90.851 64.6528 105.96L64.6692 105.977Z" fill="url(#paint5_linear_4399_2047)"/>
<path d="M28.1735 91.6653C25.6029 84.1838 25.6684 76.6209 26.6999 70.2129L17.3672 90.3316C17.7274 91.8116 18.1367 93.3079 18.6607 94.8042C21.9517 104.4 28.1407 112.581 37.1459 119.233L47.592 114.207C37.8172 108.255 31.3007 100.692 28.1898 91.6653H28.1735Z" fill="url(#paint6_linear_4399_2047)"/>
<path d="M28.1735 91.6653C25.6029 84.1838 25.6684 76.6209 26.6999 70.2129L17.3672 90.3316C17.7274 91.8116 18.1367 93.3079 18.6607 94.8042C21.9517 104.4 28.1407 112.581 37.1459 119.233L47.592 114.207C37.8172 108.255 31.3007 100.692 28.1898 91.6653H28.1735Z" fill="url(#paint7_linear_4399_2047)"/>
<path d="M5.69531 115.442C7.49636 120.061 10.3617 124.973 14.6514 130.031L21.3644 126.811C15.0771 119.834 11.3604 112.596 10.3944 105.326L5.69531 115.442Z" fill="url(#paint8_linear_4399_2047)"/>
<path d="M5.69531 115.442C7.49636 120.061 10.3617 124.973 14.6514 130.031L21.3644 126.811C15.0771 119.834 11.3604 112.596 10.3944 105.326L5.69531 115.442Z" fill="url(#paint9_linear_4399_2047)"/>
<path d="M16.9485 82.7031C16.9485 82.7031 16.6538 82.9146 16.1953 83.0772C16.1953 83.2073 16.2117 83.3374 16.2281 83.4675C16.5391 83.0935 16.7847 82.8332 16.9485 82.7031Z" fill="url(#paint10_linear_4399_2047)"/>
<path d="M16.9485 82.7031C16.9485 82.7031 16.6538 82.9146 16.1953 83.0772C16.1953 83.2073 16.2117 83.3374 16.2281 83.4675C16.5391 83.0935 16.7847 82.8332 16.9485 82.7031Z" fill="url(#paint11_linear_4399_2047)"/>
<path d="M78.6318 98.9216C82.3915 95.1869 75.4716 82.258 63.1757 70.044C50.8799 57.83 37.8642 50.9562 34.1045 54.6909C30.3447 58.4256 37.2647 71.3545 49.5605 83.5685C61.8564 95.7825 74.872 102.656 78.6318 98.9216Z" fill="#EB6968"/>
<path d="M117.236 96.3997L111.516 90.7185C110.308 89.5181 108.348 89.5181 107.14 90.7185L101.421 96.3997C100.212 97.6002 100.212 99.5465 101.421 100.747L107.14 106.428C108.348 107.629 110.308 107.629 111.516 106.428L117.236 100.747C118.444 99.5465 118.444 97.6002 117.236 96.3997Z" fill="url(#paint12_linear_4399_2047)"/>
<path d="M65.5633 3.7995L60.8999 0.547451C59.5011 -0.427995 57.5711 -0.0923662 56.5891 1.2971L53.3153 5.92946C52.3333 7.31892 52.6712 9.23606 54.07 10.2115L58.7334 13.4636C60.1322 14.439 62.0621 14.1034 63.0441 12.7139L66.318 8.08155C67.3 6.69209 66.9621 4.77495 65.5633 3.7995Z" fill="url(#paint13_linear_4399_2047)"/>
<path d="M49.6426 46.1539L46.3695 43.3995C45.5484 42.7085 44.3189 42.8096 43.6234 43.6252L40.8505 46.8765C40.155 47.6921 40.2567 48.9134 41.0777 49.6043L44.3509 52.3587C45.1719 53.0496 46.4014 52.9486 47.0969 52.133L49.8698 48.8817C50.5654 48.0661 50.4636 46.8448 49.6426 46.1539Z" fill="url(#paint14_linear_4399_2047)"/>
<path d="M7.28414 60.1207L6.4534 58.8726C5.78015 57.861 4.40886 57.5832 3.39054 58.2519L2.13399 59.0771C1.11567 59.7459 0.835933 61.108 1.50918 62.1196L2.33992 63.3678C3.01317 64.3793 4.38446 64.6572 5.40278 63.9884L6.65932 63.1632C7.67765 62.4944 7.95738 61.1323 7.28414 60.1207Z" fill="url(#paint15_linear_4399_2047)"/>
<path d="M100.187 32.3006C102.728 32.3006 104.788 30.2544 104.788 27.7304C104.788 25.2063 102.728 23.1602 100.187 23.1602C97.6458 23.1602 95.5859 25.2063 95.5859 27.7304C95.5859 30.2544 97.6458 32.3006 100.187 32.3006Z" fill="url(#paint16_linear_4399_2047)"/>
<path d="M27.491 30.2509C28.8926 30.2509 30.0288 29.1222 30.0288 27.7299C30.0288 26.3376 28.8926 25.209 27.491 25.209C26.0894 25.209 24.9531 26.3376 24.9531 27.7299C24.9531 29.1222 26.0894 30.2509 27.491 30.2509Z" fill="url(#paint17_linear_4399_2047)"/>
<path d="M86.077 117.703C87.6685 117.703 88.9587 116.422 88.9587 114.841C88.9587 113.26 87.6685 111.979 86.077 111.979C84.4855 111.979 83.1953 113.26 83.1953 114.841C83.1953 116.422 84.4855 117.703 86.077 117.703Z" fill="url(#paint18_linear_4399_2047)"/>
<path d="M95.1759 83.4681C94.5701 83.4681 93.9479 83.3542 93.3748 83.1265C91.7048 82.476 90.5423 80.9634 90.3131 79.2069L88.8067 67.4805L81.2587 72.441C78.9992 73.921 75.9538 73.303 74.4475 71.0586C72.9575 68.8141 73.5633 65.789 75.8392 64.2927L89.9856 55.0059C91.3937 54.0788 93.1947 53.9325 94.7502 54.6318C96.2893 55.3312 97.3699 56.7787 97.5827 58.4539L98.9581 69.1719L110.992 59.2996C113.088 57.5919 116.183 57.8684 117.902 59.9502C119.637 62.032 119.343 65.1059 117.247 66.8136L98.3359 82.3296C97.4354 83.0615 96.3384 83.4518 95.2086 83.4518L95.1759 83.4681Z" fill="url(#paint19_linear_4399_2047)"/>
<path d="M48.1691 74.0334C46.9738 74.0334 45.7786 73.6106 44.8453 72.7486C42.8478 70.927 42.7332 67.8368 44.567 65.8526L59.5157 49.7511L51.1817 33.9587C49.9865 31.6979 50.756 28.9168 52.9173 27.5669L72.0247 15.6615C74.3334 14.2303 77.3624 14.9134 78.8032 17.2066C80.2441 19.4836 79.5564 22.5087 77.2478 23.94L61.988 33.4545L69.8307 48.3036C70.7968 50.1252 70.502 52.3534 69.0939 53.8822L51.8039 72.5209C50.8379 73.5618 49.5117 74.0985 48.1854 74.0985L48.1691 74.0334Z" fill="url(#paint20_linear_4399_2047)"/>
</g>
<defs>
<linearGradient id="paint0_linear_4399_2047" x1="10.0661" y1="49.6867" x2="100.17" y2="112.216" gradientUnits="userSpaceOnUse">
<stop stop-color="#F2C9C4"/>
<stop offset="0.19" stop-color="#F1C6C1"/>
<stop offset="0.3" stop-color="#F1BEB9"/>
<stop offset="0.4" stop-color="#EFAFAB"/>
<stop offset="0.48" stop-color="#EE9B97"/>
<stop offset="0.55" stop-color="#EB817E"/>
<stop offset="0.62" stop-color="#E9615F"/>
<stop offset="0.63" stop-color="#E95E5C"/>
</linearGradient>
<linearGradient id="paint1_linear_4399_2047" x1="-27.1646" y1="102.936" x2="63.4121" y2="165.777" gradientUnits="userSpaceOnUse">
<stop stop-color="#F2C9C4"/>
<stop offset="0.19" stop-color="#F1C6C1"/>
<stop offset="0.3" stop-color="#F1BEB9"/>
<stop offset="0.4" stop-color="#EFAFAB"/>
<stop offset="0.48" stop-color="#EE9B97"/>
<stop offset="0.55" stop-color="#EB817E"/>
<stop offset="0.62" stop-color="#E9615F"/>
<stop offset="0.63" stop-color="#E95E5C"/>
</linearGradient>
<linearGradient id="paint2_linear_4399_2047" x1="-14.8326" y1="85.1587" x2="75.7442" y2="148" gradientUnits="userSpaceOnUse">
<stop stop-color="#F2C9C4"/>
<stop offset="0.19" stop-color="#F1C6C1"/>
<stop offset="0.3" stop-color="#F1BEB9"/>
<stop offset="0.4" stop-color="#EFAFAB"/>
<stop offset="0.48" stop-color="#EE9B97"/>
<stop offset="0.55" stop-color="#EB817E"/>
<stop offset="0.62" stop-color="#E9615F"/>
<stop offset="0.63" stop-color="#E95E5C"/>
</linearGradient>
<linearGradient id="paint3_linear_4399_2047" x1="3.07355" y1="59.3313" x2="93.6668" y2="122.172" gradientUnits="userSpaceOnUse">
<stop stop-color="#F2C9C4"/>
<stop offset="0.19" stop-color="#F1C6C1"/>
<stop offset="0.3" stop-color="#F1BEB9"/>
<stop offset="0.4" stop-color="#EFAFAB"/>
<stop offset="0.48" stop-color="#EE9B97"/>
<stop offset="0.55" stop-color="#EB817E"/>
<stop offset="0.62" stop-color="#E9615F"/>
<stop offset="0.63" stop-color="#E95E5C"/>
</linearGradient>
<linearGradient id="paint4_linear_4399_2047" x1="7.67431" y1="52.7117" x2="98.2511" y2="115.552" gradientUnits="userSpaceOnUse">
<stop stop-color="#F2C9C4"/>
<stop offset="0.19" stop-color="#F1C6C1"/>
<stop offset="0.3" stop-color="#F1BEB9"/>
<stop offset="0.4" stop-color="#EFAFAB"/>
<stop offset="0.48" stop-color="#EE9B97"/>
<stop offset="0.55" stop-color="#EB817E"/>
<stop offset="0.62" stop-color="#E9615F"/>
<stop offset="0.63" stop-color="#E95E5C"/>
</linearGradient>
<linearGradient id="paint5_linear_4399_2047" x1="19.4466" y1="60.7787" x2="89.2704" y2="109.21" gradientUnits="userSpaceOnUse">
<stop stop-color="white"/>
<stop offset="0.25" stop-color="#FDFCFC"/>
<stop offset="0.4" stop-color="#FAF4F4"/>
<stop offset="0.52" stop-color="#F4E5E7"/>
<stop offset="0.63" stop-color="#ECD2D4"/>
</linearGradient>
<linearGradient id="paint6_linear_4399_2047" x1="-4.2781" y1="69.9364" x2="86.2987" y2="132.777" gradientUnits="userSpaceOnUse">
<stop stop-color="#F2C9C4"/>
<stop offset="0.19" stop-color="#F1C6C1"/>
<stop offset="0.3" stop-color="#F1BEB9"/>
<stop offset="0.4" stop-color="#EFAFAB"/>
<stop offset="0.48" stop-color="#EE9B97"/>
<stop offset="0.55" stop-color="#EB817E"/>
<stop offset="0.62" stop-color="#E9615F"/>
<stop offset="0.63" stop-color="#E95E5C"/>
</linearGradient>
<linearGradient id="paint7_linear_4399_2047" x1="3.97666" y1="69.9548" x2="58.6578" y2="119.466" gradientUnits="userSpaceOnUse">
<stop stop-color="white"/>
<stop offset="0.25" stop-color="#FDFCFC"/>
<stop offset="0.4" stop-color="#FAF4F4"/>
<stop offset="0.52" stop-color="#F4E5E7"/>
<stop offset="0.63" stop-color="#ECD2D4"/>
</linearGradient>
<linearGradient id="paint8_linear_4399_2047" x1="-21.3204" y1="94.5105" x2="69.2564" y2="157.351" gradientUnits="userSpaceOnUse">
<stop stop-color="#F2C9C4"/>
<stop offset="0.19" stop-color="#F1C6C1"/>
<stop offset="0.3" stop-color="#F1BEB9"/>
<stop offset="0.4" stop-color="#EFAFAB"/>
<stop offset="0.48" stop-color="#EE9B97"/>
<stop offset="0.55" stop-color="#EB817E"/>
<stop offset="0.62" stop-color="#E9615F"/>
<stop offset="0.63" stop-color="#E95E5C"/>
</linearGradient>
<linearGradient id="paint9_linear_4399_2047" x1="-7.11873" y1="91.9689" x2="34.8782" y2="147.843" gradientUnits="userSpaceOnUse">
<stop stop-color="white"/>
<stop offset="0.25" stop-color="#FDFCFC"/>
<stop offset="0.4" stop-color="#FAF4F4"/>
<stop offset="0.52" stop-color="#F4E5E7"/>
<stop offset="0.63" stop-color="#ECD2D4"/>
</linearGradient>
<linearGradient id="paint10_linear_4399_2047" x1="3.03832" y1="70.9966" x2="57.7196" y2="120.508" gradientUnits="userSpaceOnUse">
<stop stop-color="white"/>
<stop offset="0.25" stop-color="#FDFCFC"/>
<stop offset="0.4" stop-color="#FAF4F4"/>
<stop offset="0.52" stop-color="#F4E5E7"/>
<stop offset="0.63" stop-color="#ECD2D4"/>
</linearGradient>
<linearGradient id="paint11_linear_4399_2047" x1="12.26" y1="77.4029" x2="54.2725" y2="133.282" gradientUnits="userSpaceOnUse">
<stop stop-color="white"/>
<stop offset="0.25" stop-color="#FDFCFC"/>
<stop offset="0.4" stop-color="#FAF4F4"/>
<stop offset="0.52" stop-color="#F4E5E7"/>
<stop offset="0.63" stop-color="#ECD2D4"/>
</linearGradient>
<linearGradient id="paint12_linear_4399_2047" x1="117.86" y1="91.1192" x2="99.1242" y2="107.686" gradientUnits="userSpaceOnUse">
<stop stop-color="#EE8887"/>
<stop offset="0.37" stop-color="#EE8A89"/>
<stop offset="0.59" stop-color="#EF9291"/>
<stop offset="0.77" stop-color="#F1A0A0"/>
<stop offset="0.87" stop-color="#F3ACAC"/>
</linearGradient>
<linearGradient id="paint13_linear_4399_2047" x1="57.3549" y1="0.440063" x2="62.1983" y2="13.596" gradientUnits="userSpaceOnUse">
<stop stop-color="#F8D2D1"/>
<stop offset="0.3" stop-color="#F7CFCE"/>
<stop offset="0.48" stop-color="#F6C7C6"/>
<stop offset="0.63" stop-color="#F4B8B8"/>
<stop offset="0.76" stop-color="#F2A4A4"/>
<stop offset="0.87" stop-color="#EF8E8E"/>
</linearGradient>
<linearGradient id="paint14_linear_4399_2047" x1="44.0717" y1="43.1498" x2="46.6167" y2="52.6169" gradientUnits="userSpaceOnUse">
<stop stop-color="#F8D2D1"/>
<stop offset="0.3" stop-color="#F7CFCE"/>
<stop offset="0.48" stop-color="#F6C7C6"/>
<stop offset="0.63" stop-color="#F4B8B8"/>
<stop offset="0.76" stop-color="#F2A4A4"/>
<stop offset="0.87" stop-color="#EF8E8E"/>
</linearGradient>
<linearGradient id="paint15_linear_4399_2047" x1="4.45913" y1="57.8816" x2="4.34932" y2="64.3498" gradientUnits="userSpaceOnUse">
<stop stop-color="#F8D2D1"/>
<stop offset="0.3" stop-color="#F7CFCE"/>
<stop offset="0.48" stop-color="#F6C7C6"/>
<stop offset="0.63" stop-color="#F4B8B8"/>
<stop offset="0.76" stop-color="#F2A4A4"/>
<stop offset="0.87" stop-color="#EF8E8E"/>
</linearGradient>
<linearGradient id="paint16_linear_4399_2047" x1="96.3882" y1="25.1281" x2="103.936" y2="30.3635" gradientUnits="userSpaceOnUse">
<stop stop-color="#F5B7B0"/>
<stop offset="0.35" stop-color="#F4B4AD"/>
<stop offset="0.57" stop-color="#F3ACA6"/>
<stop offset="0.74" stop-color="#F19D9B"/>
<stop offset="0.87" stop-color="#EF8E8E"/>
</linearGradient>
<linearGradient id="paint17_linear_4399_2047" x1="25.3952" y1="26.2987" x2="29.5687" y2="29.1872" gradientUnits="userSpaceOnUse">
<stop stop-color="#FBE5E3"/>
<stop offset="0.7" stop-color="#FAE2E0"/>
<stop offset="0.87" stop-color="#FAE0DE"/>
</linearGradient>
<linearGradient id="paint18_linear_4399_2047" x1="83.7029" y1="113.215" x2="88.4306" y2="116.497" gradientUnits="userSpaceOnUse">
<stop stop-color="#F8D2D1"/>
<stop offset="0.3" stop-color="#F7CFCE"/>
<stop offset="0.48" stop-color="#F6C7C6"/>
<stop offset="0.63" stop-color="#F4B8B8"/>
<stop offset="0.76" stop-color="#F2A4A4"/>
<stop offset="0.87" stop-color="#EF8E8E"/>
</linearGradient>
<linearGradient id="paint19_linear_4399_2047" x1="79.1466" y1="76.0679" x2="119.744" y2="55.9293" gradientUnits="userSpaceOnUse">
<stop stop-color="#F8D2D1"/>
<stop offset="0.83" stop-color="#EB6968"/>
</linearGradient>
<linearGradient id="paint20_linear_4399_2047" x1="43.2571" y1="44.4653" x2="79.54" y2="44.4653" gradientUnits="userSpaceOnUse">
<stop stop-color="white"/>
<stop offset="1" stop-color="#EB6968"/>
</linearGradient>
<clipPath id="clip0_4399_2047">
<rect width="119" height="134" fill="white"/>
</clipPath>
</defs>
</svg>
