<svg width="67" height="55" viewBox="0 0 67 55" fill="none" xmlns="http://www.w3.org/2000/svg">
<g clip-path="url(#clip0_4399_6566)">
<path d="M57.8457 41.2986C60.1627 38.5357 61.5083 35.2924 61.5083 31.8089C61.5083 27.2763 59.2311 23.1361 55.4809 19.9648C55.7118 20.9979 55.8313 22.055 55.8313 23.1361C55.8313 33.9871 43.8402 42.7881 29.0385 42.7881C24.0382 42.7881 19.3564 41.7791 15.3515 40.0253L14.9932 40.2175C19.1255 45.9753 27.3505 49.9073 36.8335 49.9073C41.4436 49.9073 45.7511 48.9784 49.4376 47.3687L57.782 51.8293C58.6976 52.3178 59.7646 51.525 59.5735 50.5079L57.8377 41.3066L57.8457 41.2986Z" fill="url(#paint0_linear_4399_6566)"/>
<path d="M28.871 4.78125C15.2477 4.78125 4.2041 12.8855 4.2041 22.8797C4.2041 26.3632 5.54971 29.6065 7.86671 32.3693L6.13095 41.5707C5.93986 42.5958 7.00679 43.3806 7.92245 42.8921L16.2668 38.4315C19.9533 40.0412 24.2688 40.9701 28.871 40.9701C42.4943 40.9701 53.5378 32.8658 53.5378 22.8717C53.5378 12.8775 42.4943 4.78125 28.871 4.78125Z" fill="url(#paint1_linear_4399_6566)"/>
<path d="M16.1078 27.2041C17.5237 27.2041 18.6716 26.0496 18.6716 24.6255C18.6716 23.2014 17.5237 22.0469 16.1078 22.0469C14.6918 22.0469 13.5439 23.2014 13.5439 24.6255C13.5439 26.0496 14.6918 27.2041 16.1078 27.2041Z" fill="#FCEEEC"/>
<path d="M28.807 27.2041C30.223 27.2041 31.3708 26.0496 31.3708 24.6255C31.3708 23.2014 30.223 22.0469 28.807 22.0469C27.391 22.0469 26.2432 23.2014 26.2432 24.6255C26.2432 26.0496 27.391 27.2041 28.807 27.2041Z" fill="#FCEEEC"/>
<path d="M41.4593 27.2041C42.8753 27.2041 44.0232 26.0496 44.0232 24.6255C44.0232 23.2014 42.8753 22.0469 41.4593 22.0469C40.0434 22.0469 38.8955 23.2014 38.8955 24.6255C38.8955 26.0496 40.0434 27.2041 41.4593 27.2041Z" fill="#FCEEEC"/>
<path d="M7.35392 2.33993L4.42794 0.273942C3.74772 -0.20635 2.80917 -0.041092 2.33163 0.643056L0.277508 3.58593C-0.200027 4.27007 -0.0357177 5.21404 0.644503 5.69433L3.57048 7.76031C4.25071 8.24061 5.18925 8.07535 5.66679 7.3912L7.72091 4.44833C8.19845 3.76418 8.03414 2.82022 7.35392 2.33993Z" fill="url(#paint2_linear_4399_6566)"/>
<path d="M63.2378 37.1561L61.2111 35.7251C60.5309 35.2448 59.5924 35.4101 59.1148 36.0942L57.692 38.1326C57.2145 38.8168 57.3788 39.7607 58.059 40.241L60.0857 41.672C60.7659 42.1523 61.7045 41.9871 62.182 41.3029L63.6048 39.2645C64.0824 38.5804 63.918 37.6364 63.2378 37.1561Z" fill="url(#paint3_linear_4399_6566)"/>
<path d="M60.7487 5.18896L58.9228 1.25616C58.5712 0.498761 57.6757 0.171468 56.9226 0.525134L53.0124 2.36153C52.2593 2.7152 51.9339 3.6159 52.2855 4.3733L54.1114 8.3061C54.463 9.0635 55.3586 9.3908 56.1116 9.03713L60.0219 7.20073C60.7749 6.84706 61.1003 5.94637 60.7487 5.18896Z" fill="url(#paint4_linear_4399_6566)"/>
<path d="M65.8803 19.7771L64.4466 18.5554C64.0473 18.2152 63.4494 18.265 63.1112 18.6666L61.8966 20.1086C61.5583 20.5102 61.6078 21.1115 62.0071 21.4517L63.4408 22.6733C63.8401 23.0135 64.438 22.9638 64.7762 22.5622L65.9908 21.1202C66.3291 20.7186 66.2796 20.1173 65.8803 19.7771Z" fill="url(#paint5_linear_4399_6566)"/>
<path d="M43.2747 52.995L42.9541 52.5073C42.6267 52.0092 41.9599 51.8724 41.4647 52.2017L40.9798 52.5241C40.4846 52.8534 40.3486 53.5241 40.676 54.0222L40.9965 54.5098C41.3239 55.0079 41.9908 55.1447 42.486 54.8154L42.9708 54.493C43.466 54.1637 43.6021 53.493 43.2747 52.995Z" fill="url(#paint6_linear_4399_6566)"/>
<path d="M43.5056 10.8189C44.6753 10.8189 45.6236 9.86522 45.6236 8.68876C45.6236 7.5123 44.6753 6.55859 43.5056 6.55859C42.3359 6.55859 41.3877 7.5123 41.3877 8.68876C41.3877 9.86522 42.3359 10.8189 43.5056 10.8189Z" fill="url(#paint7_linear_4399_6566)"/>
<path d="M3.17654 38.5435C4.34624 38.5435 5.29448 37.5898 5.29448 36.4134C5.29448 35.2369 4.34624 34.2832 3.17654 34.2832C2.00683 34.2832 1.05859 35.2369 1.05859 36.4134C1.05859 37.5898 2.00683 38.5435 3.17654 38.5435Z" fill="url(#paint8_linear_4399_6566)"/>
<path d="M14.4908 7.56729C15.1372 7.56729 15.6612 7.04024 15.6612 6.39009C15.6612 5.73994 15.1372 5.21289 14.4908 5.21289C13.8443 5.21289 13.3203 5.73994 13.3203 6.39009C13.3203 7.04024 13.8443 7.56729 14.4908 7.56729Z" fill="url(#paint9_linear_4399_6566)"/>
<path d="M63.9439 46.1435C64.6783 46.1435 65.2736 45.5447 65.2736 44.8061C65.2736 44.0675 64.6783 43.4688 63.9439 43.4688C63.2096 43.4688 62.6143 44.0675 62.6143 44.8061C62.6143 45.5447 63.2096 46.1435 63.9439 46.1435Z" fill="url(#paint10_linear_4399_6566)"/>
</g>
<defs>
<linearGradient id="paint0_linear_4399_6566" x1="62.201" y1="28.5416" x2="24.6243" y2="54.2859" gradientUnits="userSpaceOnUse">
<stop stop-color="#EEBCBA"/>
<stop offset="0.22" stop-color="#ED9896"/>
<stop offset="0.42" stop-color="#EC7E7D"/>
<stop offset="0.59" stop-color="#EB6E6D"/>
<stop offset="0.73" stop-color="#EB6968"/>
</linearGradient>
<linearGradient id="paint1_linear_4399_6566" x1="7.72339" y1="13.4381" x2="45.3082" y2="39.1983" gradientUnits="userSpaceOnUse">
<stop stop-color="#F0B4B0"/>
<stop offset="0.18" stop-color="#EFABA7"/>
<stop offset="0.48" stop-color="#ED9290"/>
<stop offset="0.85" stop-color="#EB6B6A"/>
<stop offset="0.87" stop-color="#EB6968"/>
</linearGradient>
<linearGradient id="paint2_linear_4399_6566" x1="7.27499" y1="-0.0808012" x2="-0.00911386" y2="8.9404" gradientUnits="userSpaceOnUse">
<stop stop-color="#F5CFCD"/>
<stop offset="0.29" stop-color="#F4C2C0"/>
<stop offset="0.87" stop-color="#F3ACAC"/>
</linearGradient>
<linearGradient id="paint3_linear_4399_6566" x1="59.5231" y1="35.6487" x2="61.7927" y2="41.7176" gradientUnits="userSpaceOnUse">
<stop stop-color="#F8D2D1"/>
<stop offset="0.3" stop-color="#F7CFCE"/>
<stop offset="0.48" stop-color="#F6C7C6"/>
<stop offset="0.63" stop-color="#F4B8B8"/>
<stop offset="0.76" stop-color="#F2A4A4"/>
<stop offset="0.87" stop-color="#EF8E8E"/>
</linearGradient>
<linearGradient id="paint4_linear_4399_6566" x1="57.2631" y1="0.312188" x2="55.7582" y2="9.23661" gradientUnits="userSpaceOnUse">
<stop stop-color="#F8D2D1"/>
<stop offset="0.4" stop-color="#F8D4D3"/>
<stop offset="0.63" stop-color="#F9DCDB"/>
<stop offset="0.83" stop-color="#FBEBE9"/>
<stop offset="0.87" stop-color="#FCEFED"/>
</linearGradient>
<linearGradient id="paint5_linear_4399_6566" x1="63.3456" y1="18.4255" x2="64.5372" y2="22.7956" gradientUnits="userSpaceOnUse">
<stop stop-color="#F8D2D1"/>
<stop offset="0.3" stop-color="#F7CFCE"/>
<stop offset="0.48" stop-color="#F6C7C6"/>
<stop offset="0.63" stop-color="#F4B8B8"/>
<stop offset="0.76" stop-color="#F2A4A4"/>
<stop offset="0.87" stop-color="#EF8E8E"/>
</linearGradient>
<linearGradient id="paint6_linear_4399_6566" x1="42.013" y1="52.0195" x2="41.9546" y2="54.9955" gradientUnits="userSpaceOnUse">
<stop stop-color="#F8D2D1"/>
<stop offset="0.3" stop-color="#F7CFCE"/>
<stop offset="0.48" stop-color="#F6C7C6"/>
<stop offset="0.63" stop-color="#F4B8B8"/>
<stop offset="0.76" stop-color="#F2A4A4"/>
<stop offset="0.87" stop-color="#EF8E8E"/>
</linearGradient>
<linearGradient id="paint7_linear_4399_6566" x1="41.7619" y1="7.47953" x2="45.2623" y2="9.88715" gradientUnits="userSpaceOnUse">
<stop stop-color="#F5B7B0"/>
<stop offset="0.29" stop-color="#F5B9B2"/>
<stop offset="0.46" stop-color="#F6C0BA"/>
<stop offset="0.6" stop-color="#F8CDC9"/>
<stop offset="0.73" stop-color="#FAE0DD"/>
<stop offset="0.84" stop-color="#FEF8F7"/>
<stop offset="0.87" stop-color="white"/>
</linearGradient>
<linearGradient id="paint8_linear_4399_6566" x1="1.42485" y1="35.1961" x2="4.93321" y2="37.6037" gradientUnits="userSpaceOnUse">
<stop stop-color="#F5B7B0"/>
<stop offset="0.29" stop-color="#F5B9B2"/>
<stop offset="0.46" stop-color="#F6C0BA"/>
<stop offset="0.6" stop-color="#F8CDC9"/>
<stop offset="0.73" stop-color="#FAE0DD"/>
<stop offset="0.84" stop-color="#FEF8F7"/>
<stop offset="0.87" stop-color="white"/>
</linearGradient>
<linearGradient id="paint9_linear_4399_6566" x1="13.5273" y1="5.72541" x2="15.4613" y2="7.05237" gradientUnits="userSpaceOnUse">
<stop stop-color="#FBE5E3"/>
<stop offset="0.7" stop-color="#FAE2E0"/>
<stop offset="0.87" stop-color="#FAE0DE"/>
</linearGradient>
<linearGradient id="paint10_linear_4399_6566" x1="62.8452" y1="44.0453" x2="65.0429" y2="45.5551" gradientUnits="userSpaceOnUse">
<stop stop-color="#F8D2D1"/>
<stop offset="0.3" stop-color="#F7CFCE"/>
<stop offset="0.48" stop-color="#F6C7C6"/>
<stop offset="0.63" stop-color="#F4B8B8"/>
<stop offset="0.76" stop-color="#F2A4A4"/>
<stop offset="0.87" stop-color="#EF8E8E"/>
</linearGradient>
<clipPath id="clip0_4399_6566">
<rect width="66.2136" height="55" fill="white"/>
</clipPath>
</defs>
</svg>
