<svg width="51" height="65" viewBox="0 0 51 65" fill="none" xmlns="http://www.w3.org/2000/svg">
<g clip-path="url(#clip0_4399_6537)">
<path d="M25.9302 0C23.5606 0 21.6348 2.08312 21.6348 4.64634C21.6348 7.20956 23.5606 9.29269 25.9302 9.29269C28.2999 9.29269 30.2257 7.20956 30.2257 4.64634C30.2257 2.08312 28.2999 0 25.9302 0ZM25.9302 7.2828C24.5837 7.2828 23.4929 6.1029 23.4929 4.64634C23.4929 3.18978 24.5837 2.00989 25.9302 2.00989C27.2768 2.00989 28.3676 3.18978 28.3676 4.64634C28.3676 6.1029 27.2768 7.2828 25.9302 7.2828Z" fill="url(#paint0_linear_4399_6537)"/>
<path d="M25.9536 58.7826C29.1111 58.7826 31.6708 56.0138 31.6708 52.5983C31.6708 49.1829 29.1111 46.4141 25.9536 46.4141C22.796 46.4141 20.2363 49.1829 20.2363 52.5983C20.2363 56.0138 22.796 58.7826 25.9536 58.7826Z" fill="url(#paint1_linear_4399_6537)"/>
<path d="M46.941 43.8276C46.941 43.5428 46.9485 43.2662 46.9485 42.9814C46.9485 21.8735 41.9986 6.44531 25.9226 6.44531C9.84669 6.44531 4.9043 21.8653 4.9043 42.9732C4.9043 43.258 4.9043 43.5347 4.91182 43.8195H46.941V43.8276Z" fill="url(#paint2_linear_4399_6537)"/>
<path d="M47.4681 52.3546H4.38581C2.37726 52.3546 0.910337 50.4017 1.42188 48.3999L2.83614 42.8422C3.18971 41.4508 4.40838 40.4824 5.80007 40.4824H45.8508C47.2049 40.4824 48.401 41.3938 48.7846 42.7364L50.402 48.2941C50.9888 50.3203 49.5218 52.3546 47.4681 52.3546Z" fill="url(#paint3_linear_4399_6537)"/>
<path d="M41.6074 23.1257C46.5349 23.1257 50.5293 18.8049 50.5293 13.4749C50.5293 8.145 46.5349 3.82422 41.6074 3.82422C36.68 3.82422 32.6855 8.145 32.6855 13.4749C32.6855 18.8049 36.68 23.1257 41.6074 23.1257Z" fill="url(#paint4_linear_4399_6537)"/>
<path d="M50.5843 52.1311L47.9565 49.2887C47.4013 48.6881 46.5011 48.6881 45.9458 49.2887L43.3181 52.1311C42.7628 52.7317 42.7628 53.7054 43.3181 54.306L45.9458 57.1484C46.5011 57.749 47.4013 57.749 47.9565 57.1484L50.5843 54.306C51.1395 53.7054 51.1395 52.7317 50.5843 52.1311Z" fill="url(#paint5_linear_4399_6537)"/>
<path d="M11.3473 13.8427L9.20468 12.2157C8.562 11.7277 7.67527 11.8956 7.22409 12.5908L5.71991 14.9084C5.26874 15.6036 5.42398 16.5627 6.06665 17.0508L8.20926 18.6778C8.85194 19.1659 9.73867 18.9979 10.1898 18.3028L11.694 15.9851C12.1452 15.29 11.99 14.3308 11.3473 13.8427Z" fill="url(#paint6_linear_4399_6537)"/>
<path d="M35.3187 60.9923L33.3831 60.5906C32.8975 60.4899 32.4284 60.834 32.3352 61.3592L31.9639 63.453C31.8707 63.9782 32.1888 64.4856 32.6744 64.5864L34.61 64.9881C35.0956 65.0888 35.5647 64.7447 35.6579 64.2195L36.0292 62.1257C36.1224 61.6005 35.8043 61.0931 35.3187 60.9923Z" fill="url(#paint7_linear_4399_6537)"/>
<path d="M49.8304 25.617L49.4488 24.9925C49.1394 24.4864 48.5094 24.3474 48.0415 24.682L47.4642 25.0949C46.9963 25.4295 46.8678 26.111 47.1771 26.6171L47.5588 27.2416C47.8681 27.7476 48.4982 27.8867 48.966 27.5521L49.5434 27.1392C50.0112 26.8046 50.1398 26.1231 49.8304 25.617Z" fill="url(#paint8_linear_4399_6537)"/>
<path d="M9.90782 9.95983C11.0753 9.95983 12.0217 8.9361 12.0217 7.67327C12.0217 6.41044 11.0753 5.38672 9.90782 5.38672C8.74036 5.38672 7.79395 6.41044 7.79395 7.67327C7.79395 8.9361 8.74036 9.95983 9.90782 9.95983Z" fill="url(#paint9_linear_4399_6537)"/>
<path d="M38.2529 60.044C38.8969 60.044 39.4189 59.4793 39.4189 58.7827C39.4189 58.0862 38.8969 57.5215 38.2529 57.5215C37.609 57.5215 37.0869 58.0862 37.0869 58.7827C37.0869 59.4793 37.609 60.044 38.2529 60.044Z" fill="url(#paint10_linear_4399_6537)"/>
<path d="M1.32399 35.169C2.05521 35.169 2.64798 34.5278 2.64798 33.7368C2.64798 32.9459 2.05521 32.3047 1.32399 32.3047C0.592771 32.3047 0 32.9459 0 33.7368C0 34.5278 0.592771 35.169 1.32399 35.169Z" fill="url(#paint11_linear_4399_6537)"/>
</g>
<defs>
<linearGradient id="paint0_linear_4399_6537" x1="21.1608" y1="0.292939" x2="30.425" y2="7.52505" gradientUnits="userSpaceOnUse">
<stop stop-color="#FFBFBC"/>
<stop offset="0.29" stop-color="#FFD4D2"/>
<stop offset="0.58" stop-color="#FFEFED"/>
<stop offset="0.71" stop-color="#FFD5D3"/>
<stop offset="0.84" stop-color="#FFC4C2"/>
<stop offset="0.94" stop-color="#FFBFBC"/>
</linearGradient>
<linearGradient id="paint1_linear_4399_6537" x1="25.8708" y1="43.4277" x2="26.0556" y2="60.3609" gradientUnits="userSpaceOnUse">
<stop stop-color="#FFAAAA"/>
<stop offset="0.31" stop-color="#FFACAC"/>
<stop offset="0.52" stop-color="#FFB5B5"/>
<stop offset="0.7" stop-color="#FFC4C3"/>
<stop offset="0.86" stop-color="#FFD9D8"/>
<stop offset="0.98" stop-color="#FFEFED"/>
</linearGradient>
<linearGradient id="paint2_linear_4399_6537" x1="35.988" y1="44.7227" x2="-0.537117" y2="6.93858" gradientUnits="userSpaceOnUse">
<stop stop-color="#FFBFBC"/>
<stop offset="0.16" stop-color="#FFC6C3"/>
<stop offset="0.4" stop-color="#FFDBD9"/>
<stop offset="0.58" stop-color="#FFEFED"/>
<stop offset="0.72" stop-color="#FFECEA"/>
<stop offset="0.8" stop-color="#FFE4E2"/>
<stop offset="0.87" stop-color="#FFD6D4"/>
<stop offset="0.93" stop-color="#FFC3C0"/>
<stop offset="0.94" stop-color="#FFBFBC"/>
</linearGradient>
<linearGradient id="paint3_linear_4399_6537" x1="59.5345" y1="46.5284" x2="-18.1898" y2="46.3128" gradientUnits="userSpaceOnUse">
<stop stop-color="#FFBFBC"/>
<stop offset="0.36" stop-color="#FFE1DE"/>
<stop offset="0.57" stop-color="#FFEFED"/>
<stop offset="0.75" stop-color="#FFDAD7"/>
<stop offset="0.94" stop-color="#FFBFBC"/>
</linearGradient>
<linearGradient id="paint4_linear_4399_6537" x1="31.7151" y1="4.43451" x2="50.956" y2="19.4538" gradientUnits="userSpaceOnUse">
<stop stop-color="#F67676"/>
<stop offset="0.4" stop-color="#F47373"/>
<stop offset="0.67" stop-color="#F06A6A"/>
<stop offset="0.89" stop-color="#E95B5B"/>
<stop offset="0.98" stop-color="#E65353"/>
</linearGradient>
<linearGradient id="paint5_linear_4399_6537" x1="50.8733" y1="49.4915" x2="41.6296" y2="56.9976" gradientUnits="userSpaceOnUse">
<stop stop-color="#F67676"/>
<stop offset="0.32" stop-color="#F57878"/>
<stop offset="0.52" stop-color="#F58080"/>
<stop offset="0.68" stop-color="#F48F8F"/>
<stop offset="0.82" stop-color="#F3A3A3"/>
<stop offset="0.87" stop-color="#F3ACAC"/>
</linearGradient>
<linearGradient id="paint6_linear_4399_6537" x1="7.58207" y1="12.1666" x2="10.1636" y2="18.606" gradientUnits="userSpaceOnUse">
<stop stop-color="#F8D2D1"/>
<stop offset="0.19" stop-color="#F6C9C9"/>
<stop offset="0.48" stop-color="#F4B4B3"/>
<stop offset="0.85" stop-color="#EF9090"/>
<stop offset="0.87" stop-color="#EF8E8E"/>
</linearGradient>
<linearGradient id="paint7_linear_4399_6537" x1="32.4007" y1="61.0331" x2="35.8338" y2="64.2568" gradientUnits="userSpaceOnUse">
<stop stop-color="#F8D2D1"/>
<stop offset="0.3" stop-color="#F7CFCE"/>
<stop offset="0.48" stop-color="#F6C7C6"/>
<stop offset="0.63" stop-color="#F4B8B8"/>
<stop offset="0.76" stop-color="#F2A4A4"/>
<stop offset="0.87" stop-color="#EF8E8E"/>
</linearGradient>
<linearGradient id="paint8_linear_4399_6537" x1="48.5262" y1="24.5012" x2="48.4615" y2="27.7304" gradientUnits="userSpaceOnUse">
<stop stop-color="#F8D2D1"/>
<stop offset="0.3" stop-color="#F7CFCE"/>
<stop offset="0.48" stop-color="#F6C7C6"/>
<stop offset="0.63" stop-color="#F4B8B8"/>
<stop offset="0.76" stop-color="#F2A4A4"/>
<stop offset="0.87" stop-color="#EF8E8E"/>
</linearGradient>
<linearGradient id="paint9_linear_4399_6537" x1="8.17008" y1="6.37132" x2="11.8167" y2="8.69904" gradientUnits="userSpaceOnUse">
<stop stop-color="#F5B7B0"/>
<stop offset="0.35" stop-color="#F4B4AD"/>
<stop offset="0.57" stop-color="#F3ACA6"/>
<stop offset="0.74" stop-color="#F19D9B"/>
<stop offset="0.87" stop-color="#EF8E8E"/>
</linearGradient>
<linearGradient id="paint10_linear_4399_6537" x1="37.29" y1="58.0667" x2="39.3101" y2="59.3506" gradientUnits="userSpaceOnUse">
<stop stop-color="#FBE5E3"/>
<stop offset="0.7" stop-color="#FAE2E0"/>
<stop offset="0.87" stop-color="#FAE0DE"/>
</linearGradient>
<linearGradient id="paint11_linear_4399_6537" x1="0.233203" y1="32.9231" x2="2.51463" y2="34.3827" gradientUnits="userSpaceOnUse">
<stop stop-color="#F8D2D1"/>
<stop offset="0.3" stop-color="#F7CFCE"/>
<stop offset="0.48" stop-color="#F6C7C6"/>
<stop offset="0.63" stop-color="#F4B8B8"/>
<stop offset="0.76" stop-color="#F2A4A4"/>
<stop offset="0.87" stop-color="#EF8E8E"/>
</linearGradient>
<clipPath id="clip0_4399_6537">
<rect width="51.0037" height="65" fill="white"/>
</clipPath>
</defs>
</svg>
