<svg width="108" height="138" viewBox="0 0 108 138" fill="none" xmlns="http://www.w3.org/2000/svg">
<g clip-path="url(#clip0_4399_2111)">
<path d="M54.9081 0C49.8904 0 45.8125 4.411 45.8125 9.8386C45.8125 15.2662 49.8904 19.6772 54.9081 19.6772C59.9258 19.6772 64.0037 15.2662 64.0037 9.8386C64.0037 4.411 59.9258 0 54.9081 0ZM54.9081 15.4213C52.0567 15.4213 49.747 12.9229 49.747 9.8386C49.747 6.75435 52.0567 4.25593 54.9081 4.25593C57.7594 4.25593 60.0691 6.75435 60.0691 9.8386C60.0691 12.9229 57.7594 15.4213 54.9081 15.4213Z" fill="url(#paint0_linear_4399_2111)"/>
<path d="M54.9578 124.474C61.6438 124.474 67.0639 118.611 67.0639 111.378C67.0639 104.146 61.6438 98.2832 54.9578 98.2832C48.2717 98.2832 42.8516 104.146 42.8516 111.378C42.8516 118.611 48.2717 124.474 54.9578 124.474Z" fill="url(#paint1_linear_4399_2111)"/>
<path d="M99.3952 92.8033C99.3952 92.2002 99.4111 91.6144 99.4111 91.0113C99.4111 46.3155 88.9297 13.6465 54.889 13.6465C20.8483 13.6465 10.3828 46.2982 10.3828 90.9941C10.3828 91.5972 10.3828 92.183 10.3987 92.7861H99.3952V92.8033Z" fill="url(#paint2_linear_4399_2111)"/>
<path d="M100.517 110.86H9.29011C5.03702 110.86 1.93082 106.725 3.01401 102.486L6.0087 90.7175C6.75737 87.7711 9.3379 85.7207 12.2848 85.7207H97.0919C99.9591 85.7207 102.492 87.6505 103.304 90.4935L106.729 102.262C107.972 106.552 104.865 110.86 100.517 110.86Z" fill="url(#paint3_linear_4399_2111)"/>
<path d="M88.103 48.9684C98.5368 48.9684 106.995 39.8191 106.995 28.533C106.995 17.2469 98.5368 8.09766 88.103 8.09766C77.6692 8.09766 69.2109 17.2469 69.2109 28.533C69.2109 39.8191 77.6692 48.9684 88.103 48.9684Z" fill="url(#paint4_linear_4399_2111)"/>
<path d="M107.115 110.388L101.551 104.369C100.375 103.097 98.4688 103.097 97.293 104.369L91.7288 110.388C90.5531 111.66 90.5531 113.722 91.7288 114.993L97.293 121.012C98.4688 122.284 100.375 122.284 101.551 121.012L107.115 114.993C108.291 113.722 108.291 111.66 107.115 110.388Z" fill="url(#paint5_linear_4399_2111)"/>
<path d="M24.0245 29.3106L19.4875 25.8653C18.1266 24.8319 16.249 25.1875 15.2936 26.6595L12.1085 31.5671C11.1532 33.0391 11.4819 35.0701 12.8427 36.1036L17.3797 39.5488C18.7406 40.5822 20.6182 40.2267 21.5736 38.7546L24.7587 33.847C25.714 32.375 25.3853 30.344 24.0245 29.3106Z" fill="url(#paint6_linear_4399_2111)"/>
<path d="M74.7885 129.153L70.6897 128.302C69.6616 128.089 68.6682 128.818 68.471 129.93L67.6847 134.363C67.4874 135.475 68.161 136.55 69.1891 136.763L73.2878 137.614C74.316 137.827 75.3094 137.099 75.5066 135.986L76.2929 131.553C76.4902 130.441 75.8166 129.366 74.7885 129.153Z" fill="url(#paint7_linear_4399_2111)"/>
<path d="M105.518 54.2451L104.709 52.9228C104.054 51.8512 102.72 51.5568 101.73 52.2653L100.507 53.1395C99.5164 53.848 99.2443 55.2911 99.8992 56.3628L100.707 57.6851C101.362 58.7567 102.697 59.0511 103.687 58.3426L104.91 57.4684C105.9 56.7599 106.173 55.3168 105.518 54.2451Z" fill="url(#paint8_linear_4399_2111)"/>
<path d="M20.9761 21.0898C23.4482 21.0898 25.4522 18.922 25.4522 16.248C25.4522 13.574 23.4482 11.4062 20.9761 11.4062C18.504 11.4062 16.5 13.574 16.5 16.248C16.5 18.922 18.504 21.0898 20.9761 21.0898Z" fill="url(#paint9_linear_4399_2111)"/>
<path d="M81.0003 127.144C82.3639 127.144 83.4693 125.948 83.4693 124.473C83.4693 122.998 82.3639 121.803 81.0003 121.803C79.6367 121.803 78.5312 122.998 78.5312 124.473C78.5312 125.948 79.6367 127.144 81.0003 127.144Z" fill="url(#paint10_linear_4399_2111)"/>
<path d="M2.80354 74.4694C4.35189 74.4694 5.60708 73.1117 5.60708 71.4369C5.60708 69.762 4.35189 68.4043 2.80354 68.4043C1.25519 68.4043 0 69.762 0 71.4369C0 73.1117 1.25519 74.4694 2.80354 74.4694Z" fill="url(#paint11_linear_4399_2111)"/>
</g>
<defs>
<linearGradient id="paint0_linear_4399_2111" x1="44.809" y1="0.620297" x2="64.4258" y2="15.9343" gradientUnits="userSpaceOnUse">
<stop stop-color="#FFBFBC"/>
<stop offset="0.29" stop-color="#FFD4D2"/>
<stop offset="0.58" stop-color="#FFEFED"/>
<stop offset="0.71" stop-color="#FFD5D3"/>
<stop offset="0.84" stop-color="#FFC4C2"/>
<stop offset="0.94" stop-color="#FFBFBC"/>
</linearGradient>
<linearGradient id="paint1_linear_4399_2111" x1="54.7825" y1="91.9596" x2="55.1739" y2="127.816" gradientUnits="userSpaceOnUse">
<stop stop-color="#FFAAAA"/>
<stop offset="0.31" stop-color="#FFACAC"/>
<stop offset="0.52" stop-color="#FFB5B5"/>
<stop offset="0.7" stop-color="#FFC4C3"/>
<stop offset="0.86" stop-color="#FFD9D8"/>
<stop offset="0.98" stop-color="#FFEFED"/>
</linearGradient>
<linearGradient id="paint2_linear_4399_2111" x1="76.2023" y1="94.6987" x2="-1.13935" y2="14.691" gradientUnits="userSpaceOnUse">
<stop stop-color="#FFBFBC"/>
<stop offset="0.16" stop-color="#FFC6C3"/>
<stop offset="0.4" stop-color="#FFDBD9"/>
<stop offset="0.58" stop-color="#FFEFED"/>
<stop offset="0.72" stop-color="#FFECEA"/>
<stop offset="0.8" stop-color="#FFE4E2"/>
<stop offset="0.87" stop-color="#FFD6D4"/>
<stop offset="0.93" stop-color="#FFC3C0"/>
<stop offset="0.94" stop-color="#FFBFBC"/>
</linearGradient>
<linearGradient id="paint3_linear_4399_2111" x1="126.067" y1="98.5229" x2="-38.5136" y2="98.0664" gradientUnits="userSpaceOnUse">
<stop stop-color="#FFBFBC"/>
<stop offset="0.36" stop-color="#FFE1DE"/>
<stop offset="0.57" stop-color="#FFEFED"/>
<stop offset="0.75" stop-color="#FFDAD7"/>
<stop offset="0.94" stop-color="#FFBFBC"/>
</linearGradient>
<linearGradient id="paint4_linear_4399_2111" x1="67.1561" y1="9.38994" x2="107.899" y2="41.1932" gradientUnits="userSpaceOnUse">
<stop stop-color="#F67676"/>
<stop offset="0.4" stop-color="#F47373"/>
<stop offset="0.67" stop-color="#F06A6A"/>
<stop offset="0.89" stop-color="#E95B5B"/>
<stop offset="0.98" stop-color="#E65353"/>
</linearGradient>
<linearGradient id="paint5_linear_4399_2111" x1="107.727" y1="104.799" x2="88.1534" y2="120.693" gradientUnits="userSpaceOnUse">
<stop stop-color="#F67676"/>
<stop offset="0.32" stop-color="#F57878"/>
<stop offset="0.52" stop-color="#F58080"/>
<stop offset="0.68" stop-color="#F48F8F"/>
<stop offset="0.82" stop-color="#F3A3A3"/>
<stop offset="0.87" stop-color="#F3ACAC"/>
</linearGradient>
<linearGradient id="paint6_linear_4399_2111" x1="16.0516" y1="25.7614" x2="21.518" y2="39.3967" gradientUnits="userSpaceOnUse">
<stop stop-color="#F8D2D1"/>
<stop offset="0.19" stop-color="#F6C9C9"/>
<stop offset="0.48" stop-color="#F4B4B3"/>
<stop offset="0.85" stop-color="#EF9090"/>
<stop offset="0.87" stop-color="#EF8E8E"/>
</linearGradient>
<linearGradient id="paint7_linear_4399_2111" x1="68.6097" y1="129.239" x2="75.8792" y2="136.065" gradientUnits="userSpaceOnUse">
<stop stop-color="#F8D2D1"/>
<stop offset="0.3" stop-color="#F7CFCE"/>
<stop offset="0.48" stop-color="#F6C7C6"/>
<stop offset="0.63" stop-color="#F4B8B8"/>
<stop offset="0.76" stop-color="#F2A4A4"/>
<stop offset="0.87" stop-color="#EF8E8E"/>
</linearGradient>
<linearGradient id="paint8_linear_4399_2111" x1="102.756" y1="51.8824" x2="102.619" y2="58.7202" gradientUnits="userSpaceOnUse">
<stop stop-color="#F8D2D1"/>
<stop offset="0.3" stop-color="#F7CFCE"/>
<stop offset="0.48" stop-color="#F6C7C6"/>
<stop offset="0.63" stop-color="#F4B8B8"/>
<stop offset="0.76" stop-color="#F2A4A4"/>
<stop offset="0.87" stop-color="#EF8E8E"/>
</linearGradient>
<linearGradient id="paint9_linear_4399_2111" x1="17.2965" y1="13.4911" x2="25.0181" y2="18.4201" gradientUnits="userSpaceOnUse">
<stop stop-color="#F5B7B0"/>
<stop offset="0.35" stop-color="#F4B4AD"/>
<stop offset="0.57" stop-color="#F3ACA6"/>
<stop offset="0.74" stop-color="#F19D9B"/>
<stop offset="0.87" stop-color="#EF8E8E"/>
</linearGradient>
<linearGradient id="paint10_linear_4399_2111" x1="78.9613" y1="122.957" x2="83.2387" y2="125.676" gradientUnits="userSpaceOnUse">
<stop stop-color="#FBE5E3"/>
<stop offset="0.7" stop-color="#FAE2E0"/>
<stop offset="0.87" stop-color="#FAE0DE"/>
</linearGradient>
<linearGradient id="paint11_linear_4399_2111" x1="0.493805" y1="69.7138" x2="5.32472" y2="72.8045" gradientUnits="userSpaceOnUse">
<stop stop-color="#F8D2D1"/>
<stop offset="0.3" stop-color="#F7CFCE"/>
<stop offset="0.48" stop-color="#F6C7C6"/>
<stop offset="0.63" stop-color="#F4B8B8"/>
<stop offset="0.76" stop-color="#F2A4A4"/>
<stop offset="0.87" stop-color="#EF8E8E"/>
</linearGradient>
<clipPath id="clip0_4399_2111">
<rect width="108" height="137.637" fill="white"/>
</clipPath>
</defs>
</svg>
