<svg width="64" height="72" viewBox="0 0 64 72" fill="none" xmlns="http://www.w3.org/2000/svg">
<g clip-path="url(#clip0_4399_6383)">
<path d="M41.2341 53.8221L42.0346 53.3328L27.3252 38.9922C29.6125 44.052 33.7914 49.3915 41.2429 53.8309L41.2341 53.8221Z" fill="url(#paint0_linear_4399_6383)"/>
<path d="M0.264339 68.0417C-0.83535 70.4099 1.66314 72.8481 4.02967 71.712L7.86539 69.8681C5.56044 67.1503 4.02088 64.5112 3.05315 62.0293L0.264339 68.0417Z" fill="url(#paint1_linear_4399_6383)"/>
<path d="M10.0209 50.9305C9.74814 50.1266 9.5194 49.3226 9.32586 48.5273L5.58691 56.5846C6.10597 60.4909 8.103 64.3798 11.4812 68.1287L19.9532 64.0564C15.1146 60.4822 11.7892 56.0865 10.0209 50.9305Z" fill="url(#paint2_linear_4399_6383)"/>
<path d="M18.8972 30.7781L17.9822 29.8867L14.3401 37.7255C13.7946 41.1687 13.7506 45.2323 15.1319 49.2522C16.8034 54.1023 20.3048 58.1571 25.5569 61.3643L34.7415 56.9512C23.2696 48.824 19.733 38.4771 18.8884 30.7868L18.8972 30.7781Z" fill="url(#paint3_linear_4399_6383)"/>
<path d="M34.7506 56.9426L41.2343 53.8228C33.7829 49.3922 29.604 44.0527 27.3167 38.9841L18.8887 30.7695C19.7332 38.4685 23.2698 48.8154 34.7418 56.9339L34.7506 56.9426Z" fill="url(#paint4_linear_4399_6383)"/>
<path d="M34.7506 56.9426L41.2343 53.8228C33.7829 49.3922 29.604 44.0527 27.3167 38.9841L18.8887 30.7695C19.7332 38.4685 23.2698 48.8154 34.7418 56.9339L34.7506 56.9426Z" fill="url(#paint5_linear_4399_6383)"/>
<path d="M15.1413 49.2513C13.7601 45.2313 13.7953 41.1677 14.3495 37.7246L9.33496 48.5347C9.52851 49.3299 9.74844 50.1339 10.03 50.9379C11.7983 56.0938 15.1237 60.4895 19.9624 64.0637L25.5752 61.3634C20.323 58.165 16.8216 54.1014 15.1501 49.2513H15.1413Z" fill="url(#paint6_linear_4399_6383)"/>
<path d="M15.1413 49.2513C13.7601 45.2313 13.7953 41.1677 14.3495 37.7246L9.33496 48.5347C9.52851 49.3299 9.74844 50.1339 10.03 50.9379C11.7983 56.0938 15.1237 60.4895 19.9624 64.0637L25.5752 61.3634C20.323 58.165 16.8216 54.1014 15.1501 49.2513H15.1413Z" fill="url(#paint7_linear_4399_6383)"/>
<path d="M3.06152 62.0294C4.02925 64.5112 5.56881 67.1504 7.87376 69.8682L11.4807 68.1379C8.1025 64.3889 6.10546 60.5 5.58641 56.5938L3.06152 62.0294Z" fill="url(#paint8_linear_4399_6383)"/>
<path d="M3.06152 62.0294C4.02925 64.5112 5.56881 67.1504 7.87376 69.8682L11.4807 68.1379C8.1025 64.3889 6.10546 60.5 5.58641 56.5938L3.06152 62.0294Z" fill="url(#paint9_linear_4399_6383)"/>
<path d="M9.10586 44.4375C9.10586 44.4375 8.9475 44.5511 8.70117 44.6385C8.70117 44.7084 8.70997 44.7783 8.71877 44.8482C8.88592 44.6472 9.01788 44.5074 9.10586 44.4375Z" fill="url(#paint10_linear_4399_6383)"/>
<path d="M9.10586 44.4375C9.10586 44.4375 8.9475 44.5511 8.70117 44.6385C8.70117 44.7084 8.70997 44.7783 8.71877 44.8482C8.88592 44.6472 9.01788 44.5074 9.10586 44.4375Z" fill="url(#paint11_linear_4399_6383)"/>
<path d="M42.248 53.1519C44.2681 51.1452 40.55 44.1982 33.9432 37.6355C27.3365 31.0728 20.343 27.3794 18.3229 29.3861C16.3027 31.3928 20.0209 38.3397 26.6276 44.9024C33.2343 51.4652 40.2278 55.1586 42.248 53.1519Z" fill="#EB6968"/>
<path d="M62.992 51.7967L59.9189 48.7441C59.2696 48.0991 58.2168 48.0991 57.5674 48.7441L54.4944 51.7967C53.845 52.4417 53.845 53.4875 54.4944 54.1325L57.5674 57.1851C58.2168 57.8301 59.2696 57.8301 59.9189 57.1851L62.992 54.1325C63.6413 53.4875 63.6413 52.4417 62.992 51.7967Z" fill="url(#paint12_linear_4399_6383)"/>
<path d="M35.2269 2.04013L32.7212 0.292753C31.9696 -0.231367 30.9326 -0.0510289 30.405 0.69555L28.6459 3.18458C28.1183 3.93116 28.2998 4.96126 29.0514 5.48538L31.5571 7.23275C32.3087 7.75687 33.3457 7.57653 33.8733 6.82996L35.6324 4.34093C36.1601 3.59435 35.9785 2.56425 35.2269 2.04013Z" fill="url(#paint13_linear_4399_6383)"/>
<path d="M26.6747 24.7987L24.916 23.3187C24.4748 22.9474 23.8142 23.0017 23.4405 23.44L21.9506 25.1869C21.5768 25.6252 21.6315 26.2814 22.0727 26.6526L23.8314 28.1326C24.2725 28.5038 24.9331 28.4495 25.3069 28.0113L26.7968 26.2643C27.1705 25.8261 27.1158 25.1699 26.6747 24.7987Z" fill="url(#paint14_linear_4399_6383)"/>
<path d="M3.91387 32.3032L3.4675 31.6326C3.10575 31.089 2.36894 30.9397 1.82178 31.2991L1.14662 31.7425C0.599465 32.1018 0.449158 32.8337 0.810903 33.3772L1.25727 34.0479C1.61902 34.5914 2.35583 34.7407 2.90299 34.3814L3.57814 33.938C4.1253 33.5786 4.27561 32.8467 3.91387 32.3032Z" fill="url(#paint15_linear_4399_6383)"/>
<path d="M53.8324 17.3546C55.1978 17.3546 56.3046 16.2552 56.3046 14.899C56.3046 13.5428 55.1978 12.4434 53.8324 12.4434C52.4671 12.4434 51.3604 13.5428 51.3604 14.899C51.3604 16.2552 52.4671 17.3546 53.8324 17.3546Z" fill="url(#paint16_linear_4399_6383)"/>
<path d="M14.7708 16.254C15.5239 16.254 16.1345 15.6475 16.1345 14.8995C16.1345 14.1514 15.5239 13.5449 14.7708 13.5449C14.0177 13.5449 13.4072 14.1514 13.4072 14.8995C13.4072 15.6475 14.0177 16.254 14.7708 16.254Z" fill="url(#paint17_linear_4399_6383)"/>
<path d="M46.2486 63.2441C47.1037 63.2441 47.7969 62.5555 47.7969 61.706C47.7969 60.8566 47.1037 60.168 46.2486 60.168C45.3934 60.168 44.7002 60.8566 44.7002 61.706C44.7002 62.5555 45.3934 63.2441 46.2486 63.2441Z" fill="url(#paint18_linear_4399_6383)"/>
<path d="M51.1398 44.8488C50.8143 44.8488 50.48 44.7877 50.1721 44.6653C49.2748 44.3158 48.6501 43.503 48.527 42.5592L47.7176 36.2585L43.662 38.9238C42.4479 39.7191 40.8116 39.387 40.0022 38.181C39.2016 36.9751 39.5271 35.3496 40.75 34.5456L48.351 29.5557C49.1076 29.0576 50.0753 28.979 50.9111 29.3547C51.7381 29.7305 52.3187 30.5083 52.4331 31.4084L53.1721 37.1673L59.6382 31.8628C60.7643 30.9452 62.427 31.0938 63.3508 32.2124C64.2833 33.3309 64.125 34.9826 62.9989 35.9002L52.8378 44.2371C52.3539 44.6304 51.7645 44.8401 51.1574 44.8401L51.1398 44.8488Z" fill="url(#paint19_linear_4399_6383)"/>
<path d="M25.8827 39.7793C25.2405 39.7793 24.5983 39.5521 24.0968 39.0889C23.0235 38.1102 22.962 36.4498 23.9473 35.3836L31.9794 26.7321L27.5015 18.2466C26.8593 17.0319 27.2727 15.5375 28.434 14.8122L38.7007 8.4153C39.9412 7.64627 41.5687 8.01331 42.3429 9.24549C43.1171 10.4689 42.7476 12.0944 41.5071 12.8634L33.3078 17.9757L37.5218 25.9543C38.0409 26.9331 37.8825 28.1303 37.1259 28.9518L27.8358 38.9666C27.3167 39.5259 26.6041 39.8143 25.8915 39.8143L25.8827 39.7793Z" fill="url(#paint20_linear_4399_6383)"/>
</g>
<defs>
<linearGradient id="paint0_linear_4399_6383" x1="5.4106" y1="26.6965" x2="53.8246" y2="60.2941" gradientUnits="userSpaceOnUse">
<stop stop-color="#F2C9C4"/>
<stop offset="0.19" stop-color="#F1C6C1"/>
<stop offset="0.3" stop-color="#F1BEB9"/>
<stop offset="0.4" stop-color="#EFAFAB"/>
<stop offset="0.48" stop-color="#EE9B97"/>
<stop offset="0.55" stop-color="#EB817E"/>
<stop offset="0.62" stop-color="#E9615F"/>
<stop offset="0.63" stop-color="#E95E5C"/>
</linearGradient>
<linearGradient id="paint1_linear_4399_6383" x1="-14.5947" y1="55.3091" x2="34.0735" y2="89.0743" gradientUnits="userSpaceOnUse">
<stop stop-color="#F2C9C4"/>
<stop offset="0.19" stop-color="#F1C6C1"/>
<stop offset="0.3" stop-color="#F1BEB9"/>
<stop offset="0.4" stop-color="#EFAFAB"/>
<stop offset="0.48" stop-color="#EE9B97"/>
<stop offset="0.55" stop-color="#EB817E"/>
<stop offset="0.62" stop-color="#E9615F"/>
<stop offset="0.63" stop-color="#E95E5C"/>
</linearGradient>
<linearGradient id="paint2_linear_4399_6383" x1="-7.97005" y1="45.7571" x2="40.6981" y2="79.5223" gradientUnits="userSpaceOnUse">
<stop stop-color="#F2C9C4"/>
<stop offset="0.19" stop-color="#F1C6C1"/>
<stop offset="0.3" stop-color="#F1BEB9"/>
<stop offset="0.4" stop-color="#EFAFAB"/>
<stop offset="0.48" stop-color="#EE9B97"/>
<stop offset="0.55" stop-color="#EB817E"/>
<stop offset="0.62" stop-color="#E9615F"/>
<stop offset="0.63" stop-color="#E95E5C"/>
</linearGradient>
<linearGradient id="paint3_linear_4399_6383" x1="1.65407" y1="31.8792" x2="50.331" y2="65.6445" gradientUnits="userSpaceOnUse">
<stop stop-color="#F2C9C4"/>
<stop offset="0.19" stop-color="#F1C6C1"/>
<stop offset="0.3" stop-color="#F1BEB9"/>
<stop offset="0.4" stop-color="#EFAFAB"/>
<stop offset="0.48" stop-color="#EE9B97"/>
<stop offset="0.55" stop-color="#EB817E"/>
<stop offset="0.62" stop-color="#E9615F"/>
<stop offset="0.63" stop-color="#E95E5C"/>
</linearGradient>
<linearGradient id="paint4_linear_4399_6383" x1="4.12645" y1="28.3226" x2="52.7946" y2="62.0878" gradientUnits="userSpaceOnUse">
<stop stop-color="#F2C9C4"/>
<stop offset="0.19" stop-color="#F1C6C1"/>
<stop offset="0.3" stop-color="#F1BEB9"/>
<stop offset="0.4" stop-color="#EFAFAB"/>
<stop offset="0.48" stop-color="#EE9B97"/>
<stop offset="0.55" stop-color="#EB817E"/>
<stop offset="0.62" stop-color="#E9615F"/>
<stop offset="0.63" stop-color="#E95E5C"/>
</linearGradient>
<linearGradient id="paint5_linear_4399_6383" x1="10.4519" y1="32.6571" x2="47.9691" y2="58.6799" gradientUnits="userSpaceOnUse">
<stop stop-color="white"/>
<stop offset="0.25" stop-color="#FDFCFC"/>
<stop offset="0.4" stop-color="#FAF4F4"/>
<stop offset="0.52" stop-color="#F4E5E7"/>
<stop offset="0.63" stop-color="#ECD2D4"/>
</linearGradient>
<linearGradient id="paint6_linear_4399_6383" x1="-2.29535" y1="37.576" x2="46.3728" y2="71.3413" gradientUnits="userSpaceOnUse">
<stop stop-color="#F2C9C4"/>
<stop offset="0.19" stop-color="#F1C6C1"/>
<stop offset="0.3" stop-color="#F1BEB9"/>
<stop offset="0.4" stop-color="#EFAFAB"/>
<stop offset="0.48" stop-color="#EE9B97"/>
<stop offset="0.55" stop-color="#EB817E"/>
<stop offset="0.62" stop-color="#E9615F"/>
<stop offset="0.63" stop-color="#E95E5C"/>
</linearGradient>
<linearGradient id="paint7_linear_4399_6383" x1="2.14005" y1="37.5859" x2="31.521" y2="64.1892" gradientUnits="userSpaceOnUse">
<stop stop-color="white"/>
<stop offset="0.25" stop-color="#FDFCFC"/>
<stop offset="0.4" stop-color="#FAF4F4"/>
<stop offset="0.52" stop-color="#F4E5E7"/>
<stop offset="0.63" stop-color="#ECD2D4"/>
</linearGradient>
<linearGradient id="paint8_linear_4399_6383" x1="-11.4544" y1="50.7824" x2="37.2138" y2="84.5476" gradientUnits="userSpaceOnUse">
<stop stop-color="#F2C9C4"/>
<stop offset="0.19" stop-color="#F1C6C1"/>
<stop offset="0.3" stop-color="#F1BEB9"/>
<stop offset="0.4" stop-color="#EFAFAB"/>
<stop offset="0.48" stop-color="#EE9B97"/>
<stop offset="0.55" stop-color="#EB817E"/>
<stop offset="0.62" stop-color="#E9615F"/>
<stop offset="0.63" stop-color="#E95E5C"/>
</linearGradient>
<linearGradient id="paint9_linear_4399_6383" x1="-3.82363" y1="49.4167" x2="18.7419" y2="79.4384" gradientUnits="userSpaceOnUse">
<stop stop-color="white"/>
<stop offset="0.25" stop-color="#FDFCFC"/>
<stop offset="0.4" stop-color="#FAF4F4"/>
<stop offset="0.52" stop-color="#F4E5E7"/>
<stop offset="0.63" stop-color="#ECD2D4"/>
</linearGradient>
<linearGradient id="paint10_linear_4399_6383" x1="1.63174" y1="38.1474" x2="31.0127" y2="64.7508" gradientUnits="userSpaceOnUse">
<stop stop-color="white"/>
<stop offset="0.25" stop-color="#FDFCFC"/>
<stop offset="0.4" stop-color="#FAF4F4"/>
<stop offset="0.52" stop-color="#F4E5E7"/>
<stop offset="0.63" stop-color="#ECD2D4"/>
</linearGradient>
<linearGradient id="paint11_linear_4399_6383" x1="6.58665" y1="41.5896" x2="29.1606" y2="71.6141" gradientUnits="userSpaceOnUse">
<stop stop-color="white"/>
<stop offset="0.25" stop-color="#FDFCFC"/>
<stop offset="0.4" stop-color="#FAF4F4"/>
<stop offset="0.52" stop-color="#F4E5E7"/>
<stop offset="0.63" stop-color="#ECD2D4"/>
</linearGradient>
<linearGradient id="paint12_linear_4399_6383" x1="63.3274" y1="48.9593" x2="53.2604" y2="57.8611" gradientUnits="userSpaceOnUse">
<stop stop-color="#EE8887"/>
<stop offset="0.37" stop-color="#EE8A89"/>
<stop offset="0.59" stop-color="#EF9291"/>
<stop offset="0.77" stop-color="#F1A0A0"/>
<stop offset="0.87" stop-color="#F3ACAC"/>
</linearGradient>
<linearGradient id="paint13_linear_4399_6383" x1="30.8164" y1="0.235052" x2="33.4189" y2="7.30392" gradientUnits="userSpaceOnUse">
<stop stop-color="#F8D2D1"/>
<stop offset="0.3" stop-color="#F7CFCE"/>
<stop offset="0.48" stop-color="#F6C7C6"/>
<stop offset="0.63" stop-color="#F4B8B8"/>
<stop offset="0.76" stop-color="#F2A4A4"/>
<stop offset="0.87" stop-color="#EF8E8E"/>
</linearGradient>
<linearGradient id="paint14_linear_4399_6383" x1="23.6814" y1="23.1845" x2="25.0488" y2="28.2713" gradientUnits="userSpaceOnUse">
<stop stop-color="#F8D2D1"/>
<stop offset="0.3" stop-color="#F7CFCE"/>
<stop offset="0.48" stop-color="#F6C7C6"/>
<stop offset="0.63" stop-color="#F4B8B8"/>
<stop offset="0.76" stop-color="#F2A4A4"/>
<stop offset="0.87" stop-color="#EF8E8E"/>
</linearGradient>
<linearGradient id="paint15_linear_4399_6383" x1="2.39595" y1="31.1001" x2="2.33695" y2="34.5755" gradientUnits="userSpaceOnUse">
<stop stop-color="#F8D2D1"/>
<stop offset="0.3" stop-color="#F7CFCE"/>
<stop offset="0.48" stop-color="#F6C7C6"/>
<stop offset="0.63" stop-color="#F4B8B8"/>
<stop offset="0.76" stop-color="#F2A4A4"/>
<stop offset="0.87" stop-color="#EF8E8E"/>
</linearGradient>
<linearGradient id="paint16_linear_4399_6383" x1="51.7914" y1="13.5008" x2="55.8471" y2="16.3138" gradientUnits="userSpaceOnUse">
<stop stop-color="#F5B7B0"/>
<stop offset="0.35" stop-color="#F4B4AD"/>
<stop offset="0.57" stop-color="#F3ACA6"/>
<stop offset="0.74" stop-color="#F19D9B"/>
<stop offset="0.87" stop-color="#EF8E8E"/>
</linearGradient>
<linearGradient id="paint17_linear_4399_6383" x1="13.6448" y1="14.1304" x2="15.8872" y2="15.6825" gradientUnits="userSpaceOnUse">
<stop stop-color="#FBE5E3"/>
<stop offset="0.7" stop-color="#FAE2E0"/>
<stop offset="0.87" stop-color="#FAE0DE"/>
</linearGradient>
<linearGradient id="paint18_linear_4399_6383" x1="44.9729" y1="60.8321" x2="47.5132" y2="62.5958" gradientUnits="userSpaceOnUse">
<stop stop-color="#F8D2D1"/>
<stop offset="0.3" stop-color="#F7CFCE"/>
<stop offset="0.48" stop-color="#F6C7C6"/>
<stop offset="0.63" stop-color="#F4B8B8"/>
<stop offset="0.76" stop-color="#F2A4A4"/>
<stop offset="0.87" stop-color="#EF8E8E"/>
</linearGradient>
<linearGradient id="paint19_linear_4399_6383" x1="42.5271" y1="40.8726" x2="64.3404" y2="30.0519" gradientUnits="userSpaceOnUse">
<stop stop-color="#F8D2D1"/>
<stop offset="0.83" stop-color="#EB6968"/>
</linearGradient>
<linearGradient id="paint20_linear_4399_6383" x1="23.2435" y1="23.8919" x2="42.7388" y2="23.8919" gradientUnits="userSpaceOnUse">
<stop stop-color="white"/>
<stop offset="1" stop-color="#EB6968"/>
</linearGradient>
<clipPath id="clip0_4399_6383">
<rect width="63.9403" height="72" fill="white"/>
</clipPath>
</defs>
</svg>
