<svg width="132" height="126" viewBox="0 0 132 126" fill="none" xmlns="http://www.w3.org/2000/svg">
<g clip-path="url(#clip0_4399_1833)">
<path d="M87.7366 20.7066L39.6376 6.67273C36.8176 5.85188 33.8784 7.46709 33.0576 10.2871L7.34655 98.4884C6.52571 101.308 8.14092 104.248 10.9609 105.068L81.9907 125.775C84.8107 126.596 87.7498 124.981 88.5707 122.161L92.3042 109.332L100.221 82.1774L107.384 57.6314L87.7366 20.6933V20.7066Z" fill="url(#paint0_linear_4399_1833)"/>
<path d="M107.381 57.6451L84.4375 50.9592C81.6175 50.1384 80.0023 47.1992 80.8231 44.3792L87.7209 20.707" fill="url(#paint1_linear_4399_1833)"/>
<path d="M94.7034 62.6888L34.1328 45.0273" stroke="url(#paint2_linear_4399_1833)" stroke-width="4" stroke-miterlimit="10" stroke-linecap="round"/>
<path d="M84.4377 97.8919L23.8672 80.2305" stroke="url(#paint3_linear_4399_1833)" stroke-width="4" stroke-miterlimit="10" stroke-linecap="round"/>
<path d="M87.9924 85.7396L27.4219 68.0781" stroke="url(#paint4_linear_4399_1833)" stroke-width="4" stroke-miterlimit="10" stroke-linecap="round"/>
<path opacity="0.4" d="M75.7009 100.964C75.5156 101.123 75.3832 101.322 75.3038 101.547L71.3319 112.761C70.9083 113.952 71.9277 115.131 73.1722 114.866L85.0348 112.761C85.3128 112.708 85.5643 112.589 85.7762 112.403L93.3359 105.797L101.253 78.6426L75.7009 100.978V100.964Z" fill="#F67676"/>
<path d="M48.8778 107.173L18.5859 98.3418" stroke="url(#paint5_linear_4399_1833)" stroke-width="3" stroke-miterlimit="10" stroke-linecap="round"/>
<path d="M50.8958 100.237L20.6172 91.4062" stroke="url(#paint6_linear_4399_1833)" stroke-width="3" stroke-miterlimit="10" stroke-linecap="round"/>
<path d="M91.3386 74.2068L30.7812 56.5586" stroke="url(#paint7_linear_4399_1833)" stroke-width="4" stroke-miterlimit="10" stroke-linecap="round"/>
<path d="M129.22 62.0402C132.53 59.1408 132.888 54.1363 129.949 50.972C127.102 47.9137 122.177 47.9534 118.947 50.7734L115.875 53.4478L125.897 64.9264L129.207 62.027L129.22 62.0402Z" fill="#F67676"/>
<path d="M70.0525 93.5244C69.8672 93.6832 69.7348 93.8818 69.6553 94.1069L65.6835 105.321C65.2598 106.512 66.2793 107.691 67.5238 107.426L79.3863 105.321C79.6644 105.268 79.9159 105.149 80.1277 104.963L119.264 70.7657L109.241 59.2871L70.0657 93.5376L70.0525 93.5244Z" fill="#F67676"/>
<path d="M115.892 53.4762L109.242 59.2871L119.27 70.7616L125.919 64.9507L115.892 53.4762Z" fill="#FFC8C6"/>
<path d="M13.5112 75.1382L8.88655 70.5135C7.90936 69.5363 6.32502 69.5363 5.34782 70.5135L0.723135 75.1382C-0.254058 76.1154 -0.254057 77.6997 0.723136 78.6769L5.34782 83.3016C6.32502 84.2788 7.90936 84.2788 8.88655 83.3016L13.5112 78.6769C14.4884 77.6997 14.4884 76.1154 13.5112 75.1382Z" fill="url(#paint8_linear_4399_1833)"/>
<path d="M56.1709 14.1377L53.63 10.2944C52.8678 9.14156 51.3155 8.82488 50.1627 9.58703L46.3194 12.128C45.1666 12.8901 44.8499 14.4425 45.612 15.5953L48.153 19.4386C48.9151 20.5914 50.4675 20.9081 51.6203 20.1459L55.4636 17.605C56.6164 16.8428 56.9331 15.2905 56.1709 14.1377Z" fill="url(#paint9_linear_4399_1833)"/>
<path d="M111.102 37.2254L109.189 34.3318C108.709 33.606 107.732 33.4066 107.006 33.8865L104.113 35.7995C103.387 36.2793 103.187 37.2568 103.667 37.9826L105.58 40.8761C106.06 41.602 107.037 41.8014 107.763 41.3215L110.657 39.4085C111.383 38.9286 111.582 37.9512 111.102 37.2254Z" fill="url(#paint10_linear_4399_1833)"/>
<path d="M19.8684 61.3L19.1966 60.2839C18.6523 59.4605 17.5434 59.2343 16.72 59.7787L15.7039 60.4504C14.8805 60.9948 14.6543 62.1037 15.1987 62.9271L15.8705 63.9431C16.4148 64.7666 17.5237 64.9928 18.3471 64.4484L19.3632 63.7766C20.1866 63.2322 20.4128 62.1234 19.8684 61.3Z" fill="url(#paint11_linear_4399_1833)"/>
<path d="M90.2828 122.333C92.3375 122.333 94.0031 120.668 94.0031 118.613C94.0031 116.558 92.3375 114.893 90.2828 114.893C88.2281 114.893 86.5625 116.558 86.5625 118.613C86.5625 120.668 88.2281 122.333 90.2828 122.333Z" fill="url(#paint12_linear_4399_1833)"/>
<path d="M48.8802 4.10423C50.0136 4.10423 50.9324 3.18547 50.9324 2.05212C50.9324 0.918764 50.0136 0 48.8802 0C47.7469 0 46.8281 0.918764 46.8281 2.05212C46.8281 3.18547 47.7469 4.10423 48.8802 4.10423Z" fill="url(#paint13_linear_4399_1833)"/>
<path d="M103.588 114.654C104.875 114.654 105.918 113.611 105.918 112.324C105.918 111.037 104.875 109.994 103.588 109.994C102.301 109.994 101.258 111.037 101.258 112.324C101.258 113.611 102.301 114.654 103.588 114.654Z" fill="url(#paint14_linear_4399_1833)"/>
</g>
<defs>
<linearGradient id="paint0_linear_4399_1833" x1="7.12148" y1="66.2371" x2="107.384" y2="66.2371" gradientUnits="userSpaceOnUse">
<stop stop-color="#FFFEFE"/>
<stop offset="0.37" stop-color="#FEFBFB"/>
<stop offset="0.59" stop-color="#FEF3F3"/>
<stop offset="0.77" stop-color="#FDE5E4"/>
<stop offset="0.92" stop-color="#FDD2D0"/>
<stop offset="0.94" stop-color="#FDD1CF"/>
</linearGradient>
<linearGradient id="paint1_linear_4399_1833" x1="104.928" y1="59.7005" x2="79.0036" y2="27.8671" gradientUnits="userSpaceOnUse">
<stop stop-color="#FFC8C5"/>
<stop offset="0.65" stop-color="#FFCAC7"/>
<stop offset="0.94" stop-color="#FFCFCD"/>
</linearGradient>
<linearGradient id="paint2_linear_4399_1833" x1="31.5865" y1="44.2761" x2="97.2458" y2="63.4265" gradientUnits="userSpaceOnUse">
<stop stop-color="#FF9F9E"/>
<stop offset="0.24" stop-color="#FFAEAC"/>
<stop offset="0.45" stop-color="#FFC0BD"/>
<stop offset="0.76" stop-color="#FF9B99"/>
<stop offset="0.94" stop-color="#FF8B8A"/>
</linearGradient>
<linearGradient id="paint3_linear_4399_1833" x1="88.7645" y1="99.155" x2="86.9724" y2="98.6323" gradientUnits="userSpaceOnUse">
<stop stop-color="#FF9F9E"/>
<stop offset="0.24" stop-color="#FFAEAC"/>
<stop offset="0.45" stop-color="#FFC0BD"/>
<stop offset="0.76" stop-color="#FF9B99"/>
<stop offset="0.94" stop-color="#FF8B8A"/>
</linearGradient>
<linearGradient id="paint4_linear_4399_1833" x1="24.8634" y1="67.3327" x2="93.5859" y2="87.3765" gradientUnits="userSpaceOnUse">
<stop stop-color="#FF9F9E"/>
<stop offset="0.24" stop-color="#FFAEAC"/>
<stop offset="0.45" stop-color="#FFC0BD"/>
<stop offset="0.76" stop-color="#FF9B99"/>
<stop offset="0.94" stop-color="#FF8B8A"/>
</linearGradient>
<linearGradient id="paint5_linear_4399_1833" x1="16.6673" y1="97.7786" x2="50.768" y2="107.724" gradientUnits="userSpaceOnUse">
<stop stop-color="#FF9F9E"/>
<stop offset="0.24" stop-color="#FFAEAC"/>
<stop offset="0.45" stop-color="#FFC0BD"/>
<stop offset="0.76" stop-color="#FF9B99"/>
<stop offset="0.94" stop-color="#FF8B8A"/>
</linearGradient>
<linearGradient id="paint6_linear_4399_1833" x1="18.697" y1="90.8409" x2="52.7976" y2="100.787" gradientUnits="userSpaceOnUse">
<stop stop-color="#FF9F9E"/>
<stop offset="0.24" stop-color="#FFAEAC"/>
<stop offset="0.45" stop-color="#FFC0BD"/>
<stop offset="0.76" stop-color="#FF9B99"/>
<stop offset="0.94" stop-color="#FF8B8A"/>
</linearGradient>
<linearGradient id="paint7_linear_4399_1833" x1="28.2222" y1="55.8037" x2="96.9447" y2="75.8474" gradientUnits="userSpaceOnUse">
<stop stop-color="#FF9F9E"/>
<stop offset="0.24" stop-color="#FFAEAC"/>
<stop offset="0.45" stop-color="#FFC0BD"/>
<stop offset="0.76" stop-color="#FF9B99"/>
<stop offset="0.94" stop-color="#FF8B8A"/>
</linearGradient>
<linearGradient id="paint8_linear_4399_1833" x1="14.0268" y1="70.8454" x2="-1.21187" y2="84.2305" gradientUnits="userSpaceOnUse">
<stop stop-color="#F67676"/>
<stop offset="0.32" stop-color="#F57878"/>
<stop offset="0.52" stop-color="#F58080"/>
<stop offset="0.68" stop-color="#F48F8F"/>
<stop offset="0.82" stop-color="#F3A3A3"/>
<stop offset="0.87" stop-color="#F3ACAC"/>
</linearGradient>
<linearGradient id="paint9_linear_4399_1833" x1="51.0052" y1="9.15697" x2="50.7888" y2="20.5687" gradientUnits="userSpaceOnUse">
<stop stop-color="#F8D2D1"/>
<stop offset="0.19" stop-color="#F6C9C9"/>
<stop offset="0.48" stop-color="#F4B4B3"/>
<stop offset="0.85" stop-color="#EF9090"/>
<stop offset="0.87" stop-color="#EF8E8E"/>
</linearGradient>
<linearGradient id="paint10_linear_4399_1833" x1="107.451" y1="33.6238" x2="107.296" y2="41.5988" gradientUnits="userSpaceOnUse">
<stop stop-color="#F8D2D1"/>
<stop offset="0.3" stop-color="#F7CFCE"/>
<stop offset="0.48" stop-color="#F6C7C6"/>
<stop offset="0.63" stop-color="#F4B8B8"/>
<stop offset="0.76" stop-color="#F2A4A4"/>
<stop offset="0.87" stop-color="#EF8E8E"/>
</linearGradient>
<linearGradient id="paint11_linear_4399_1833" x1="17.5841" y1="59.4772" x2="17.4757" y2="64.7388" gradientUnits="userSpaceOnUse">
<stop stop-color="#F8D2D1"/>
<stop offset="0.3" stop-color="#F7CFCE"/>
<stop offset="0.48" stop-color="#F6C7C6"/>
<stop offset="0.63" stop-color="#F4B8B8"/>
<stop offset="0.76" stop-color="#F2A4A4"/>
<stop offset="0.87" stop-color="#EF8E8E"/>
</linearGradient>
<linearGradient id="paint12_linear_4399_1833" x1="87.2245" y1="116.508" x2="93.3411" y2="120.731" gradientUnits="userSpaceOnUse">
<stop stop-color="#F5B7B0"/>
<stop offset="0.35" stop-color="#F4B4AD"/>
<stop offset="0.57" stop-color="#F3ACA6"/>
<stop offset="0.74" stop-color="#F19D9B"/>
<stop offset="0.87" stop-color="#EF8E8E"/>
</linearGradient>
<linearGradient id="paint13_linear_4399_1833" x1="47.1856" y1="0.887044" x2="50.5617" y2="3.21719" gradientUnits="userSpaceOnUse">
<stop stop-color="#FBE5E3"/>
<stop offset="0.7" stop-color="#FAE2E0"/>
<stop offset="0.87" stop-color="#FAE0DE"/>
</linearGradient>
<linearGradient id="paint14_linear_4399_1833" x1="101.668" y1="111.014" x2="105.494" y2="113.648" gradientUnits="userSpaceOnUse">
<stop stop-color="#F8D2D1"/>
<stop offset="0.3" stop-color="#F7CFCE"/>
<stop offset="0.48" stop-color="#F6C7C6"/>
<stop offset="0.63" stop-color="#F4B8B8"/>
<stop offset="0.76" stop-color="#F2A4A4"/>
<stop offset="0.87" stop-color="#EF8E8E"/>
</linearGradient>
<clipPath id="clip0_4399_1833">
<rect width="131.945" height="126" fill="white"/>
</clipPath>
</defs>
</svg>
