<svg width="124" height="103" viewBox="0 0 124 103" fill="none" xmlns="http://www.w3.org/2000/svg">
<g clip-path="url(#clip0_4399_2127)">
<path d="M108.329 77.3409C112.668 72.1669 115.188 66.0931 115.188 59.5694C115.188 51.081 110.924 43.3275 103.901 37.3887C104.333 39.3233 104.557 41.3029 104.557 43.3275C104.557 63.6486 82.1007 80.1304 54.3812 80.1304C45.017 80.1304 36.2494 78.2407 28.7491 74.9564L28.0781 75.3163C35.8169 86.0992 51.22 93.4628 68.979 93.4628C77.6125 93.4628 85.6794 91.7231 92.5832 88.7087L108.21 97.0621C109.925 97.9769 111.923 96.4922 111.565 94.5876L108.314 77.3559L108.329 77.3409Z" fill="url(#paint0_linear_4399_2127)"/>
<path d="M54.0693 8.95312C28.5566 8.95312 7.875 24.1302 7.875 42.8465C7.875 49.3703 10.395 55.4441 14.7341 60.6181L11.4835 77.8497C11.1256 79.7694 13.1237 81.2391 14.8384 80.3243L30.4652 71.9709C37.369 74.9853 45.4508 76.725 54.0693 76.725C79.5821 76.725 100.264 61.5479 100.264 42.8316C100.264 24.1152 79.5821 8.95312 54.0693 8.95312Z" fill="url(#paint1_linear_4399_2127)"/>
<path d="M30.1685 50.9452C32.8202 50.9452 34.9699 48.7832 34.9699 46.1162C34.9699 43.4492 32.8202 41.2871 30.1685 41.2871C27.5168 41.2871 25.3672 43.4492 25.3672 46.1162C25.3672 48.7832 27.5168 50.9452 30.1685 50.9452Z" fill="#FCEEEC"/>
<path d="M53.9498 50.9452C56.6015 50.9452 58.7511 48.7832 58.7511 46.1162C58.7511 43.4492 56.6015 41.2871 53.9498 41.2871C51.2981 41.2871 49.1484 43.4492 49.1484 46.1162C49.1484 48.7832 51.2981 50.9452 53.9498 50.9452Z" fill="#FCEEEC"/>
<path d="M77.6451 50.9452C80.2968 50.9452 82.4464 48.7832 82.4464 46.1162C82.4464 43.4492 80.2968 41.2871 77.6451 41.2871C74.9934 41.2871 72.8438 43.4492 72.8438 46.1162C72.8438 48.7832 74.9934 50.9452 77.6451 50.9452Z" fill="#FCEEEC"/>
<path d="M13.7705 4.3824L8.29092 0.513375C7.01705 -0.386081 5.25941 -0.076599 4.36511 1.20462L0.518295 6.71582C-0.375999 7.99704 -0.068292 9.76483 1.20558 10.6643L6.68514 14.5333C7.95901 15.4328 9.71665 15.1233 10.6109 13.8421L14.4578 8.33086C15.3521 7.04964 15.0444 5.28185 13.7705 4.3824Z" fill="url(#paint2_linear_4399_2127)"/>
<path d="M118.43 69.5839L114.635 66.904C113.361 66.0045 111.603 66.314 110.709 67.5952L108.044 71.4126C107.15 72.6938 107.458 74.4616 108.732 75.361L112.527 78.0409C113.801 78.9404 115.559 78.6309 116.453 77.3497L119.117 73.5323C120.012 72.2511 119.704 70.4833 118.43 69.5839Z" fill="url(#paint3_linear_4399_2127)"/>
<path d="M113.768 9.71652L110.349 2.35146C109.69 0.93305 108.013 0.320119 106.603 0.982438L99.28 4.42151C97.8697 5.08383 97.2603 6.7706 97.9188 8.18901L101.338 15.5541C101.997 16.9725 103.674 17.5854 105.084 16.9231L112.407 13.484C113.817 12.8217 114.426 11.1349 113.768 9.71652Z" fill="url(#paint4_linear_4399_2127)"/>
<path d="M123.375 37.0371L120.69 34.7493C119.942 34.1122 118.822 34.2054 118.189 34.9574L115.914 37.6579C115.281 38.41 115.374 39.5361 116.121 40.1732L118.806 42.461C119.554 43.0981 120.674 43.0049 121.307 42.2529L123.582 39.5523C124.215 38.8003 124.123 37.6742 123.375 37.0371Z" fill="url(#paint5_linear_4399_2127)"/>
<path d="M81.0386 99.2447L80.4383 98.3315C79.8252 97.3987 78.5763 97.1425 77.6489 97.7591L76.7409 98.3629C75.8136 98.9796 75.5588 100.236 76.1719 101.168L76.7722 102.082C77.3854 103.014 78.6342 103.271 79.5616 102.654L80.4696 102.05C81.397 101.433 81.6517 100.177 81.0386 99.2447Z" fill="url(#paint6_linear_4399_2127)"/>
<path d="M81.4741 20.2617C83.6647 20.2617 85.4405 18.4756 85.4405 16.2724C85.4405 14.0692 83.6647 12.2832 81.4741 12.2832C79.2836 12.2832 77.5078 14.0692 77.5078 16.2724C77.5078 18.4756 79.2836 20.2617 81.4741 20.2617Z" fill="url(#paint7_linear_4399_2127)"/>
<path d="M5.9507 72.1816C8.14125 72.1816 9.91703 70.3955 9.91703 68.1924C9.91703 65.9892 8.14125 64.2031 5.9507 64.2031C3.76016 64.2031 1.98438 65.9892 1.98438 68.1924C1.98438 70.3955 3.76016 72.1816 5.9507 72.1816Z" fill="url(#paint8_linear_4399_2127)"/>
<path d="M27.1372 14.1728C28.3478 14.1728 29.3292 13.1858 29.3292 11.9682C29.3292 10.7507 28.3478 9.76367 27.1372 9.76367C25.9267 9.76367 24.9453 10.7507 24.9453 11.9682C24.9453 13.1858 25.9267 14.1728 27.1372 14.1728Z" fill="url(#paint9_linear_4399_2127)"/>
<path d="M119.748 86.4133C121.123 86.4133 122.238 85.292 122.238 83.9088C122.238 82.5256 121.123 81.4043 119.748 81.4043C118.373 81.4043 117.258 82.5256 117.258 83.9088C117.258 85.292 118.373 86.4133 119.748 86.4133Z" fill="url(#paint10_linear_4399_2127)"/>
</g>
<defs>
<linearGradient id="paint0_linear_4399_2127" x1="116.486" y1="53.4506" x2="46.1146" y2="101.663" gradientUnits="userSpaceOnUse">
<stop stop-color="#EEBCBA"/>
<stop offset="0.22" stop-color="#ED9896"/>
<stop offset="0.42" stop-color="#EC7E7D"/>
<stop offset="0.59" stop-color="#EB6E6D"/>
<stop offset="0.73" stop-color="#EB6968"/>
</linearGradient>
<linearGradient id="paint1_linear_4399_2127" x1="14.4657" y1="25.165" x2="84.8517" y2="73.4069" gradientUnits="userSpaceOnUse">
<stop stop-color="#F0B4B0"/>
<stop offset="0.18" stop-color="#EFABA7"/>
<stop offset="0.48" stop-color="#ED9290"/>
<stop offset="0.85" stop-color="#EB6B6A"/>
<stop offset="0.87" stop-color="#EB6968"/>
</linearGradient>
<linearGradient id="paint2_linear_4399_2127" x1="13.6227" y1="-0.150963" x2="-0.0184699" y2="16.7433" gradientUnits="userSpaceOnUse">
<stop stop-color="#F5CFCD"/>
<stop offset="0.29" stop-color="#F4C2C0"/>
<stop offset="0.87" stop-color="#F3ACAC"/>
</linearGradient>
<linearGradient id="paint3_linear_4399_2127" x1="111.473" y1="66.7608" x2="115.724" y2="78.1263" gradientUnits="userSpaceOnUse">
<stop stop-color="#F8D2D1"/>
<stop offset="0.3" stop-color="#F7CFCE"/>
<stop offset="0.48" stop-color="#F6C7C6"/>
<stop offset="0.63" stop-color="#F4B8B8"/>
<stop offset="0.76" stop-color="#F2A4A4"/>
<stop offset="0.87" stop-color="#EF8E8E"/>
</linearGradient>
<linearGradient id="paint4_linear_4399_2127" x1="107.24" y1="0.583648" x2="104.422" y2="17.2966" gradientUnits="userSpaceOnUse">
<stop stop-color="#F8D2D1"/>
<stop offset="0.4" stop-color="#F8D4D3"/>
<stop offset="0.63" stop-color="#F9DCDB"/>
<stop offset="0.83" stop-color="#FBEBE9"/>
<stop offset="0.87" stop-color="#FCEFED"/>
</linearGradient>
<linearGradient id="paint5_linear_4399_2127" x1="118.628" y1="34.5059" x2="120.86" y2="42.69" gradientUnits="userSpaceOnUse">
<stop stop-color="#F8D2D1"/>
<stop offset="0.3" stop-color="#F7CFCE"/>
<stop offset="0.48" stop-color="#F6C7C6"/>
<stop offset="0.63" stop-color="#F4B8B8"/>
<stop offset="0.76" stop-color="#F2A4A4"/>
<stop offset="0.87" stop-color="#EF8E8E"/>
</linearGradient>
<linearGradient id="paint6_linear_4399_2127" x1="78.6759" y1="97.4179" x2="78.5665" y2="102.991" gradientUnits="userSpaceOnUse">
<stop stop-color="#F8D2D1"/>
<stop offset="0.3" stop-color="#F7CFCE"/>
<stop offset="0.48" stop-color="#F6C7C6"/>
<stop offset="0.63" stop-color="#F4B8B8"/>
<stop offset="0.76" stop-color="#F2A4A4"/>
<stop offset="0.87" stop-color="#EF8E8E"/>
</linearGradient>
<linearGradient id="paint7_linear_4399_2127" x1="78.2086" y1="14.0079" x2="84.7639" y2="18.5167" gradientUnits="userSpaceOnUse">
<stop stop-color="#F5B7B0"/>
<stop offset="0.29" stop-color="#F5B9B2"/>
<stop offset="0.46" stop-color="#F6C0BA"/>
<stop offset="0.6" stop-color="#F8CDC9"/>
<stop offset="0.73" stop-color="#FAE0DD"/>
<stop offset="0.84" stop-color="#FEF8F7"/>
<stop offset="0.87" stop-color="white"/>
</linearGradient>
<linearGradient id="paint8_linear_4399_2127" x1="2.67028" y1="65.9128" x2="9.24048" y2="70.4216" gradientUnits="userSpaceOnUse">
<stop stop-color="#F5B7B0"/>
<stop offset="0.29" stop-color="#F5B9B2"/>
<stop offset="0.46" stop-color="#F6C0BA"/>
<stop offset="0.6" stop-color="#F8CDC9"/>
<stop offset="0.73" stop-color="#FAE0DD"/>
<stop offset="0.84" stop-color="#FEF8F7"/>
<stop offset="0.87" stop-color="white"/>
</linearGradient>
<linearGradient id="paint9_linear_4399_2127" x1="25.333" y1="10.7235" x2="28.9548" y2="13.2085" gradientUnits="userSpaceOnUse">
<stop stop-color="#FBE5E3"/>
<stop offset="0.7" stop-color="#FAE2E0"/>
<stop offset="0.87" stop-color="#FAE0DE"/>
</linearGradient>
<linearGradient id="paint10_linear_4399_2127" x1="117.69" y1="82.4841" x2="121.806" y2="85.3114" gradientUnits="userSpaceOnUse">
<stop stop-color="#F8D2D1"/>
<stop offset="0.3" stop-color="#F7CFCE"/>
<stop offset="0.48" stop-color="#F6C7C6"/>
<stop offset="0.63" stop-color="#F4B8B8"/>
<stop offset="0.76" stop-color="#F2A4A4"/>
<stop offset="0.87" stop-color="#EF8E8E"/>
</linearGradient>
<clipPath id="clip0_4399_2127">
<rect width="124" height="103" fill="white"/>
</clipPath>
</defs>
</svg>
